<ttFont>
    <TTGlyph name="A" xMin="17" yMin="0" xMax="585" yMax="680">
      <contour>
        <pt x="17" y="0" on="1"/>
        <pt x="170" y="680" on="1"/>
        <pt x="432" y="680" on="1"/>
        <pt x="585" y="0" on="1"/>
        <pt x="447" y="0" on="1"/>
        <pt x="420" y="123" on="1"/>
        <pt x="182" y="123" on="1"/>
        <pt x="155" y="0" on="1"/>
      </contour>
      <contour>
        <pt x="277" y="566" on="1"/>
        <pt x="208" y="243" on="1"/>
        <pt x="394" y="243" on="1"/>
        <pt x="325" y="566" on="1"/>
      </contour>
    </TTGlyph>
    <TTGlyph name="AE" xMin="12" yMin="0" xMax="830" yMax="690">
      <contour>
        <pt x="392" y="0" on="1"/>
        <pt x="392" y="116" on="1"/>
        <pt x="179" y="116" on="1"/>
        <pt x="150" y="0" on="1"/>
        <pt x="12" y="0" on="1"/>
        <pt x="196" y="690" on="1"/>
        <pt x="830" y="690" on="1"/>
        <pt x="830" y="558" on="1"/>
        <pt x="528" y="558" on="1"/>
        <pt x="528" y="415" on="1"/>
        <pt x="770" y="415" on="1"/>
        <pt x="770" y="284" on="1"/>
        <pt x="528" y="284" on="1"/>
        <pt x="528" y="132" on="1"/>
        <pt x="830" y="132" on="1"/>
        <pt x="830" y="0" on="1"/>
      </contour>
      <contour>
        <pt x="293" y="558" on="1"/>
        <pt x="213" y="249" on="1"/>
        <pt x="392" y="249" on="1"/>
        <pt x="393" y="558" on="1"/>
      </contour>
    </TTGlyph>
    <TTGlyph name="AEacute" xMin="13" yMin="0" xMax="831" yMax="945">
      <contour>
        <pt x="393" y="0" on="1"/>
        <pt x="393" y="116" on="1"/>
        <pt x="180" y="116" on="1"/>
        <pt x="151" y="0" on="1"/>
        <pt x="13" y="0" on="1"/>
        <pt x="197" y="690" on="1"/>
        <pt x="831" y="690" on="1"/>
        <pt x="831" y="558" on="1"/>
        <pt x="529" y="558" on="1"/>
        <pt x="529" y="415" on="1"/>
        <pt x="771" y="415" on="1"/>
        <pt x="771" y="284" on="1"/>
        <pt x="529" y="284" on="1"/>
        <pt x="529" y="132" on="1"/>
        <pt x="831" y="132" on="1"/>
        <pt x="831" y="0" on="1"/>
      </contour>
      <contour>
        <pt x="294" y="558" on="1"/>
        <pt x="214" y="249" on="1"/>
        <pt x="393" y="249" on="1"/>
        <pt x="394" y="558" on="1"/>
      </contour>
      <contour>
        <pt x="365" y="839" on="1"/>
        <pt x="617" y="945" on="1"/>
        <pt x="658" y="825" on="1"/>
        <pt x="398" y="746" on="1"/>
      </contour>
    </TTGlyph>
    <TTGlyph name="Aacute" xMin="17" yMin="0" xMax="585" yMax="945">
      <contour>
        <pt x="17" y="0" on="1"/>
        <pt x="170" y="680" on="1"/>
        <pt x="432" y="680" on="1"/>
        <pt x="585" y="0" on="1"/>
        <pt x="447" y="0" on="1"/>
        <pt x="420" y="123" on="1"/>
        <pt x="182" y="123" on="1"/>
        <pt x="155" y="0" on="1"/>
      </contour>
      <contour>
        <pt x="277" y="566" on="1"/>
        <pt x="208" y="243" on="1"/>
        <pt x="394" y="243" on="1"/>
        <pt x="325" y="566" on="1"/>
      </contour>
      <contour>
        <pt x="162" y="839" on="1"/>
        <pt x="414" y="945" on="1"/>
        <pt x="455" y="825" on="1"/>
        <pt x="195" y="746" on="1"/>
      </contour>
    </TTGlyph>
    <TTGlyph name="Abreve" xMin="17" yMin="0" xMax="585" yMax="910">
      <contour>
        <pt x="17" y="0" on="1"/>
        <pt x="170" y="680" on="1"/>
        <pt x="432" y="680" on="1"/>
        <pt x="585" y="0" on="1"/>
        <pt x="447" y="0" on="1"/>
        <pt x="420" y="123" on="1"/>
        <pt x="182" y="123" on="1"/>
        <pt x="155" y="0" on="1"/>
      </contour>
      <contour>
        <pt x="277" y="566" on="1"/>
        <pt x="208" y="243" on="1"/>
        <pt x="394" y="243" on="1"/>
        <pt x="325" y="566" on="1"/>
      </contour>
      <contour>
        <pt x="236" y="885" on="0"/>
        <pt x="270" y="853" on="0"/>
        <pt x="325" y="853" on="0"/>
        <pt x="360" y="885" on="0"/>
        <pt x="363" y="910" on="1"/>
        <pt x="484" y="910" on="1"/>
        <pt x="476" y="842" on="0"/>
        <pt x="383" y="759" on="0"/>
        <pt x="211" y="759" on="0"/>
        <pt x="119" y="842" on="0"/>
        <pt x="111" y="910" on="1"/>
        <pt x="232" y="910" on="1"/>
      </contour>
    </TTGlyph>
    <TTGlyph name="Acircumflex" xMin="17" yMin="0" xMax="585" yMax="914">
      <contour>
        <pt x="17" y="0" on="1"/>
        <pt x="170" y="680" on="1"/>
        <pt x="432" y="680" on="1"/>
        <pt x="585" y="0" on="1"/>
        <pt x="447" y="0" on="1"/>
        <pt x="420" y="123" on="1"/>
        <pt x="182" y="123" on="1"/>
        <pt x="155" y="0" on="1"/>
      </contour>
      <contour>
        <pt x="277" y="566" on="1"/>
        <pt x="208" y="243" on="1"/>
        <pt x="394" y="243" on="1"/>
        <pt x="325" y="566" on="1"/>
      </contour>
      <contour>
        <pt x="107" y="765" on="1"/>
        <pt x="241" y="914" on="1"/>
        <pt x="358" y="914" on="1"/>
        <pt x="492" y="765" on="1"/>
        <pt x="350" y="765" on="1"/>
        <pt x="301" y="821" on="1"/>
        <pt x="249" y="765" on="1"/>
      </contour>
    </TTGlyph>
    <TTGlyph name="Adieresis" xMin="17" yMin="0" xMax="585" yMax="896">
      <contour>
        <pt x="17" y="0" on="1"/>
        <pt x="170" y="680" on="1"/>
        <pt x="432" y="680" on="1"/>
        <pt x="585" y="0" on="1"/>
        <pt x="447" y="0" on="1"/>
        <pt x="420" y="123" on="1"/>
        <pt x="182" y="123" on="1"/>
        <pt x="155" y="0" on="1"/>
      </contour>
      <contour>
        <pt x="277" y="566" on="1"/>
        <pt x="208" y="243" on="1"/>
        <pt x="394" y="243" on="1"/>
        <pt x="325" y="566" on="1"/>
      </contour>
      <contour>
        <pt x="129" y="764" on="1"/>
        <pt x="129" y="896" on="1"/>
        <pt x="257" y="896" on="1"/>
        <pt x="257" y="764" on="1"/>
      </contour>
      <contour>
        <pt x="343" y="764" on="1"/>
        <pt x="343" y="896" on="1"/>
        <pt x="471" y="896" on="1"/>
        <pt x="471" y="764" on="1"/>
      </contour>
    </TTGlyph>
    <TTGlyph name="Agrave" xMin="17" yMin="0" xMax="585" yMax="945">
      <contour>
        <pt x="17" y="0" on="1"/>
        <pt x="170" y="680" on="1"/>
        <pt x="432" y="680" on="1"/>
        <pt x="585" y="0" on="1"/>
        <pt x="447" y="0" on="1"/>
        <pt x="420" y="123" on="1"/>
        <pt x="182" y="123" on="1"/>
        <pt x="155" y="0" on="1"/>
      </contour>
      <contour>
        <pt x="277" y="566" on="1"/>
        <pt x="208" y="243" on="1"/>
        <pt x="394" y="243" on="1"/>
        <pt x="325" y="566" on="1"/>
      </contour>
      <contour>
        <pt x="183" y="945" on="1"/>
        <pt x="435" y="839" on="1"/>
        <pt x="402" y="746" on="1"/>
        <pt x="142" y="825" on="1"/>
      </contour>
    </TTGlyph>
    <TTGlyph name="Amacron" xMin="17" yMin="0" xMax="585" yMax="880">
      <contour>
        <pt x="17" y="0" on="1"/>
        <pt x="170" y="680" on="1"/>
        <pt x="432" y="680" on="1"/>
        <pt x="585" y="0" on="1"/>
        <pt x="447" y="0" on="1"/>
        <pt x="420" y="123" on="1"/>
        <pt x="182" y="123" on="1"/>
        <pt x="155" y="0" on="1"/>
      </contour>
      <contour>
        <pt x="277" y="566" on="1"/>
        <pt x="208" y="243" on="1"/>
        <pt x="394" y="243" on="1"/>
        <pt x="325" y="566" on="1"/>
      </contour>
      <contour>
        <pt x="124" y="782" on="1"/>
        <pt x="124" y="880" on="1"/>
        <pt x="471" y="880" on="1"/>
        <pt x="471" y="782" on="1"/>
      </contour>
    </TTGlyph>
    <TTGlyph name="Aogonek" xMin="17" yMin="-216" xMax="597" yMax="680">
      <contour>
        <pt x="567" y="0" on="1"/>
        <pt x="511" y="-47" on="0"/>
        <pt x="511" y="-114" on="0"/>
        <pt x="543" y="-114" on="1"/>
        <pt x="585" y="-110" on="1"/>
        <pt x="597" y="-205" on="1"/>
        <pt x="538" y="-216" on="0"/>
        <pt x="447" y="-216" on="0"/>
        <pt x="386" y="-164" on="0"/>
        <pt x="386" y="-120" on="1"/>
        <pt x="386" y="-52" on="0"/>
        <pt x="452" y="0" on="1"/>
        <pt x="447" y="0" on="1"/>
        <pt x="420" y="123" on="1"/>
        <pt x="182" y="123" on="1"/>
        <pt x="155" y="0" on="1"/>
        <pt x="17" y="0" on="1"/>
        <pt x="170" y="680" on="1"/>
        <pt x="432" y="680" on="1"/>
        <pt x="585" y="0" on="1"/>
      </contour>
      <contour>
        <pt x="277" y="566" on="1"/>
        <pt x="208" y="243" on="1"/>
        <pt x="394" y="243" on="1"/>
        <pt x="325" y="566" on="1"/>
      </contour>
    </TTGlyph>
    <TTGlyph name="Aring" xMin="17" yMin="0" xMax="585" yMax="847">
      <contour>
        <pt x="451" y="721" on="1"/>
        <pt x="451" y="690" on="0"/>
        <pt x="436" y="662" on="1"/>
        <pt x="585" y="0" on="1"/>
        <pt x="447" y="0" on="1"/>
        <pt x="420" y="123" on="1"/>
        <pt x="182" y="123" on="1"/>
        <pt x="155" y="0" on="1"/>
        <pt x="17" y="0" on="1"/>
        <pt x="166" y="662" on="1"/>
        <pt x="151" y="688" on="0"/>
        <pt x="151" y="721" on="1"/>
        <pt x="151" y="780" on="0"/>
        <pt x="237" y="847" on="0"/>
        <pt x="365" y="847" on="0"/>
        <pt x="451" y="780" on="0"/>
      </contour>
      <contour>
        <pt x="277" y="566" on="1"/>
        <pt x="208" y="243" on="1"/>
        <pt x="394" y="243" on="1"/>
        <pt x="325" y="566" on="1"/>
      </contour>
      <contour>
        <pt x="274" y="762" on="0"/>
        <pt x="242" y="740" on="0"/>
        <pt x="242" y="703" on="0"/>
        <pt x="270" y="681" on="0"/>
        <pt x="295" y="680" on="1"/>
        <pt x="301" y="680" on="1"/>
        <pt x="328" y="680" on="0"/>
        <pt x="360" y="702" on="0"/>
        <pt x="360" y="740" on="0"/>
        <pt x="328" y="762" on="0"/>
      </contour>
    </TTGlyph>
    <TTGlyph name="Aringacute" xMin="17" yMin="0" xMax="585" yMax="1045">
      <contour>
        <pt x="450" y="721" on="1"/>
        <pt x="450" y="688" on="0"/>
        <pt x="436" y="663" on="1"/>
        <pt x="585" y="0" on="1"/>
        <pt x="447" y="0" on="1"/>
        <pt x="420" y="123" on="1"/>
        <pt x="182" y="123" on="1"/>
        <pt x="155" y="0" on="1"/>
        <pt x="17" y="0" on="1"/>
        <pt x="165" y="660" on="1"/>
        <pt x="150" y="686" on="0"/>
        <pt x="150" y="721" on="1"/>
        <pt x="150" y="780" on="0"/>
        <pt x="236" y="847" on="0"/>
        <pt x="364" y="847" on="0"/>
        <pt x="450" y="780" on="0"/>
      </contour>
      <contour>
        <pt x="277" y="566" on="1"/>
        <pt x="208" y="243" on="1"/>
        <pt x="394" y="243" on="1"/>
        <pt x="325" y="566" on="1"/>
      </contour>
      <contour>
        <pt x="142" y="939" on="1"/>
        <pt x="394" y="1045" on="1"/>
        <pt x="435" y="925" on="1"/>
        <pt x="175" y="846" on="1"/>
      </contour>
      <contour>
        <pt x="241" y="740" on="0"/>
        <pt x="241" y="702" on="0"/>
        <pt x="273" y="680" on="0"/>
        <pt x="300" y="680" on="1"/>
        <pt x="305" y="680" on="1"/>
        <pt x="330" y="681" on="0"/>
        <pt x="359" y="703" on="0"/>
        <pt x="359" y="740" on="0"/>
        <pt x="327" y="762" on="0"/>
        <pt x="273" y="762" on="0"/>
      </contour>
    </TTGlyph>
    <TTGlyph name="Atilde" xMin="17" yMin="0" xMax="585" yMax="922">
      <contour>
        <pt x="17" y="0" on="1"/>
        <pt x="170" y="680" on="1"/>
        <pt x="432" y="680" on="1"/>
        <pt x="585" y="0" on="1"/>
        <pt x="447" y="0" on="1"/>
        <pt x="420" y="123" on="1"/>
        <pt x="182" y="123" on="1"/>
        <pt x="155" y="0" on="1"/>
      </contour>
      <contour>
        <pt x="277" y="566" on="1"/>
        <pt x="208" y="243" on="1"/>
        <pt x="394" y="243" on="1"/>
        <pt x="325" y="566" on="1"/>
      </contour>
      <contour>
        <pt x="403" y="758" on="0"/>
        <pt x="351" y="758" on="0"/>
        <pt x="224" y="804" on="0"/>
        <pt x="211" y="804" on="1"/>
        <pt x="186" y="804" on="0"/>
        <pt x="144" y="772" on="1"/>
        <pt x="130" y="762" on="1"/>
        <pt x="101" y="858" on="1"/>
        <pt x="121" y="882" on="0"/>
        <pt x="184" y="922" on="0"/>
        <pt x="243" y="922" on="0"/>
        <pt x="365" y="876" on="0"/>
        <pt x="376" y="876" on="1"/>
        <pt x="399" y="876" on="0"/>
        <pt x="442" y="908" on="1"/>
        <pt x="457" y="918" on="1"/>
        <pt x="486" y="821" on="1"/>
        <pt x="465" y="797" on="0"/>
      </contour>
    </TTGlyph>
    <TTGlyph name="B" xMin="74" yMin="0" xMax="566" yMax="680">
      <contour>
        <pt x="74" y="680" on="1"/>
        <pt x="341" y="680" on="1"/>
        <pt x="447" y="680" on="0"/>
        <pt x="553" y="595" on="0"/>
        <pt x="553" y="500" on="1"/>
        <pt x="553" y="443" on="0"/>
        <pt x="519" y="376" on="0"/>
        <pt x="478" y="350" on="1"/>
        <pt x="523" y="331" on="0"/>
        <pt x="566" y="259" on="0"/>
        <pt x="566" y="195" on="1"/>
        <pt x="566" y="96" on="0"/>
        <pt x="450" y="0" on="0"/>
        <pt x="345" y="0" on="1"/>
        <pt x="74" y="0" on="1"/>
      </contour>
      <contour>
        <pt x="338" y="284" on="1"/>
        <pt x="212" y="284" on="1"/>
        <pt x="212" y="118" on="1"/>
        <pt x="338" y="118" on="1"/>
        <pt x="383" y="118" on="0"/>
        <pt x="426" y="154" on="0"/>
        <pt x="426" y="202" on="1"/>
        <pt x="426" y="284" on="0"/>
      </contour>
      <contour>
        <pt x="334" y="562" on="1"/>
        <pt x="212" y="562" on="1"/>
        <pt x="212" y="400" on="1"/>
        <pt x="335" y="400" on="1"/>
        <pt x="413" y="400" on="0"/>
        <pt x="413" y="562" on="0"/>
      </contour>
    </TTGlyph>
    <TTGlyph name="C" xMin="47" yMin="-12" xMax="506" yMax="692">
      <contour>
        <pt x="505" y="11" on="1"/>
        <pt x="399" y="-12" on="0"/>
        <pt x="229" y="-12" on="0"/>
        <pt x="127" y="30" on="0"/>
        <pt x="69" y="122" on="0"/>
        <pt x="47" y="246" on="0"/>
        <pt x="47" y="340" on="1"/>
        <pt x="47" y="537" on="0"/>
        <pt x="158" y="692" on="0"/>
        <pt x="307" y="692" on="1"/>
        <pt x="393" y="692" on="0"/>
        <pt x="506" y="665" on="1"/>
        <pt x="502" y="555" on="1"/>
        <pt x="403" y="570" on="0"/>
        <pt x="272" y="570" on="0"/>
        <pt x="216" y="535" on="0"/>
        <pt x="189" y="437" on="0"/>
        <pt x="189" y="201" on="0"/>
        <pt x="244" y="110" on="0"/>
        <pt x="409" y="110" on="0"/>
        <pt x="502" y="124" on="1"/>
      </contour>
    </TTGlyph>
    <TTGlyph name="Cacute" xMin="47" yMin="-12" xMax="506" yMax="945">
      <contour>
        <pt x="505" y="11" on="1"/>
        <pt x="399" y="-12" on="0"/>
        <pt x="229" y="-12" on="0"/>
        <pt x="127" y="30" on="0"/>
        <pt x="69" y="122" on="0"/>
        <pt x="47" y="246" on="0"/>
        <pt x="47" y="340" on="1"/>
        <pt x="47" y="537" on="0"/>
        <pt x="158" y="692" on="0"/>
        <pt x="307" y="692" on="1"/>
        <pt x="393" y="692" on="0"/>
        <pt x="506" y="665" on="1"/>
        <pt x="502" y="555" on="1"/>
        <pt x="403" y="570" on="0"/>
        <pt x="272" y="570" on="0"/>
        <pt x="216" y="535" on="0"/>
        <pt x="189" y="437" on="0"/>
        <pt x="189" y="201" on="0"/>
        <pt x="244" y="110" on="0"/>
        <pt x="409" y="110" on="0"/>
        <pt x="502" y="124" on="1"/>
      </contour>
      <contour>
        <pt x="147" y="839" on="1"/>
        <pt x="399" y="945" on="1"/>
        <pt x="440" y="825" on="1"/>
        <pt x="180" y="746" on="1"/>
      </contour>
    </TTGlyph>
    <TTGlyph name="Ccaron" xMin="47" yMin="-12" xMax="506" yMax="914">
      <contour>
        <pt x="505" y="11" on="1"/>
        <pt x="399" y="-12" on="0"/>
        <pt x="229" y="-12" on="0"/>
        <pt x="127" y="30" on="0"/>
        <pt x="69" y="122" on="0"/>
        <pt x="47" y="246" on="0"/>
        <pt x="47" y="340" on="1"/>
        <pt x="47" y="537" on="0"/>
        <pt x="158" y="692" on="0"/>
        <pt x="307" y="692" on="1"/>
        <pt x="393" y="692" on="0"/>
        <pt x="506" y="665" on="1"/>
        <pt x="502" y="555" on="1"/>
        <pt x="403" y="570" on="0"/>
        <pt x="272" y="570" on="0"/>
        <pt x="216" y="535" on="0"/>
        <pt x="189" y="437" on="0"/>
        <pt x="189" y="201" on="0"/>
        <pt x="244" y="110" on="0"/>
        <pt x="409" y="110" on="0"/>
        <pt x="502" y="124" on="1"/>
      </contour>
      <contour>
        <pt x="250" y="765" on="1"/>
        <pt x="116" y="914" on="1"/>
        <pt x="258" y="914" on="1"/>
        <pt x="310" y="858" on="1"/>
        <pt x="359" y="914" on="1"/>
        <pt x="501" y="914" on="1"/>
        <pt x="367" y="765" on="1"/>
      </contour>
    </TTGlyph>
    <TTGlyph name="Ccedilla" xMin="47" yMin="-241" xMax="506" yMax="692">
      <contour>
        <pt x="379" y="-38" on="0"/>
        <pt x="438" y="-74" on="0"/>
        <pt x="438" y="-184" on="0"/>
        <pt x="380" y="-241" on="0"/>
        <pt x="327" y="-241" on="1"/>
        <pt x="284" y="-241" on="0"/>
        <pt x="248" y="-233" on="1"/>
        <pt x="234" y="-230" on="1"/>
        <pt x="238" y="-152" on="1"/>
        <pt x="269" y="-153" on="0"/>
        <pt x="286" y="-153" on="1"/>
        <pt x="324" y="-153" on="0"/>
        <pt x="324" y="-127" on="1"/>
        <pt x="324" y="-105" on="0"/>
        <pt x="286" y="-105" on="1"/>
        <pt x="262" y="-105" on="1"/>
        <pt x="262" y="-10" on="1"/>
        <pt x="138" y="2" on="0"/>
        <pt x="47" y="166" on="0"/>
        <pt x="47" y="537" on="0"/>
        <pt x="158" y="692" on="0"/>
        <pt x="307" y="692" on="1"/>
        <pt x="393" y="692" on="0"/>
        <pt x="506" y="665" on="1"/>
        <pt x="502" y="555" on="1"/>
        <pt x="403" y="570" on="0"/>
        <pt x="272" y="570" on="0"/>
        <pt x="216" y="535" on="0"/>
        <pt x="189" y="437" on="0"/>
        <pt x="189" y="201" on="0"/>
        <pt x="244" y="110" on="0"/>
        <pt x="409" y="110" on="0"/>
        <pt x="502" y="124" on="1"/>
        <pt x="505" y="11" on="1"/>
        <pt x="411" y="-10" on="0"/>
        <pt x="315" y="-12" on="1"/>
        <pt x="315" y="-37" on="1"/>
      </contour>
    </TTGlyph>
    <TTGlyph name="Ccircumflex" xMin="47" yMin="-12" xMax="506" yMax="914">
      <contour>
        <pt x="505" y="11" on="1"/>
        <pt x="399" y="-12" on="0"/>
        <pt x="229" y="-12" on="0"/>
        <pt x="127" y="30" on="0"/>
        <pt x="69" y="122" on="0"/>
        <pt x="47" y="246" on="0"/>
        <pt x="47" y="340" on="1"/>
        <pt x="47" y="537" on="0"/>
        <pt x="158" y="692" on="0"/>
        <pt x="307" y="692" on="1"/>
        <pt x="393" y="692" on="0"/>
        <pt x="506" y="665" on="1"/>
        <pt x="502" y="555" on="1"/>
        <pt x="403" y="570" on="0"/>
        <pt x="272" y="570" on="0"/>
        <pt x="216" y="535" on="0"/>
        <pt x="189" y="437" on="0"/>
        <pt x="189" y="201" on="0"/>
        <pt x="244" y="110" on="0"/>
        <pt x="409" y="110" on="0"/>
        <pt x="502" y="124" on="1"/>
      </contour>
      <contour>
        <pt x="107" y="765" on="1"/>
        <pt x="241" y="914" on="1"/>
        <pt x="358" y="914" on="1"/>
        <pt x="492" y="765" on="1"/>
        <pt x="350" y="765" on="1"/>
        <pt x="301" y="821" on="1"/>
        <pt x="249" y="765" on="1"/>
      </contour>
    </TTGlyph>
    <TTGlyph name="Cdotaccent" xMin="47" yMin="-12" xMax="506" yMax="895">
      <contour>
        <pt x="505" y="11" on="1"/>
        <pt x="399" y="-12" on="0"/>
        <pt x="229" y="-12" on="0"/>
        <pt x="127" y="30" on="0"/>
        <pt x="69" y="122" on="0"/>
        <pt x="47" y="246" on="0"/>
        <pt x="47" y="340" on="1"/>
        <pt x="47" y="537" on="0"/>
        <pt x="158" y="692" on="0"/>
        <pt x="307" y="692" on="1"/>
        <pt x="393" y="692" on="0"/>
        <pt x="506" y="665" on="1"/>
        <pt x="502" y="555" on="1"/>
        <pt x="403" y="570" on="0"/>
        <pt x="272" y="570" on="0"/>
        <pt x="216" y="535" on="0"/>
        <pt x="189" y="437" on="0"/>
        <pt x="189" y="201" on="0"/>
        <pt x="244" y="110" on="0"/>
        <pt x="409" y="110" on="0"/>
        <pt x="502" y="124" on="1"/>
      </contour>
      <contour>
        <pt x="219" y="760" on="1"/>
        <pt x="219" y="895" on="1"/>
        <pt x="353" y="895" on="1"/>
        <pt x="353" y="760" on="1"/>
      </contour>
    </TTGlyph>
    <TTGlyph name="D" xMin="74" yMin="0" xMax="592" yMax="680">
      <contour>
        <pt x="303" y="0" on="1"/>
        <pt x="74" y="0" on="1"/>
        <pt x="74" y="680" on="1"/>
        <pt x="303" y="680" on="1"/>
        <pt x="391" y="680" on="0"/>
        <pt x="505" y="643" on="0"/>
        <pt x="568" y="558" on="0"/>
        <pt x="592" y="443" on="0"/>
        <pt x="592" y="259" on="0"/>
        <pt x="570" y="138" on="0"/>
        <pt x="509" y="43" on="0"/>
        <pt x="393" y="0" on="0"/>
      </contour>
      <contour>
        <pt x="448" y="270" on="1"/>
        <pt x="450" y="302" on="0"/>
        <pt x="450" y="415" on="0"/>
        <pt x="442" y="483" on="0"/>
        <pt x="412" y="539" on="0"/>
        <pt x="353" y="560" on="0"/>
        <pt x="303" y="560" on="1"/>
        <pt x="212" y="560" on="1"/>
        <pt x="212" y="120" on="1"/>
        <pt x="303" y="120" on="1"/>
        <pt x="378" y="120" on="0"/>
        <pt x="412" y="158" on="1"/>
        <pt x="441" y="189" on="0"/>
      </contour>
    </TTGlyph>
    <TTGlyph name="Dcaron" xMin="74" yMin="0" xMax="592" yMax="914">
      <contour>
        <pt x="303" y="0" on="1"/>
        <pt x="74" y="0" on="1"/>
        <pt x="74" y="680" on="1"/>
        <pt x="303" y="680" on="1"/>
        <pt x="391" y="680" on="0"/>
        <pt x="505" y="643" on="0"/>
        <pt x="568" y="558" on="0"/>
        <pt x="592" y="443" on="0"/>
        <pt x="592" y="259" on="0"/>
        <pt x="570" y="138" on="0"/>
        <pt x="509" y="43" on="0"/>
        <pt x="393" y="0" on="0"/>
      </contour>
      <contour>
        <pt x="448" y="270" on="1"/>
        <pt x="450" y="302" on="0"/>
        <pt x="450" y="415" on="0"/>
        <pt x="442" y="483" on="0"/>
        <pt x="412" y="539" on="0"/>
        <pt x="353" y="560" on="0"/>
        <pt x="303" y="560" on="1"/>
        <pt x="212" y="560" on="1"/>
        <pt x="212" y="120" on="1"/>
        <pt x="303" y="120" on="1"/>
        <pt x="378" y="120" on="0"/>
        <pt x="412" y="158" on="1"/>
        <pt x="441" y="189" on="0"/>
      </contour>
      <contour>
        <pt x="246" y="765" on="1"/>
        <pt x="112" y="914" on="1"/>
        <pt x="254" y="914" on="1"/>
        <pt x="306" y="858" on="1"/>
        <pt x="355" y="914" on="1"/>
        <pt x="497" y="914" on="1"/>
        <pt x="363" y="765" on="1"/>
      </contour>
    </TTGlyph>
    <TTGlyph name="Dcroat" xMin="25" yMin="0" xMax="595" yMax="690">
      <contour>
        <pt x="25" y="277" on="1"/>
        <pt x="25" y="409" on="1"/>
        <pt x="79" y="409" on="1"/>
        <pt x="79" y="690" on="1"/>
        <pt x="306" y="690" on="1"/>
        <pt x="394" y="690" on="0"/>
        <pt x="508" y="652" on="0"/>
        <pt x="571" y="565" on="0"/>
        <pt x="595" y="448" on="0"/>
        <pt x="595" y="263" on="0"/>
        <pt x="573" y="141" on="0"/>
        <pt x="512" y="44" on="0"/>
        <pt x="396" y="0" on="0"/>
        <pt x="306" y="0" on="1"/>
        <pt x="79" y="0" on="1"/>
        <pt x="79" y="277" on="1"/>
      </contour>
      <contour>
        <pt x="453" y="354" on="1"/>
        <pt x="453" y="397" on="0"/>
        <pt x="450" y="447" on="0"/>
        <pt x="440" y="497" on="0"/>
        <pt x="420" y="526" on="0"/>
        <pt x="404" y="538" on="1"/>
        <pt x="373" y="559" on="0"/>
        <pt x="306" y="559" on="1"/>
        <pt x="215" y="559" on="1"/>
        <pt x="215" y="409" on="1"/>
        <pt x="345" y="409" on="1"/>
        <pt x="345" y="277" on="1"/>
        <pt x="215" y="277" on="1"/>
        <pt x="215" y="131" on="1"/>
        <pt x="306" y="131" on="1"/>
        <pt x="381" y="131" on="0"/>
        <pt x="416" y="169" on="1"/>
        <pt x="453" y="210" on="0"/>
      </contour>
    </TTGlyph>
    <TTGlyph name="Delta" xMin="44" yMin="0" xMax="516" yMax="660">
      <contour>
        <pt x="516" y="0" on="1"/>
        <pt x="44" y="0" on="1"/>
        <pt x="44" y="104" on="1"/>
        <pt x="168" y="660" on="1"/>
        <pt x="393" y="660" on="1"/>
        <pt x="516" y="102" on="1"/>
      </contour>
      <contour>
        <pt x="294" y="548" on="1"/>
        <pt x="267" y="548" on="1"/>
        <pt x="177" y="114" on="1"/>
        <pt x="383" y="114" on="1"/>
      </contour>
    </TTGlyph>
    <TTGlyph name="E" xMin="74" yMin="0" xMax="514" yMax="680">
      <contour>
        <pt x="74" y="0" on="1"/>
        <pt x="74" y="680" on="1"/>
        <pt x="514" y="680" on="1"/>
        <pt x="514" y="560" on="1"/>
        <pt x="212" y="560" on="1"/>
        <pt x="212" y="401" on="1"/>
        <pt x="454" y="401" on="1"/>
        <pt x="454" y="283" on="1"/>
        <pt x="212" y="283" on="1"/>
        <pt x="212" y="120" on="1"/>
        <pt x="514" y="120" on="1"/>
        <pt x="514" y="0" on="1"/>
      </contour>
    </TTGlyph>
    <TTGlyph name="Eacute" xMin="74" yMin="0" xMax="514" yMax="945">
      <contour>
        <pt x="74" y="0" on="1"/>
        <pt x="74" y="680" on="1"/>
        <pt x="514" y="680" on="1"/>
        <pt x="514" y="560" on="1"/>
        <pt x="212" y="560" on="1"/>
        <pt x="212" y="401" on="1"/>
        <pt x="454" y="401" on="1"/>
        <pt x="454" y="283" on="1"/>
        <pt x="212" y="283" on="1"/>
        <pt x="212" y="120" on="1"/>
        <pt x="514" y="120" on="1"/>
        <pt x="514" y="0" on="1"/>
      </contour>
      <contour>
        <pt x="154" y="839" on="1"/>
        <pt x="406" y="945" on="1"/>
        <pt x="447" y="825" on="1"/>
        <pt x="187" y="746" on="1"/>
      </contour>
    </TTGlyph>
    <TTGlyph name="Ebreve" xMin="74" yMin="0" xMax="514" yMax="910">
      <contour>
        <pt x="74" y="0" on="1"/>
        <pt x="74" y="680" on="1"/>
        <pt x="514" y="680" on="1"/>
        <pt x="514" y="560" on="1"/>
        <pt x="212" y="560" on="1"/>
        <pt x="212" y="401" on="1"/>
        <pt x="454" y="401" on="1"/>
        <pt x="454" y="283" on="1"/>
        <pt x="212" y="283" on="1"/>
        <pt x="212" y="120" on="1"/>
        <pt x="514" y="120" on="1"/>
        <pt x="514" y="0" on="1"/>
      </contour>
      <contour>
        <pt x="239" y="885" on="0"/>
        <pt x="273" y="853" on="0"/>
        <pt x="328" y="853" on="0"/>
        <pt x="363" y="885" on="0"/>
        <pt x="366" y="910" on="1"/>
        <pt x="487" y="910" on="1"/>
        <pt x="479" y="842" on="0"/>
        <pt x="386" y="759" on="0"/>
        <pt x="214" y="759" on="0"/>
        <pt x="122" y="842" on="0"/>
        <pt x="114" y="910" on="1"/>
        <pt x="235" y="910" on="1"/>
      </contour>
    </TTGlyph>
    <TTGlyph name="Ecaron" xMin="74" yMin="0" xMax="514" yMax="914">
      <contour>
        <pt x="74" y="0" on="1"/>
        <pt x="74" y="680" on="1"/>
        <pt x="514" y="680" on="1"/>
        <pt x="514" y="560" on="1"/>
        <pt x="212" y="560" on="1"/>
        <pt x="212" y="401" on="1"/>
        <pt x="454" y="401" on="1"/>
        <pt x="454" y="283" on="1"/>
        <pt x="212" y="283" on="1"/>
        <pt x="212" y="120" on="1"/>
        <pt x="514" y="120" on="1"/>
        <pt x="514" y="0" on="1"/>
      </contour>
      <contour>
        <pt x="221" y="765" on="1"/>
        <pt x="87" y="914" on="1"/>
        <pt x="229" y="914" on="1"/>
        <pt x="281" y="858" on="1"/>
        <pt x="330" y="914" on="1"/>
        <pt x="472" y="914" on="1"/>
        <pt x="338" y="765" on="1"/>
      </contour>
    </TTGlyph>
    <TTGlyph name="Ecircumflex" xMin="74" yMin="0" xMax="514" yMax="914">
      <contour>
        <pt x="74" y="0" on="1"/>
        <pt x="74" y="680" on="1"/>
        <pt x="514" y="680" on="1"/>
        <pt x="514" y="560" on="1"/>
        <pt x="212" y="560" on="1"/>
        <pt x="212" y="401" on="1"/>
        <pt x="454" y="401" on="1"/>
        <pt x="454" y="283" on="1"/>
        <pt x="212" y="283" on="1"/>
        <pt x="212" y="120" on="1"/>
        <pt x="514" y="120" on="1"/>
        <pt x="514" y="0" on="1"/>
      </contour>
      <contour>
        <pt x="105" y="765" on="1"/>
        <pt x="239" y="914" on="1"/>
        <pt x="356" y="914" on="1"/>
        <pt x="490" y="765" on="1"/>
        <pt x="348" y="765" on="1"/>
        <pt x="299" y="821" on="1"/>
        <pt x="247" y="765" on="1"/>
      </contour>
    </TTGlyph>
    <TTGlyph name="Edieresis" xMin="74" yMin="0" xMax="514" yMax="896">
      <contour>
        <pt x="74" y="0" on="1"/>
        <pt x="74" y="680" on="1"/>
        <pt x="514" y="680" on="1"/>
        <pt x="514" y="560" on="1"/>
        <pt x="212" y="560" on="1"/>
        <pt x="212" y="401" on="1"/>
        <pt x="454" y="401" on="1"/>
        <pt x="454" y="283" on="1"/>
        <pt x="212" y="283" on="1"/>
        <pt x="212" y="120" on="1"/>
        <pt x="514" y="120" on="1"/>
        <pt x="514" y="0" on="1"/>
      </contour>
      <contour>
        <pt x="123" y="764" on="1"/>
        <pt x="123" y="896" on="1"/>
        <pt x="251" y="896" on="1"/>
        <pt x="251" y="764" on="1"/>
      </contour>
      <contour>
        <pt x="337" y="764" on="1"/>
        <pt x="337" y="896" on="1"/>
        <pt x="465" y="896" on="1"/>
        <pt x="465" y="764" on="1"/>
      </contour>
    </TTGlyph>
    <TTGlyph name="Edotaccent" xMin="74" yMin="0" xMax="514" yMax="902">
      <contour>
        <pt x="74" y="0" on="1"/>
        <pt x="74" y="680" on="1"/>
        <pt x="514" y="680" on="1"/>
        <pt x="514" y="560" on="1"/>
        <pt x="212" y="560" on="1"/>
        <pt x="212" y="401" on="1"/>
        <pt x="454" y="401" on="1"/>
        <pt x="454" y="283" on="1"/>
        <pt x="212" y="283" on="1"/>
        <pt x="212" y="120" on="1"/>
        <pt x="514" y="120" on="1"/>
        <pt x="514" y="0" on="1"/>
      </contour>
      <contour>
        <pt x="233" y="767" on="1"/>
        <pt x="233" y="902" on="1"/>
        <pt x="367" y="902" on="1"/>
        <pt x="367" y="767" on="1"/>
      </contour>
    </TTGlyph>
    <TTGlyph name="Egrave" xMin="74" yMin="0" xMax="514" yMax="945">
      <contour>
        <pt x="74" y="0" on="1"/>
        <pt x="74" y="680" on="1"/>
        <pt x="514" y="680" on="1"/>
        <pt x="514" y="560" on="1"/>
        <pt x="212" y="560" on="1"/>
        <pt x="212" y="401" on="1"/>
        <pt x="454" y="401" on="1"/>
        <pt x="454" y="283" on="1"/>
        <pt x="212" y="283" on="1"/>
        <pt x="212" y="120" on="1"/>
        <pt x="514" y="120" on="1"/>
        <pt x="514" y="0" on="1"/>
      </contour>
      <contour>
        <pt x="180" y="945" on="1"/>
        <pt x="432" y="839" on="1"/>
        <pt x="399" y="746" on="1"/>
        <pt x="139" y="825" on="1"/>
      </contour>
    </TTGlyph>
    <TTGlyph name="Emacron" xMin="74" yMin="0" xMax="514" yMax="880">
      <contour>
        <pt x="74" y="0" on="1"/>
        <pt x="74" y="680" on="1"/>
        <pt x="514" y="680" on="1"/>
        <pt x="514" y="560" on="1"/>
        <pt x="212" y="560" on="1"/>
        <pt x="212" y="401" on="1"/>
        <pt x="454" y="401" on="1"/>
        <pt x="454" y="283" on="1"/>
        <pt x="212" y="283" on="1"/>
        <pt x="212" y="120" on="1"/>
        <pt x="514" y="120" on="1"/>
        <pt x="514" y="0" on="1"/>
      </contour>
      <contour>
        <pt x="116" y="782" on="1"/>
        <pt x="116" y="880" on="1"/>
        <pt x="463" y="880" on="1"/>
        <pt x="463" y="782" on="1"/>
      </contour>
    </TTGlyph>
    <TTGlyph name="Eng" xMin="74" yMin="-212" xMax="619" yMax="680">
      <contour>
        <pt x="74" y="0" on="1"/>
        <pt x="74" y="680" on="1"/>
        <pt x="307" y="680" on="1"/>
        <pt x="471" y="120" on="1"/>
        <pt x="481" y="120" on="1"/>
        <pt x="481" y="680" on="1"/>
        <pt x="619" y="680" on="1"/>
        <pt x="619" y="-27" on="1"/>
        <pt x="619" y="-136" on="0"/>
        <pt x="522" y="-212" on="0"/>
        <pt x="405" y="-212" on="1"/>
        <pt x="405" y="-92" on="1"/>
        <pt x="445" y="-92" on="0"/>
        <pt x="481" y="-62" on="0"/>
        <pt x="481" y="-21" on="1"/>
        <pt x="481" y="0" on="1"/>
        <pt x="392" y="0" on="1"/>
        <pt x="222" y="560" on="1"/>
        <pt x="212" y="560" on="1"/>
        <pt x="212" y="0" on="1"/>
      </contour>
    </TTGlyph>
    <TTGlyph name="Eogonek" xMin="74" yMin="-216" xMax="516" yMax="680">
      <contour>
        <pt x="74" y="0" on="1"/>
        <pt x="74" y="680" on="1"/>
        <pt x="514" y="680" on="1"/>
        <pt x="514" y="560" on="1"/>
        <pt x="212" y="560" on="1"/>
        <pt x="212" y="401" on="1"/>
        <pt x="454" y="401" on="1"/>
        <pt x="454" y="283" on="1"/>
        <pt x="212" y="283" on="1"/>
        <pt x="212" y="120" on="1"/>
        <pt x="514" y="120" on="1"/>
        <pt x="514" y="0" on="1"/>
        <pt x="486" y="0" on="1"/>
        <pt x="430" y="-47" on="0"/>
        <pt x="430" y="-114" on="0"/>
        <pt x="462" y="-114" on="1"/>
        <pt x="504" y="-110" on="1"/>
        <pt x="516" y="-205" on="1"/>
        <pt x="457" y="-216" on="0"/>
        <pt x="366" y="-216" on="0"/>
        <pt x="305" y="-164" on="0"/>
        <pt x="305" y="-120" on="1"/>
        <pt x="305" y="-52" on="0"/>
        <pt x="371" y="0" on="1"/>
      </contour>
    </TTGlyph>
    <TTGlyph name="Eth" xMin="25" yMin="0" xMax="595" yMax="690">
      <contour>
        <pt x="25" y="277" on="1"/>
        <pt x="25" y="409" on="1"/>
        <pt x="79" y="409" on="1"/>
        <pt x="79" y="690" on="1"/>
        <pt x="306" y="690" on="1"/>
        <pt x="394" y="690" on="0"/>
        <pt x="508" y="652" on="0"/>
        <pt x="571" y="565" on="0"/>
        <pt x="595" y="448" on="0"/>
        <pt x="595" y="263" on="0"/>
        <pt x="573" y="141" on="0"/>
        <pt x="512" y="44" on="0"/>
        <pt x="396" y="0" on="0"/>
        <pt x="306" y="0" on="1"/>
        <pt x="79" y="0" on="1"/>
        <pt x="79" y="277" on="1"/>
      </contour>
      <contour>
        <pt x="453" y="354" on="1"/>
        <pt x="453" y="397" on="0"/>
        <pt x="450" y="447" on="0"/>
        <pt x="440" y="497" on="0"/>
        <pt x="420" y="526" on="0"/>
        <pt x="404" y="538" on="1"/>
        <pt x="373" y="559" on="0"/>
        <pt x="306" y="559" on="1"/>
        <pt x="215" y="559" on="1"/>
        <pt x="215" y="409" on="1"/>
        <pt x="345" y="409" on="1"/>
        <pt x="345" y="277" on="1"/>
        <pt x="215" y="277" on="1"/>
        <pt x="215" y="131" on="1"/>
        <pt x="306" y="131" on="1"/>
        <pt x="381" y="131" on="0"/>
        <pt x="416" y="169" on="1"/>
        <pt x="453" y="210" on="0"/>
      </contour>
    </TTGlyph>
    <TTGlyph name="Euro" xMin="26" yMin="-12" xMax="526" yMax="672">
      <contour>
        <pt x="26" y="355" on="1"/>
        <pt x="26" y="457" on="1"/>
        <pt x="88" y="457" on="1"/>
        <pt x="103" y="574" on="0"/>
        <pt x="214" y="672" on="0"/>
        <pt x="333" y="672" on="1"/>
        <pt x="410" y="672" on="0"/>
        <pt x="526" y="646" on="1"/>
        <pt x="522" y="539" on="1"/>
        <pt x="434" y="553" on="0"/>
        <pt x="295" y="553" on="0"/>
        <pt x="239" y="513" on="0"/>
        <pt x="227" y="457" on="1"/>
        <pt x="462" y="457" on="1"/>
        <pt x="462" y="355" on="1"/>
        <pt x="219" y="355" on="1"/>
        <pt x="219" y="289" on="1"/>
        <pt x="462" y="289" on="1"/>
        <pt x="462" y="187" on="1"/>
        <pt x="231" y="187" on="1"/>
        <pt x="243" y="142" on="0"/>
        <pt x="299" y="107" on="0"/>
        <pt x="423" y="107" on="0"/>
        <pt x="522" y="120" on="1"/>
        <pt x="525" y="11" on="1"/>
        <pt x="424" y="-12" on="0"/>
        <pt x="219" y="-12" on="0"/>
        <pt x="107" y="84" on="0"/>
        <pt x="90" y="187" on="1"/>
        <pt x="26" y="187" on="1"/>
        <pt x="26" y="289" on="1"/>
        <pt x="81" y="289" on="1"/>
        <pt x="81" y="355" on="1"/>
      </contour>
    </TTGlyph>
    <TTGlyph name="F" xMin="74" yMin="0" xMax="508" yMax="680">
      <contour>
        <pt x="74" y="0" on="1"/>
        <pt x="74" y="680" on="1"/>
        <pt x="508" y="680" on="1"/>
        <pt x="508" y="560" on="1"/>
        <pt x="212" y="560" on="1"/>
        <pt x="212" y="360" on="1"/>
        <pt x="454" y="360" on="1"/>
        <pt x="454" y="240" on="1"/>
        <pt x="212" y="240" on="1"/>
        <pt x="212" y="0" on="1"/>
      </contour>
    </TTGlyph>
    <TTGlyph name="G" xMin="45" yMin="-12" xMax="555" yMax="692">
      <contour>
        <pt x="357" y="244" on="1"/>
        <pt x="357" y="364" on="1"/>
        <pt x="555" y="364" on="1"/>
        <pt x="555" y="11" on="1"/>
        <pt x="412" y="-12" on="0"/>
        <pt x="323" y="-12" on="1"/>
        <pt x="164" y="-12" on="0"/>
        <pt x="45" y="158" on="0"/>
        <pt x="45" y="528" on="0"/>
        <pt x="169" y="692" on="0"/>
        <pt x="318" y="692" on="1"/>
        <pt x="411" y="692" on="0"/>
        <pt x="519" y="671" on="1"/>
        <pt x="555" y="664" on="1"/>
        <pt x="551" y="557" on="1"/>
        <pt x="431" y="570" on="0"/>
        <pt x="278" y="570" on="0"/>
        <pt x="216" y="534" on="0"/>
        <pt x="187" y="437" on="0"/>
        <pt x="187" y="202" on="0"/>
        <pt x="245" y="108" on="0"/>
        <pt x="336" y="108" on="1"/>
        <pt x="419" y="112" on="1"/>
        <pt x="419" y="244" on="1"/>
      </contour>
    </TTGlyph>
    <TTGlyph name="Gbreve" xMin="45" yMin="-12" xMax="555" yMax="910">
      <contour>
        <pt x="357" y="244" on="1"/>
        <pt x="357" y="364" on="1"/>
        <pt x="555" y="364" on="1"/>
        <pt x="555" y="11" on="1"/>
        <pt x="412" y="-12" on="0"/>
        <pt x="323" y="-12" on="1"/>
        <pt x="164" y="-12" on="0"/>
        <pt x="45" y="158" on="0"/>
        <pt x="45" y="528" on="0"/>
        <pt x="169" y="692" on="0"/>
        <pt x="318" y="692" on="1"/>
        <pt x="411" y="692" on="0"/>
        <pt x="519" y="671" on="1"/>
        <pt x="555" y="664" on="1"/>
        <pt x="551" y="557" on="1"/>
        <pt x="431" y="570" on="0"/>
        <pt x="278" y="570" on="0"/>
        <pt x="216" y="534" on="0"/>
        <pt x="187" y="437" on="0"/>
        <pt x="187" y="202" on="0"/>
        <pt x="245" y="108" on="0"/>
        <pt x="336" y="108" on="1"/>
        <pt x="419" y="112" on="1"/>
        <pt x="419" y="244" on="1"/>
      </contour>
      <contour>
        <pt x="261" y="885" on="0"/>
        <pt x="295" y="853" on="0"/>
        <pt x="350" y="853" on="0"/>
        <pt x="385" y="885" on="0"/>
        <pt x="388" y="910" on="1"/>
        <pt x="509" y="910" on="1"/>
        <pt x="501" y="842" on="0"/>
        <pt x="408" y="759" on="0"/>
        <pt x="236" y="759" on="0"/>
        <pt x="144" y="842" on="0"/>
        <pt x="136" y="910" on="1"/>
        <pt x="257" y="910" on="1"/>
      </contour>
    </TTGlyph>
    <TTGlyph name="Gcircumflex" xMin="45" yMin="-12" xMax="555" yMax="914">
      <contour>
        <pt x="357" y="244" on="1"/>
        <pt x="357" y="364" on="1"/>
        <pt x="555" y="364" on="1"/>
        <pt x="555" y="11" on="1"/>
        <pt x="412" y="-12" on="0"/>
        <pt x="323" y="-12" on="1"/>
        <pt x="164" y="-12" on="0"/>
        <pt x="45" y="158" on="0"/>
        <pt x="45" y="528" on="0"/>
        <pt x="169" y="692" on="0"/>
        <pt x="318" y="692" on="1"/>
        <pt x="411" y="692" on="0"/>
        <pt x="519" y="671" on="1"/>
        <pt x="555" y="664" on="1"/>
        <pt x="551" y="557" on="1"/>
        <pt x="431" y="570" on="0"/>
        <pt x="278" y="570" on="0"/>
        <pt x="216" y="534" on="0"/>
        <pt x="187" y="437" on="0"/>
        <pt x="187" y="202" on="0"/>
        <pt x="245" y="108" on="0"/>
        <pt x="336" y="108" on="1"/>
        <pt x="419" y="112" on="1"/>
        <pt x="419" y="244" on="1"/>
      </contour>
      <contour>
        <pt x="136" y="765" on="1"/>
        <pt x="270" y="914" on="1"/>
        <pt x="387" y="914" on="1"/>
        <pt x="521" y="765" on="1"/>
        <pt x="379" y="765" on="1"/>
        <pt x="330" y="821" on="1"/>
        <pt x="278" y="765" on="1"/>
      </contour>
    </TTGlyph>
    <TTGlyph name="Gcommaaccent" xMin="45" yMin="-311" xMax="555" yMax="692">
      <contour>
        <pt x="357" y="244" on="1"/>
        <pt x="357" y="364" on="1"/>
        <pt x="555" y="364" on="1"/>
        <pt x="555" y="11" on="1"/>
        <pt x="412" y="-12" on="0"/>
        <pt x="323" y="-12" on="1"/>
        <pt x="164" y="-12" on="0"/>
        <pt x="45" y="158" on="0"/>
        <pt x="45" y="528" on="0"/>
        <pt x="169" y="692" on="0"/>
        <pt x="318" y="692" on="1"/>
        <pt x="411" y="692" on="0"/>
        <pt x="519" y="671" on="1"/>
        <pt x="555" y="664" on="1"/>
        <pt x="551" y="557" on="1"/>
        <pt x="431" y="570" on="0"/>
        <pt x="278" y="570" on="0"/>
        <pt x="216" y="534" on="0"/>
        <pt x="187" y="437" on="0"/>
        <pt x="187" y="202" on="0"/>
        <pt x="245" y="108" on="0"/>
        <pt x="336" y="108" on="1"/>
        <pt x="419" y="112" on="1"/>
        <pt x="419" y="244" on="1"/>
      </contour>
      <contour>
        <pt x="266" y="-77" on="1"/>
        <pt x="396" y="-77" on="1"/>
        <pt x="341" y="-311" on="1"/>
        <pt x="220" y="-311" on="1"/>
      </contour>
    </TTGlyph>
    <TTGlyph name="Gdotaccent" xMin="45" yMin="-12" xMax="555" yMax="902">
      <contour>
        <pt x="357" y="244" on="1"/>
        <pt x="357" y="364" on="1"/>
        <pt x="555" y="364" on="1"/>
        <pt x="555" y="11" on="1"/>
        <pt x="412" y="-12" on="0"/>
        <pt x="323" y="-12" on="1"/>
        <pt x="164" y="-12" on="0"/>
        <pt x="45" y="158" on="0"/>
        <pt x="45" y="528" on="0"/>
        <pt x="169" y="692" on="0"/>
        <pt x="318" y="692" on="1"/>
        <pt x="411" y="692" on="0"/>
        <pt x="519" y="671" on="1"/>
        <pt x="555" y="664" on="1"/>
        <pt x="551" y="557" on="1"/>
        <pt x="431" y="570" on="0"/>
        <pt x="278" y="570" on="0"/>
        <pt x="216" y="534" on="0"/>
        <pt x="187" y="437" on="0"/>
        <pt x="187" y="202" on="0"/>
        <pt x="245" y="108" on="0"/>
        <pt x="336" y="108" on="1"/>
        <pt x="419" y="112" on="1"/>
        <pt x="419" y="244" on="1"/>
      </contour>
      <contour>
        <pt x="245" y="767" on="1"/>
        <pt x="245" y="902" on="1"/>
        <pt x="379" y="902" on="1"/>
        <pt x="379" y="767" on="1"/>
      </contour>
    </TTGlyph>
    <TTGlyph name="H" xMin="74" yMin="0" xMax="603" yMax="680">
      <contour>
        <pt x="465" y="0" on="1"/>
        <pt x="465" y="282" on="1"/>
        <pt x="212" y="282" on="1"/>
        <pt x="212" y="0" on="1"/>
        <pt x="74" y="0" on="1"/>
        <pt x="74" y="680" on="1"/>
        <pt x="212" y="680" on="1"/>
        <pt x="212" y="402" on="1"/>
        <pt x="465" y="402" on="1"/>
        <pt x="465" y="680" on="1"/>
        <pt x="603" y="680" on="1"/>
        <pt x="603" y="0" on="1"/>
      </contour>
    </TTGlyph>
    <TTGlyph name="Hbar" xMin="19" yMin="0" xMax="673" yMax="680">
      <contour>
        <pt x="19" y="486" on="1"/>
        <pt x="19" y="602" on="1"/>
        <pt x="78" y="602" on="1"/>
        <pt x="78" y="680" on="1"/>
        <pt x="216" y="680" on="1"/>
        <pt x="216" y="602" on="1"/>
        <pt x="469" y="602" on="1"/>
        <pt x="469" y="680" on="1"/>
        <pt x="607" y="680" on="1"/>
        <pt x="607" y="602" on="1"/>
        <pt x="673" y="602" on="1"/>
        <pt x="673" y="486" on="1"/>
        <pt x="607" y="486" on="1"/>
        <pt x="607" y="0" on="1"/>
        <pt x="469" y="0" on="1"/>
        <pt x="469" y="282" on="1"/>
        <pt x="216" y="282" on="1"/>
        <pt x="216" y="0" on="1"/>
        <pt x="78" y="0" on="1"/>
        <pt x="78" y="486" on="1"/>
      </contour>
      <contour>
        <pt x="216" y="402" on="1"/>
        <pt x="469" y="402" on="1"/>
        <pt x="469" y="486" on="1"/>
        <pt x="216" y="486" on="1"/>
      </contour>
    </TTGlyph>
    <TTGlyph name="Hcircumflex" xMin="74" yMin="0" xMax="603" yMax="914">
      <contour>
        <pt x="465" y="0" on="1"/>
        <pt x="465" y="282" on="1"/>
        <pt x="212" y="282" on="1"/>
        <pt x="212" y="0" on="1"/>
        <pt x="74" y="0" on="1"/>
        <pt x="74" y="680" on="1"/>
        <pt x="212" y="680" on="1"/>
        <pt x="212" y="402" on="1"/>
        <pt x="465" y="402" on="1"/>
        <pt x="465" y="680" on="1"/>
        <pt x="603" y="680" on="1"/>
        <pt x="603" y="0" on="1"/>
      </contour>
      <contour>
        <pt x="146" y="765" on="1"/>
        <pt x="280" y="914" on="1"/>
        <pt x="397" y="914" on="1"/>
        <pt x="531" y="765" on="1"/>
        <pt x="389" y="765" on="1"/>
        <pt x="340" y="821" on="1"/>
        <pt x="288" y="765" on="1"/>
      </contour>
    </TTGlyph>
    <TTGlyph name="I" xMin="74" yMin="0" xMax="212" yMax="680">
      <contour>
        <pt x="74" y="0" on="1"/>
        <pt x="74" y="680" on="1"/>
        <pt x="212" y="680" on="1"/>
        <pt x="212" y="0" on="1"/>
      </contour>
    </TTGlyph>
    <TTGlyph name="Iacute" xMin="7" yMin="0" xMax="300" yMax="945">
      <contour>
        <pt x="74" y="0" on="1"/>
        <pt x="74" y="680" on="1"/>
        <pt x="212" y="680" on="1"/>
        <pt x="212" y="0" on="1"/>
      </contour>
      <contour>
        <pt x="7" y="839" on="1"/>
        <pt x="259" y="945" on="1"/>
        <pt x="300" y="825" on="1"/>
        <pt x="40" y="746" on="1"/>
      </contour>
    </TTGlyph>
    <TTGlyph name="Ibreve" xMin="-26" yMin="0" xMax="347" yMax="910">
      <contour>
        <pt x="74" y="0" on="1"/>
        <pt x="74" y="680" on="1"/>
        <pt x="212" y="680" on="1"/>
        <pt x="212" y="0" on="1"/>
      </contour>
      <contour>
        <pt x="99" y="885" on="0"/>
        <pt x="133" y="853" on="0"/>
        <pt x="188" y="853" on="0"/>
        <pt x="223" y="885" on="0"/>
        <pt x="226" y="910" on="1"/>
        <pt x="347" y="910" on="1"/>
        <pt x="339" y="842" on="0"/>
        <pt x="246" y="759" on="0"/>
        <pt x="74" y="759" on="0"/>
        <pt x="-18" y="842" on="0"/>
        <pt x="-26" y="910" on="1"/>
        <pt x="95" y="910" on="1"/>
      </contour>
    </TTGlyph>
    <TTGlyph name="Icircumflex" xMin="-50" yMin="0" xMax="335" yMax="914">
      <contour>
        <pt x="74" y="0" on="1"/>
        <pt x="74" y="680" on="1"/>
        <pt x="212" y="680" on="1"/>
        <pt x="212" y="0" on="1"/>
      </contour>
      <contour>
        <pt x="-50" y="765" on="1"/>
        <pt x="84" y="914" on="1"/>
        <pt x="201" y="914" on="1"/>
        <pt x="335" y="765" on="1"/>
        <pt x="193" y="765" on="1"/>
        <pt x="144" y="821" on="1"/>
        <pt x="92" y="765" on="1"/>
      </contour>
    </TTGlyph>
    <TTGlyph name="Idieresis" xMin="-28" yMin="0" xMax="314" yMax="896">
      <contour>
        <pt x="74" y="0" on="1"/>
        <pt x="74" y="680" on="1"/>
        <pt x="212" y="680" on="1"/>
        <pt x="212" y="0" on="1"/>
      </contour>
      <contour>
        <pt x="-28" y="764" on="1"/>
        <pt x="-28" y="896" on="1"/>
        <pt x="100" y="896" on="1"/>
        <pt x="100" y="764" on="1"/>
      </contour>
      <contour>
        <pt x="186" y="764" on="1"/>
        <pt x="186" y="896" on="1"/>
        <pt x="314" y="896" on="1"/>
        <pt x="314" y="764" on="1"/>
      </contour>
    </TTGlyph>
    <TTGlyph name="Idotaccent" xMin="74" yMin="0" xMax="212" yMax="902">
      <contour>
        <pt x="74" y="0" on="1"/>
        <pt x="74" y="680" on="1"/>
        <pt x="212" y="680" on="1"/>
        <pt x="212" y="0" on="1"/>
      </contour>
      <contour>
        <pt x="76" y="767" on="1"/>
        <pt x="76" y="902" on="1"/>
        <pt x="210" y="902" on="1"/>
        <pt x="210" y="767" on="1"/>
      </contour>
    </TTGlyph>
    <TTGlyph name="Igrave" xMin="-24" yMin="0" xMax="269" yMax="945">
      <contour>
        <pt x="74" y="0" on="1"/>
        <pt x="74" y="680" on="1"/>
        <pt x="212" y="680" on="1"/>
        <pt x="212" y="0" on="1"/>
      </contour>
      <contour>
        <pt x="17" y="945" on="1"/>
        <pt x="269" y="839" on="1"/>
        <pt x="236" y="746" on="1"/>
        <pt x="-24" y="825" on="1"/>
      </contour>
    </TTGlyph>
    <TTGlyph name="Imacron" xMin="-27" yMin="0" xMax="320" yMax="880">
      <contour>
        <pt x="74" y="0" on="1"/>
        <pt x="74" y="680" on="1"/>
        <pt x="212" y="680" on="1"/>
        <pt x="212" y="0" on="1"/>
      </contour>
      <contour>
        <pt x="-27" y="782" on="1"/>
        <pt x="-27" y="880" on="1"/>
        <pt x="320" y="880" on="1"/>
        <pt x="320" y="782" on="1"/>
      </contour>
    </TTGlyph>
    <TTGlyph name="Iogonek" xMin="20" yMin="-216" xMax="231" yMax="680">
      <contour>
        <pt x="74" y="0" on="1"/>
        <pt x="74" y="680" on="1"/>
        <pt x="212" y="680" on="1"/>
        <pt x="212" y="0" on="1"/>
        <pt x="188" y="-15" on="0"/>
        <pt x="145" y="-65" on="0"/>
        <pt x="145" y="-81" on="1"/>
        <pt x="145" y="-114" on="0"/>
        <pt x="177" y="-114" on="1"/>
        <pt x="219" y="-110" on="1"/>
        <pt x="231" y="-205" on="1"/>
        <pt x="172" y="-216" on="0"/>
        <pt x="81" y="-216" on="0"/>
        <pt x="20" y="-164" on="0"/>
        <pt x="20" y="-120" on="1"/>
        <pt x="20" y="-54" on="0"/>
        <pt x="88" y="0" on="1"/>
      </contour>
    </TTGlyph>
    <TTGlyph name="Itilde" xMin="-51" yMin="0" xMax="334" yMax="922">
      <contour>
        <pt x="74" y="0" on="1"/>
        <pt x="74" y="680" on="1"/>
        <pt x="212" y="680" on="1"/>
        <pt x="212" y="0" on="1"/>
      </contour>
      <contour>
        <pt x="251" y="758" on="0"/>
        <pt x="199" y="758" on="0"/>
        <pt x="72" y="804" on="0"/>
        <pt x="59" y="804" on="1"/>
        <pt x="34" y="804" on="0"/>
        <pt x="-8" y="772" on="1"/>
        <pt x="-22" y="762" on="1"/>
        <pt x="-51" y="858" on="1"/>
        <pt x="-31" y="882" on="0"/>
        <pt x="32" y="922" on="0"/>
        <pt x="91" y="922" on="0"/>
        <pt x="213" y="876" on="0"/>
        <pt x="224" y="876" on="1"/>
        <pt x="247" y="876" on="0"/>
        <pt x="290" y="908" on="1"/>
        <pt x="305" y="918" on="1"/>
        <pt x="334" y="821" on="1"/>
        <pt x="313" y="797" on="0"/>
      </contour>
    </TTGlyph>
    <TTGlyph name="J" xMin="19" yMin="-70" xMax="233" yMax="680">
      <contour>
        <pt x="19" y="-70" on="1"/>
        <pt x="19" y="50" on="1"/>
        <pt x="59" y="50" on="0"/>
        <pt x="95" y="80" on="0"/>
        <pt x="95" y="121" on="1"/>
        <pt x="95" y="680" on="1"/>
        <pt x="232" y="680" on="1"/>
        <pt x="233" y="115" on="1"/>
        <pt x="233" y="6" on="0"/>
        <pt x="136" y="-70" on="0"/>
      </contour>
    </TTGlyph>
    <TTGlyph name="Jcircumflex" xMin="-29" yMin="-70" xMax="356" yMax="914">
      <contour>
        <pt x="19" y="-70" on="1"/>
        <pt x="19" y="50" on="1"/>
        <pt x="59" y="50" on="0"/>
        <pt x="95" y="80" on="0"/>
        <pt x="95" y="121" on="1"/>
        <pt x="95" y="680" on="1"/>
        <pt x="232" y="680" on="1"/>
        <pt x="233" y="115" on="1"/>
        <pt x="233" y="6" on="0"/>
        <pt x="136" y="-70" on="0"/>
      </contour>
      <contour>
        <pt x="-29" y="765" on="1"/>
        <pt x="105" y="914" on="1"/>
        <pt x="222" y="914" on="1"/>
        <pt x="356" y="765" on="1"/>
        <pt x="214" y="765" on="1"/>
        <pt x="165" y="821" on="1"/>
        <pt x="113" y="765" on="1"/>
      </contour>
    </TTGlyph>
    <TTGlyph name="K" xMin="74" yMin="0" xMax="577" yMax="680">
      <contour>
        <pt x="212" y="0" on="1"/>
        <pt x="74" y="0" on="1"/>
        <pt x="74" y="680" on="1"/>
        <pt x="212" y="680" on="1"/>
        <pt x="212" y="381" on="1"/>
        <pt x="304" y="391" on="1"/>
        <pt x="416" y="680" on="1"/>
        <pt x="573" y="680" on="1"/>
        <pt x="425" y="339" on="1"/>
        <pt x="577" y="0" on="1"/>
        <pt x="418" y="0" on="1"/>
        <pt x="304" y="271" on="1"/>
        <pt x="212" y="261" on="1"/>
      </contour>
    </TTGlyph>
    <TTGlyph name="Kcommaaccent" xMin="74" yMin="-311" xMax="577" yMax="690">
      <contour>
        <pt x="212" y="0" on="1"/>
        <pt x="74" y="0" on="1"/>
        <pt x="74" y="690" on="1"/>
        <pt x="212" y="690" on="1"/>
        <pt x="212" y="394" on="1"/>
        <pt x="302" y="404" on="1"/>
        <pt x="414" y="690" on="1"/>
        <pt x="573" y="690" on="1"/>
        <pt x="425" y="347" on="1"/>
        <pt x="577" y="0" on="1"/>
        <pt x="418" y="0" on="1"/>
        <pt x="304" y="271" on="1"/>
        <pt x="212" y="261" on="1"/>
      </contour>
      <contour>
        <pt x="245" y="-77" on="1"/>
        <pt x="375" y="-77" on="1"/>
        <pt x="320" y="-311" on="1"/>
        <pt x="199" y="-311" on="1"/>
      </contour>
    </TTGlyph>
    <TTGlyph name="L" xMin="74" yMin="0" xMax="461" yMax="680">
      <contour>
        <pt x="461" y="0" on="1"/>
        <pt x="74" y="0" on="1"/>
        <pt x="74" y="680" on="1"/>
        <pt x="212" y="680" on="1"/>
        <pt x="212" y="122" on="1"/>
        <pt x="461" y="122" on="1"/>
      </contour>
    </TTGlyph>
    <TTGlyph name="Lacute" xMin="74" yMin="0" xMax="461" yMax="945">
      <contour>
        <pt x="461" y="0" on="1"/>
        <pt x="74" y="0" on="1"/>
        <pt x="74" y="690" on="1"/>
        <pt x="212" y="690" on="1"/>
        <pt x="212" y="133" on="1"/>
        <pt x="461" y="133" on="1"/>
      </contour>
      <contour>
        <pt x="110" y="839" on="1"/>
        <pt x="362" y="945" on="1"/>
        <pt x="403" y="825" on="1"/>
        <pt x="143" y="746" on="1"/>
      </contour>
    </TTGlyph>
    <TTGlyph name="Lcaron" xMin="74" yMin="0" xMax="461" yMax="690">
      <contour>
        <pt x="461" y="690" on="1"/>
        <pt x="461" y="430" on="1"/>
        <pt x="331" y="430" on="1"/>
        <pt x="331" y="690" on="1"/>
      </contour>
      <contour>
        <pt x="461" y="0" on="1"/>
        <pt x="74" y="0" on="1"/>
        <pt x="74" y="680" on="1"/>
        <pt x="212" y="680" on="1"/>
        <pt x="212" y="122" on="1"/>
        <pt x="461" y="122" on="1"/>
      </contour>
    </TTGlyph>
    <TTGlyph name="Lcommaaccent" xMin="74" yMin="-311" xMax="461" yMax="680">
      <contour>
        <pt x="204" y="-77" on="1"/>
        <pt x="334" y="-77" on="1"/>
        <pt x="279" y="-311" on="1"/>
        <pt x="158" y="-311" on="1"/>
      </contour>
      <contour>
        <pt x="461" y="0" on="1"/>
        <pt x="74" y="0" on="1"/>
        <pt x="74" y="680" on="1"/>
        <pt x="212" y="680" on="1"/>
        <pt x="212" y="122" on="1"/>
        <pt x="461" y="122" on="1"/>
      </contour>
    </TTGlyph>
    <TTGlyph name="Lslash" xMin="-24" yMin="0" xMax="470" yMax="680">
      <contour>
        <pt x="470" y="0" on="1"/>
        <pt x="83" y="0" on="1"/>
        <pt x="83" y="217" on="1"/>
        <pt x="41" y="188" on="1"/>
        <pt x="-24" y="278" on="1"/>
        <pt x="83" y="353" on="1"/>
        <pt x="83" y="680" on="1"/>
        <pt x="221" y="680" on="1"/>
        <pt x="221" y="449" on="1"/>
        <pt x="320" y="519" on="1"/>
        <pt x="385" y="429" on="1"/>
        <pt x="221" y="314" on="1"/>
        <pt x="221" y="122" on="1"/>
        <pt x="470" y="122" on="1"/>
      </contour>
    </TTGlyph>
    <TTGlyph name="M" xMin="74" yMin="0" xMax="784" yMax="680">
      <contour>
        <pt x="74" y="0" on="1"/>
        <pt x="74" y="680" on="1"/>
        <pt x="309" y="680" on="1"/>
        <pt x="429" y="184" on="1"/>
        <pt x="549" y="680" on="1"/>
        <pt x="784" y="680" on="1"/>
        <pt x="784" y="0" on="1"/>
        <pt x="646" y="0" on="1"/>
        <pt x="646" y="526" on="1"/>
        <pt x="631" y="526" on="1"/>
        <pt x="498" y="30" on="1"/>
        <pt x="360" y="30" on="1"/>
        <pt x="227" y="526" on="1"/>
        <pt x="212" y="526" on="1"/>
        <pt x="212" y="0" on="1"/>
      </contour>
    </TTGlyph>
    <TTGlyph name="N" xMin="74" yMin="0" xMax="619" yMax="680">
      <contour>
        <pt x="74" y="0" on="1"/>
        <pt x="74" y="680" on="1"/>
        <pt x="307" y="680" on="1"/>
        <pt x="471" y="120" on="1"/>
        <pt x="481" y="120" on="1"/>
        <pt x="481" y="680" on="1"/>
        <pt x="619" y="680" on="1"/>
        <pt x="619" y="0" on="1"/>
        <pt x="392" y="0" on="1"/>
        <pt x="222" y="560" on="1"/>
        <pt x="212" y="560" on="1"/>
        <pt x="212" y="0" on="1"/>
      </contour>
    </TTGlyph>
    <TTGlyph name="Nacute" xMin="74" yMin="0" xMax="619" yMax="945">
      <contour>
        <pt x="74" y="0" on="1"/>
        <pt x="74" y="680" on="1"/>
        <pt x="307" y="680" on="1"/>
        <pt x="471" y="120" on="1"/>
        <pt x="481" y="120" on="1"/>
        <pt x="481" y="680" on="1"/>
        <pt x="619" y="680" on="1"/>
        <pt x="619" y="0" on="1"/>
        <pt x="392" y="0" on="1"/>
        <pt x="222" y="560" on="1"/>
        <pt x="212" y="560" on="1"/>
        <pt x="212" y="0" on="1"/>
      </contour>
      <contour>
        <pt x="202" y="839" on="1"/>
        <pt x="454" y="945" on="1"/>
        <pt x="495" y="825" on="1"/>
        <pt x="235" y="746" on="1"/>
      </contour>
    </TTGlyph>
    <TTGlyph name="Ncaron" xMin="74" yMin="0" xMax="619" yMax="914">
      <contour>
        <pt x="74" y="0" on="1"/>
        <pt x="74" y="680" on="1"/>
        <pt x="307" y="680" on="1"/>
        <pt x="471" y="120" on="1"/>
        <pt x="481" y="120" on="1"/>
        <pt x="481" y="680" on="1"/>
        <pt x="619" y="680" on="1"/>
        <pt x="619" y="0" on="1"/>
        <pt x="392" y="0" on="1"/>
        <pt x="222" y="560" on="1"/>
        <pt x="212" y="560" on="1"/>
        <pt x="212" y="0" on="1"/>
      </contour>
      <contour>
        <pt x="289" y="765" on="1"/>
        <pt x="155" y="914" on="1"/>
        <pt x="297" y="914" on="1"/>
        <pt x="349" y="858" on="1"/>
        <pt x="398" y="914" on="1"/>
        <pt x="540" y="914" on="1"/>
        <pt x="406" y="765" on="1"/>
      </contour>
    </TTGlyph>
    <TTGlyph name="Ncommaaccent" xMin="74" yMin="-311" xMax="619" yMax="680">
      <contour>
        <pt x="299" y="-77" on="1"/>
        <pt x="429" y="-77" on="1"/>
        <pt x="374" y="-311" on="1"/>
        <pt x="253" y="-311" on="1"/>
      </contour>
      <contour>
        <pt x="74" y="0" on="1"/>
        <pt x="74" y="680" on="1"/>
        <pt x="307" y="680" on="1"/>
        <pt x="471" y="120" on="1"/>
        <pt x="481" y="120" on="1"/>
        <pt x="481" y="680" on="1"/>
        <pt x="619" y="680" on="1"/>
        <pt x="619" y="0" on="1"/>
        <pt x="392" y="0" on="1"/>
        <pt x="222" y="560" on="1"/>
        <pt x="212" y="560" on="1"/>
        <pt x="212" y="0" on="1"/>
      </contour>
    </TTGlyph>
    <TTGlyph name="Ntilde" xMin="74" yMin="0" xMax="619" yMax="922">
      <contour>
        <pt x="74" y="0" on="1"/>
        <pt x="74" y="680" on="1"/>
        <pt x="307" y="680" on="1"/>
        <pt x="471" y="120" on="1"/>
        <pt x="481" y="120" on="1"/>
        <pt x="481" y="680" on="1"/>
        <pt x="619" y="680" on="1"/>
        <pt x="619" y="0" on="1"/>
        <pt x="392" y="0" on="1"/>
        <pt x="222" y="560" on="1"/>
        <pt x="212" y="560" on="1"/>
        <pt x="212" y="0" on="1"/>
      </contour>
      <contour>
        <pt x="451" y="758" on="0"/>
        <pt x="399" y="758" on="0"/>
        <pt x="272" y="804" on="0"/>
        <pt x="259" y="804" on="1"/>
        <pt x="234" y="804" on="0"/>
        <pt x="192" y="772" on="1"/>
        <pt x="178" y="762" on="1"/>
        <pt x="149" y="858" on="1"/>
        <pt x="169" y="882" on="0"/>
        <pt x="232" y="922" on="0"/>
        <pt x="291" y="922" on="0"/>
        <pt x="413" y="876" on="0"/>
        <pt x="424" y="876" on="1"/>
        <pt x="447" y="876" on="0"/>
        <pt x="490" y="908" on="1"/>
        <pt x="505" y="918" on="1"/>
        <pt x="534" y="821" on="1"/>
        <pt x="513" y="797" on="0"/>
      </contour>
    </TTGlyph>
    <TTGlyph name="O" xMin="44" yMin="-12" xMax="608" yMax="692">
      <contour>
        <pt x="245" y="108" on="0"/>
        <pt x="407" y="108" on="0"/>
        <pt x="466" y="213" on="0"/>
        <pt x="466" y="460" on="0"/>
        <pt x="406" y="572" on="0"/>
        <pt x="246" y="572" on="0"/>
        <pt x="186" y="460" on="0"/>
        <pt x="186" y="213" on="0"/>
      </contour>
      <contour>
        <pt x="481" y="-12" on="0"/>
        <pt x="171" y="-12" on="0"/>
        <pt x="44" y="157" on="0"/>
        <pt x="44" y="517" on="0"/>
        <pt x="171" y="692" on="0"/>
        <pt x="481" y="692" on="0"/>
        <pt x="608" y="517" on="0"/>
        <pt x="608" y="157" on="0"/>
      </contour>
    </TTGlyph>
    <TTGlyph name="OE" xMin="46" yMin="-12" xMax="861" yMax="702">
      <contour>
        <pt x="861" y="0" on="1"/>
        <pt x="425" y="0" on="1"/>
        <pt x="349" y="-12" on="0"/>
        <pt x="306" y="-12" on="1"/>
        <pt x="155" y="-12" on="0"/>
        <pt x="46" y="155" on="0"/>
        <pt x="46" y="541" on="0"/>
        <pt x="163" y="702" on="0"/>
        <pt x="306" y="702" on="1"/>
        <pt x="349" y="702" on="0"/>
        <pt x="423" y="690" on="1"/>
        <pt x="861" y="690" on="1"/>
        <pt x="861" y="558" on="1"/>
        <pt x="559" y="558" on="1"/>
        <pt x="559" y="415" on="1"/>
        <pt x="801" y="415" on="1"/>
        <pt x="801" y="284" on="1"/>
        <pt x="559" y="284" on="1"/>
        <pt x="559" y="132" on="1"/>
        <pt x="861" y="132" on="1"/>
      </contour>
      <contour>
        <pt x="330" y="124" on="1"/>
        <pt x="355" y="124" on="0"/>
        <pt x="423" y="130" on="1"/>
        <pt x="423" y="560" on="1"/>
        <pt x="353" y="566" on="0"/>
        <pt x="271" y="566" on="0"/>
        <pt x="214" y="531" on="0"/>
        <pt x="188" y="436" on="0"/>
        <pt x="188" y="214" on="0"/>
        <pt x="243" y="124" on="0"/>
      </contour>
    </TTGlyph>
    <TTGlyph name="Oacute" xMin="44" yMin="-12" xMax="608" yMax="945">
      <contour>
        <pt x="245" y="108" on="0"/>
        <pt x="407" y="108" on="0"/>
        <pt x="466" y="213" on="0"/>
        <pt x="466" y="460" on="0"/>
        <pt x="406" y="572" on="0"/>
        <pt x="246" y="572" on="0"/>
        <pt x="186" y="460" on="0"/>
        <pt x="186" y="213" on="0"/>
      </contour>
      <contour>
        <pt x="481" y="-12" on="0"/>
        <pt x="171" y="-12" on="0"/>
        <pt x="44" y="157" on="0"/>
        <pt x="44" y="517" on="0"/>
        <pt x="171" y="692" on="0"/>
        <pt x="481" y="692" on="0"/>
        <pt x="608" y="517" on="0"/>
        <pt x="608" y="157" on="0"/>
      </contour>
      <contour>
        <pt x="167" y="839" on="1"/>
        <pt x="419" y="945" on="1"/>
        <pt x="460" y="825" on="1"/>
        <pt x="200" y="746" on="1"/>
      </contour>
    </TTGlyph>
    <TTGlyph name="Obreve" xMin="44" yMin="-12" xMax="608" yMax="910">
      <contour>
        <pt x="245" y="108" on="0"/>
        <pt x="407" y="108" on="0"/>
        <pt x="466" y="213" on="0"/>
        <pt x="466" y="460" on="0"/>
        <pt x="406" y="572" on="0"/>
        <pt x="246" y="572" on="0"/>
        <pt x="186" y="460" on="0"/>
        <pt x="186" y="213" on="0"/>
      </contour>
      <contour>
        <pt x="481" y="-12" on="0"/>
        <pt x="171" y="-12" on="0"/>
        <pt x="44" y="157" on="0"/>
        <pt x="44" y="517" on="0"/>
        <pt x="171" y="692" on="0"/>
        <pt x="481" y="692" on="0"/>
        <pt x="608" y="517" on="0"/>
        <pt x="608" y="157" on="0"/>
      </contour>
      <contour>
        <pt x="266" y="885" on="0"/>
        <pt x="300" y="853" on="0"/>
        <pt x="355" y="853" on="0"/>
        <pt x="390" y="885" on="0"/>
        <pt x="393" y="910" on="1"/>
        <pt x="514" y="910" on="1"/>
        <pt x="506" y="842" on="0"/>
        <pt x="413" y="759" on="0"/>
        <pt x="241" y="759" on="0"/>
        <pt x="149" y="842" on="0"/>
        <pt x="141" y="910" on="1"/>
        <pt x="262" y="910" on="1"/>
      </contour>
    </TTGlyph>
    <TTGlyph name="Ocircumflex" xMin="44" yMin="-12" xMax="608" yMax="914">
      <contour>
        <pt x="245" y="108" on="0"/>
        <pt x="407" y="108" on="0"/>
        <pt x="466" y="213" on="0"/>
        <pt x="466" y="460" on="0"/>
        <pt x="406" y="572" on="0"/>
        <pt x="246" y="572" on="0"/>
        <pt x="186" y="460" on="0"/>
        <pt x="186" y="213" on="0"/>
      </contour>
      <contour>
        <pt x="481" y="-12" on="0"/>
        <pt x="171" y="-12" on="0"/>
        <pt x="44" y="157" on="0"/>
        <pt x="44" y="517" on="0"/>
        <pt x="171" y="692" on="0"/>
        <pt x="481" y="692" on="0"/>
        <pt x="608" y="517" on="0"/>
        <pt x="608" y="157" on="0"/>
      </contour>
      <contour>
        <pt x="135" y="765" on="1"/>
        <pt x="269" y="914" on="1"/>
        <pt x="386" y="914" on="1"/>
        <pt x="520" y="765" on="1"/>
        <pt x="378" y="765" on="1"/>
        <pt x="329" y="821" on="1"/>
        <pt x="277" y="765" on="1"/>
      </contour>
    </TTGlyph>
    <TTGlyph name="Odieresis" xMin="44" yMin="-12" xMax="608" yMax="896">
      <contour>
        <pt x="245" y="108" on="0"/>
        <pt x="407" y="108" on="0"/>
        <pt x="466" y="213" on="0"/>
        <pt x="466" y="460" on="0"/>
        <pt x="406" y="572" on="0"/>
        <pt x="246" y="572" on="0"/>
        <pt x="186" y="460" on="0"/>
        <pt x="186" y="213" on="0"/>
      </contour>
      <contour>
        <pt x="481" y="-12" on="0"/>
        <pt x="171" y="-12" on="0"/>
        <pt x="44" y="157" on="0"/>
        <pt x="44" y="517" on="0"/>
        <pt x="171" y="692" on="0"/>
        <pt x="481" y="692" on="0"/>
        <pt x="608" y="517" on="0"/>
        <pt x="608" y="157" on="0"/>
      </contour>
      <contour>
        <pt x="155" y="764" on="1"/>
        <pt x="155" y="896" on="1"/>
        <pt x="283" y="896" on="1"/>
        <pt x="283" y="764" on="1"/>
      </contour>
      <contour>
        <pt x="369" y="764" on="1"/>
        <pt x="369" y="896" on="1"/>
        <pt x="497" y="896" on="1"/>
        <pt x="497" y="764" on="1"/>
      </contour>
    </TTGlyph>
    <TTGlyph name="Ograve" xMin="44" yMin="-12" xMax="608" yMax="945">
      <contour>
        <pt x="245" y="108" on="0"/>
        <pt x="407" y="108" on="0"/>
        <pt x="466" y="213" on="0"/>
        <pt x="466" y="460" on="0"/>
        <pt x="406" y="572" on="0"/>
        <pt x="246" y="572" on="0"/>
        <pt x="186" y="460" on="0"/>
        <pt x="186" y="213" on="0"/>
      </contour>
      <contour>
        <pt x="481" y="-12" on="0"/>
        <pt x="171" y="-12" on="0"/>
        <pt x="44" y="157" on="0"/>
        <pt x="44" y="517" on="0"/>
        <pt x="171" y="692" on="0"/>
        <pt x="481" y="692" on="0"/>
        <pt x="608" y="517" on="0"/>
        <pt x="608" y="157" on="0"/>
      </contour>
      <contour>
        <pt x="204" y="945" on="1"/>
        <pt x="456" y="839" on="1"/>
        <pt x="423" y="746" on="1"/>
        <pt x="163" y="825" on="1"/>
      </contour>
    </TTGlyph>
    <TTGlyph name="Ohungarumlaut" xMin="44" yMin="-12" xMax="608" yMax="973">
      <contour>
        <pt x="245" y="108" on="0"/>
        <pt x="407" y="108" on="0"/>
        <pt x="466" y="213" on="0"/>
        <pt x="466" y="460" on="0"/>
        <pt x="406" y="572" on="0"/>
        <pt x="246" y="572" on="0"/>
        <pt x="186" y="460" on="0"/>
        <pt x="186" y="213" on="0"/>
      </contour>
      <contour>
        <pt x="481" y="-12" on="0"/>
        <pt x="171" y="-12" on="0"/>
        <pt x="44" y="157" on="0"/>
        <pt x="44" y="517" on="0"/>
        <pt x="171" y="692" on="0"/>
        <pt x="481" y="692" on="0"/>
        <pt x="608" y="517" on="0"/>
        <pt x="608" y="157" on="0"/>
      </contour>
      <contour>
        <pt x="366" y="775" on="1"/>
        <pt x="433" y="972" on="1"/>
        <pt x="549" y="930" on="1"/>
        <pt x="471" y="739" on="1"/>
      </contour>
      <contour>
        <pt x="158" y="776" on="1"/>
        <pt x="225" y="973" on="1"/>
        <pt x="341" y="931" on="1"/>
        <pt x="263" y="740" on="1"/>
      </contour>
    </TTGlyph>
    <TTGlyph name="Omacron" xMin="44" yMin="-12" xMax="608" yMax="880">
      <contour>
        <pt x="245" y="108" on="0"/>
        <pt x="407" y="108" on="0"/>
        <pt x="466" y="213" on="0"/>
        <pt x="466" y="460" on="0"/>
        <pt x="406" y="572" on="0"/>
        <pt x="246" y="572" on="0"/>
        <pt x="186" y="460" on="0"/>
        <pt x="186" y="213" on="0"/>
      </contour>
      <contour>
        <pt x="481" y="-12" on="0"/>
        <pt x="171" y="-12" on="0"/>
        <pt x="44" y="157" on="0"/>
        <pt x="44" y="517" on="0"/>
        <pt x="171" y="692" on="0"/>
        <pt x="481" y="692" on="0"/>
        <pt x="608" y="517" on="0"/>
        <pt x="608" y="157" on="0"/>
      </contour>
      <contour>
        <pt x="149" y="782" on="1"/>
        <pt x="149" y="880" on="1"/>
        <pt x="496" y="880" on="1"/>
        <pt x="496" y="782" on="1"/>
      </contour>
    </TTGlyph>
    <TTGlyph name="Omega" xMin="40" yMin="-9" xMax="520" yMax="672">
      <contour>
        <pt x="52" y="105" on="1"/>
        <pt x="132" y="105" on="1"/>
        <pt x="123" y="114" on="0"/>
        <pt x="84" y="182" on="0"/>
        <pt x="72" y="212" on="1"/>
        <pt x="40" y="294" on="0"/>
        <pt x="40" y="385" on="1"/>
        <pt x="40" y="536" on="0"/>
        <pt x="152" y="672" on="0"/>
        <pt x="408" y="672" on="0"/>
        <pt x="520" y="536" on="0"/>
        <pt x="520" y="385" on="1"/>
        <pt x="520" y="309" on="0"/>
        <pt x="474" y="169" on="0"/>
        <pt x="451" y="137" on="1"/>
        <pt x="428" y="105" on="1"/>
        <pt x="508" y="105" on="1"/>
        <pt x="508" y="-9" on="1"/>
        <pt x="300" y="-9" on="1"/>
        <pt x="300" y="90" on="1"/>
        <pt x="329" y="139" on="0"/>
        <pt x="378" y="294" on="0"/>
        <pt x="378" y="350" on="1"/>
        <pt x="378" y="466" on="0"/>
        <pt x="341" y="552" on="0"/>
        <pt x="219" y="552" on="0"/>
        <pt x="182" y="466" on="0"/>
        <pt x="182" y="350" on="1"/>
        <pt x="182" y="294" on="0"/>
        <pt x="221" y="164" on="0"/>
        <pt x="240" y="127" on="1"/>
        <pt x="260" y="90" on="1"/>
        <pt x="260" y="-9" on="1"/>
        <pt x="52" y="-9" on="1"/>
      </contour>
    </TTGlyph>
    <TTGlyph name="Oslash" xMin="44" yMin="-127" xMax="608" yMax="810">
      <contour>
        <pt x="326" y="-12" on="1"/>
        <pt x="277" y="-12" on="0"/>
        <pt x="230" y="-2" on="1"/>
        <pt x="172" y="-127" on="1"/>
        <pt x="74" y="-78" on="1"/>
        <pt x="132" y="46" on="1"/>
        <pt x="44" y="124" on="0"/>
        <pt x="44" y="336" on="1"/>
        <pt x="44" y="517" on="0"/>
        <pt x="171" y="692" on="0"/>
        <pt x="326" y="692" on="1"/>
        <pt x="384" y="692" on="0"/>
        <pt x="427" y="680" on="1"/>
        <pt x="488" y="810" on="1"/>
        <pt x="588" y="767" on="1"/>
        <pt x="523" y="627" on="1"/>
        <pt x="608" y="545" on="0"/>
        <pt x="608" y="336" on="1"/>
        <pt x="608" y="157" on="0"/>
        <pt x="481" y="-12" on="0"/>
      </contour>
      <contour>
        <pt x="246" y="572" on="0"/>
        <pt x="186" y="460" on="0"/>
        <pt x="186" y="243" on="0"/>
        <pt x="201" y="194" on="1"/>
        <pt x="374" y="565" on="1"/>
        <pt x="350" y="572" on="0"/>
        <pt x="326" y="572" on="1"/>
      </contour>
      <contour>
        <pt x="326" y="108" on="1"/>
        <pt x="407" y="108" on="0"/>
        <pt x="466" y="213" on="0"/>
        <pt x="466" y="425" on="0"/>
        <pt x="452" y="475" on="1"/>
        <pt x="283" y="112" on="1"/>
        <pt x="300" y="108" on="0"/>
      </contour>
    </TTGlyph>
    <TTGlyph name="Oslashacute" xMin="45" yMin="-127" xMax="609" yMax="945">
      <contour>
        <pt x="327" y="-12" on="1"/>
        <pt x="278" y="-12" on="0"/>
        <pt x="231" y="-2" on="1"/>
        <pt x="173" y="-127" on="1"/>
        <pt x="75" y="-78" on="1"/>
        <pt x="133" y="46" on="1"/>
        <pt x="45" y="124" on="0"/>
        <pt x="45" y="336" on="1"/>
        <pt x="45" y="517" on="0"/>
        <pt x="172" y="692" on="0"/>
        <pt x="327" y="692" on="1"/>
        <pt x="384" y="692" on="0"/>
        <pt x="428" y="680" on="1"/>
        <pt x="489" y="810" on="1"/>
        <pt x="589" y="767" on="1"/>
        <pt x="524" y="627" on="1"/>
        <pt x="609" y="545" on="0"/>
        <pt x="609" y="336" on="1"/>
        <pt x="609" y="157" on="0"/>
        <pt x="482" y="-12" on="0"/>
      </contour>
      <contour>
        <pt x="247" y="572" on="0"/>
        <pt x="187" y="460" on="0"/>
        <pt x="187" y="243" on="0"/>
        <pt x="202" y="194" on="1"/>
        <pt x="375" y="565" on="1"/>
        <pt x="350" y="572" on="0"/>
        <pt x="327" y="572" on="1"/>
      </contour>
      <contour>
        <pt x="327" y="108" on="1"/>
        <pt x="408" y="108" on="0"/>
        <pt x="467" y="213" on="0"/>
        <pt x="467" y="425" on="0"/>
        <pt x="453" y="475" on="1"/>
        <pt x="284" y="112" on="1"/>
        <pt x="301" y="108" on="0"/>
      </contour>
      <contour>
        <pt x="170" y="839" on="1"/>
        <pt x="422" y="945" on="1"/>
        <pt x="463" y="825" on="1"/>
        <pt x="203" y="746" on="1"/>
      </contour>
    </TTGlyph>
    <TTGlyph name="Otilde" xMin="44" yMin="-12" xMax="608" yMax="922">
      <contour>
        <pt x="245" y="108" on="0"/>
        <pt x="407" y="108" on="0"/>
        <pt x="466" y="213" on="0"/>
        <pt x="466" y="460" on="0"/>
        <pt x="406" y="572" on="0"/>
        <pt x="246" y="572" on="0"/>
        <pt x="186" y="460" on="0"/>
        <pt x="186" y="213" on="0"/>
      </contour>
      <contour>
        <pt x="481" y="-12" on="0"/>
        <pt x="171" y="-12" on="0"/>
        <pt x="44" y="157" on="0"/>
        <pt x="44" y="517" on="0"/>
        <pt x="171" y="692" on="0"/>
        <pt x="481" y="692" on="0"/>
        <pt x="608" y="517" on="0"/>
        <pt x="608" y="157" on="0"/>
      </contour>
      <contour>
        <pt x="435" y="758" on="0"/>
        <pt x="383" y="758" on="0"/>
        <pt x="256" y="804" on="0"/>
        <pt x="243" y="804" on="1"/>
        <pt x="218" y="804" on="0"/>
        <pt x="176" y="772" on="1"/>
        <pt x="162" y="762" on="1"/>
        <pt x="133" y="858" on="1"/>
        <pt x="153" y="882" on="0"/>
        <pt x="216" y="922" on="0"/>
        <pt x="275" y="922" on="0"/>
        <pt x="397" y="876" on="0"/>
        <pt x="408" y="876" on="1"/>
        <pt x="431" y="876" on="0"/>
        <pt x="474" y="908" on="1"/>
        <pt x="489" y="918" on="1"/>
        <pt x="518" y="821" on="1"/>
        <pt x="497" y="797" on="0"/>
      </contour>
    </TTGlyph>
    <TTGlyph name="P" xMin="74" yMin="0" xMax="566" yMax="680">
      <contour>
        <pt x="324" y="198" on="1"/>
        <pt x="212" y="198" on="1"/>
        <pt x="212" y="0" on="1"/>
        <pt x="74" y="0" on="1"/>
        <pt x="74" y="680" on="1"/>
        <pt x="324" y="680" on="1"/>
        <pt x="566" y="680" on="0"/>
        <pt x="566" y="444" on="1"/>
        <pt x="566" y="325" on="0"/>
        <pt x="443" y="198" on="0"/>
      </contour>
      <contour>
        <pt x="212" y="316" on="1"/>
        <pt x="323" y="316" on="1"/>
        <pt x="426" y="316" on="0"/>
        <pt x="426" y="444" on="1"/>
        <pt x="426" y="507" on="0"/>
        <pt x="376" y="562" on="0"/>
        <pt x="323" y="562" on="1"/>
        <pt x="212" y="562" on="1"/>
      </contour>
    </TTGlyph>
    <TTGlyph name="Q" xMin="44" yMin="-156" xMax="608" yMax="692">
      <contour>
        <pt x="326" y="-12" on="1"/>
        <pt x="170" y="-12" on="0"/>
        <pt x="44" y="156" on="0"/>
        <pt x="44" y="517" on="0"/>
        <pt x="171" y="692" on="0"/>
        <pt x="481" y="692" on="0"/>
        <pt x="608" y="517" on="0"/>
        <pt x="608" y="336" on="1"/>
        <pt x="608" y="114" on="0"/>
        <pt x="503" y="37" on="1"/>
        <pt x="586" y="-97" on="1"/>
        <pt x="460" y="-156" on="1"/>
        <pt x="370" y="-9" on="1"/>
        <pt x="360" y="-12" on="0"/>
      </contour>
      <contour>
        <pt x="245" y="108" on="0"/>
        <pt x="407" y="108" on="0"/>
        <pt x="466" y="212" on="0"/>
        <pt x="466" y="460" on="0"/>
        <pt x="406" y="572" on="0"/>
        <pt x="246" y="572" on="0"/>
        <pt x="186" y="460" on="0"/>
        <pt x="186" y="212" on="0"/>
      </contour>
    </TTGlyph>
    <TTGlyph name="R" xMin="74" yMin="0" xMax="578" yMax="680">
      <contour>
        <pt x="212" y="228" on="1"/>
        <pt x="212" y="0" on="1"/>
        <pt x="74" y="0" on="1"/>
        <pt x="74" y="680" on="1"/>
        <pt x="338" y="680" on="1"/>
        <pt x="578" y="680" on="0"/>
        <pt x="578" y="456" on="1"/>
        <pt x="578" y="323" on="0"/>
        <pt x="478" y="260" on="1"/>
        <pt x="575" y="0" on="1"/>
        <pt x="424" y="0" on="1"/>
        <pt x="345" y="228" on="1"/>
      </contour>
      <contour>
        <pt x="389" y="346" on="0"/>
        <pt x="437" y="406" on="0"/>
        <pt x="437" y="504" on="0"/>
        <pt x="386" y="562" on="0"/>
        <pt x="338" y="562" on="1"/>
        <pt x="212" y="562" on="1"/>
        <pt x="212" y="346" on="1"/>
        <pt x="340" y="346" on="1"/>
      </contour>
    </TTGlyph>
    <TTGlyph name="Racute" xMin="74" yMin="0" xMax="578" yMax="945">
      <contour>
        <pt x="212" y="228" on="1"/>
        <pt x="212" y="0" on="1"/>
        <pt x="74" y="0" on="1"/>
        <pt x="74" y="680" on="1"/>
        <pt x="338" y="680" on="1"/>
        <pt x="578" y="680" on="0"/>
        <pt x="578" y="456" on="1"/>
        <pt x="578" y="323" on="0"/>
        <pt x="478" y="260" on="1"/>
        <pt x="575" y="0" on="1"/>
        <pt x="424" y="0" on="1"/>
        <pt x="345" y="228" on="1"/>
      </contour>
      <contour>
        <pt x="437" y="504" on="0"/>
        <pt x="386" y="562" on="0"/>
        <pt x="338" y="562" on="1"/>
        <pt x="212" y="562" on="1"/>
        <pt x="212" y="346" on="1"/>
        <pt x="340" y="346" on="1"/>
        <pt x="389" y="346" on="0"/>
        <pt x="437" y="406" on="0"/>
      </contour>
      <contour>
        <pt x="170" y="839" on="1"/>
        <pt x="422" y="945" on="1"/>
        <pt x="463" y="825" on="1"/>
        <pt x="203" y="746" on="1"/>
      </contour>
    </TTGlyph>
    <TTGlyph name="Rcaron" xMin="74" yMin="0" xMax="578" yMax="914">
      <contour>
        <pt x="212" y="228" on="1"/>
        <pt x="212" y="0" on="1"/>
        <pt x="74" y="0" on="1"/>
        <pt x="74" y="680" on="1"/>
        <pt x="338" y="680" on="1"/>
        <pt x="578" y="680" on="0"/>
        <pt x="578" y="456" on="1"/>
        <pt x="578" y="323" on="0"/>
        <pt x="478" y="260" on="1"/>
        <pt x="575" y="0" on="1"/>
        <pt x="424" y="0" on="1"/>
        <pt x="345" y="228" on="1"/>
      </contour>
      <contour>
        <pt x="389" y="346" on="0"/>
        <pt x="437" y="406" on="0"/>
        <pt x="437" y="504" on="0"/>
        <pt x="386" y="562" on="0"/>
        <pt x="338" y="562" on="1"/>
        <pt x="212" y="562" on="1"/>
        <pt x="212" y="346" on="1"/>
        <pt x="340" y="346" on="1"/>
      </contour>
      <contour>
        <pt x="241" y="765" on="1"/>
        <pt x="107" y="914" on="1"/>
        <pt x="249" y="914" on="1"/>
        <pt x="301" y="858" on="1"/>
        <pt x="350" y="914" on="1"/>
        <pt x="492" y="914" on="1"/>
        <pt x="358" y="765" on="1"/>
      </contour>
    </TTGlyph>
    <TTGlyph name="Rcommaaccent" xMin="74" yMin="-311" xMax="578" yMax="680">
      <contour>
        <pt x="211" y="-311" on="1"/>
        <pt x="257" y="-77" on="1"/>
        <pt x="387" y="-77" on="1"/>
        <pt x="332" y="-311" on="1"/>
      </contour>
      <contour>
        <pt x="212" y="228" on="1"/>
        <pt x="212" y="0" on="1"/>
        <pt x="74" y="0" on="1"/>
        <pt x="74" y="680" on="1"/>
        <pt x="338" y="680" on="1"/>
        <pt x="578" y="680" on="0"/>
        <pt x="578" y="456" on="1"/>
        <pt x="578" y="323" on="0"/>
        <pt x="478" y="260" on="1"/>
        <pt x="575" y="0" on="1"/>
        <pt x="424" y="0" on="1"/>
        <pt x="345" y="228" on="1"/>
      </contour>
      <contour>
        <pt x="389" y="346" on="0"/>
        <pt x="437" y="406" on="0"/>
        <pt x="437" y="504" on="0"/>
        <pt x="386" y="562" on="0"/>
        <pt x="338" y="562" on="1"/>
        <pt x="212" y="562" on="1"/>
        <pt x="212" y="346" on="1"/>
        <pt x="340" y="346" on="1"/>
      </contour>
    </TTGlyph>
    <TTGlyph name="S" xMin="37" yMin="-12" xMax="507" yMax="692">
      <contour>
        <pt x="283" y="572" on="1"/>
        <pt x="174" y="572" on="0"/>
        <pt x="174" y="500" on="1"/>
        <pt x="174" y="468" on="0"/>
        <pt x="228" y="434" on="0"/>
        <pt x="427" y="370" on="0"/>
        <pt x="507" y="289" on="0"/>
        <pt x="507" y="205" on="1"/>
        <pt x="507" y="98" on="0"/>
        <pt x="377" y="-12" on="0"/>
        <pt x="272" y="-12" on="1"/>
        <pt x="194" y="-12" on="0"/>
        <pt x="81" y="12" on="1"/>
        <pt x="45" y="19" on="1"/>
        <pt x="59" y="126" on="1"/>
        <pt x="193" y="108" on="0"/>
        <pt x="264" y="108" on="1"/>
        <pt x="370" y="108" on="0"/>
        <pt x="370" y="196" on="1"/>
        <pt x="370" y="228" on="0"/>
        <pt x="321" y="264" on="0"/>
        <pt x="248" y="285" on="1"/>
        <pt x="132" y="318" on="0"/>
        <pt x="37" y="409" on="0"/>
        <pt x="37" y="490" on="1"/>
        <pt x="37" y="592" on="0"/>
        <pt x="161" y="692" on="0"/>
        <pt x="269" y="692" on="1"/>
        <pt x="343" y="692" on="0"/>
        <pt x="457" y="672" on="1"/>
        <pt x="493" y="665" on="1"/>
        <pt x="482" y="556" on="1"/>
        <pt x="341" y="572" on="0"/>
      </contour>
    </TTGlyph>
    <TTGlyph name="Sacute" xMin="37" yMin="-12" xMax="507" yMax="945">
      <contour>
        <pt x="283" y="572" on="1"/>
        <pt x="174" y="572" on="0"/>
        <pt x="174" y="500" on="1"/>
        <pt x="174" y="468" on="0"/>
        <pt x="228" y="434" on="0"/>
        <pt x="427" y="370" on="0"/>
        <pt x="507" y="289" on="0"/>
        <pt x="507" y="205" on="1"/>
        <pt x="507" y="98" on="0"/>
        <pt x="377" y="-12" on="0"/>
        <pt x="272" y="-12" on="1"/>
        <pt x="194" y="-12" on="0"/>
        <pt x="81" y="12" on="1"/>
        <pt x="45" y="19" on="1"/>
        <pt x="59" y="126" on="1"/>
        <pt x="193" y="108" on="0"/>
        <pt x="264" y="108" on="1"/>
        <pt x="370" y="108" on="0"/>
        <pt x="370" y="196" on="1"/>
        <pt x="370" y="228" on="0"/>
        <pt x="321" y="264" on="0"/>
        <pt x="248" y="285" on="1"/>
        <pt x="132" y="318" on="0"/>
        <pt x="37" y="409" on="0"/>
        <pt x="37" y="490" on="1"/>
        <pt x="37" y="592" on="0"/>
        <pt x="161" y="692" on="0"/>
        <pt x="269" y="692" on="1"/>
        <pt x="343" y="692" on="0"/>
        <pt x="457" y="672" on="1"/>
        <pt x="493" y="665" on="1"/>
        <pt x="482" y="556" on="1"/>
        <pt x="341" y="572" on="0"/>
      </contour>
      <contour>
        <pt x="144" y="839" on="1"/>
        <pt x="396" y="945" on="1"/>
        <pt x="437" y="825" on="1"/>
        <pt x="177" y="746" on="1"/>
      </contour>
    </TTGlyph>
    <TTGlyph name="Scaron" xMin="37" yMin="-12" xMax="507" yMax="914">
      <contour>
        <pt x="283" y="572" on="1"/>
        <pt x="174" y="572" on="0"/>
        <pt x="174" y="500" on="1"/>
        <pt x="174" y="468" on="0"/>
        <pt x="228" y="434" on="0"/>
        <pt x="427" y="370" on="0"/>
        <pt x="507" y="289" on="0"/>
        <pt x="507" y="205" on="1"/>
        <pt x="507" y="98" on="0"/>
        <pt x="377" y="-12" on="0"/>
        <pt x="272" y="-12" on="1"/>
        <pt x="194" y="-12" on="0"/>
        <pt x="81" y="12" on="1"/>
        <pt x="45" y="19" on="1"/>
        <pt x="59" y="126" on="1"/>
        <pt x="193" y="108" on="0"/>
        <pt x="264" y="108" on="1"/>
        <pt x="370" y="108" on="0"/>
        <pt x="370" y="196" on="1"/>
        <pt x="370" y="228" on="0"/>
        <pt x="321" y="264" on="0"/>
        <pt x="248" y="285" on="1"/>
        <pt x="132" y="318" on="0"/>
        <pt x="37" y="409" on="0"/>
        <pt x="37" y="490" on="1"/>
        <pt x="37" y="592" on="0"/>
        <pt x="161" y="692" on="0"/>
        <pt x="269" y="692" on="1"/>
        <pt x="343" y="692" on="0"/>
        <pt x="457" y="672" on="1"/>
        <pt x="493" y="665" on="1"/>
        <pt x="482" y="556" on="1"/>
        <pt x="341" y="572" on="0"/>
      </contour>
      <contour>
        <pt x="235" y="765" on="1"/>
        <pt x="101" y="914" on="1"/>
        <pt x="243" y="914" on="1"/>
        <pt x="295" y="858" on="1"/>
        <pt x="344" y="914" on="1"/>
        <pt x="486" y="914" on="1"/>
        <pt x="352" y="765" on="1"/>
      </contour>
    </TTGlyph>
    <TTGlyph name="Scedilla" xMin="37" yMin="-241" xMax="507" yMax="692">
      <contour>
        <pt x="375" y="-38" on="0"/>
        <pt x="434" y="-74" on="0"/>
        <pt x="434" y="-184" on="0"/>
        <pt x="376" y="-241" on="0"/>
        <pt x="323" y="-241" on="1"/>
        <pt x="279" y="-241" on="0"/>
        <pt x="244" y="-233" on="1"/>
        <pt x="230" y="-230" on="1"/>
        <pt x="234" y="-152" on="1"/>
        <pt x="265" y="-153" on="0"/>
        <pt x="282" y="-153" on="1"/>
        <pt x="320" y="-153" on="0"/>
        <pt x="320" y="-127" on="1"/>
        <pt x="320" y="-105" on="0"/>
        <pt x="282" y="-105" on="1"/>
        <pt x="258" y="-105" on="1"/>
        <pt x="258" y="-12" on="1"/>
        <pt x="182" y="-10" on="0"/>
        <pt x="78" y="12" on="1"/>
        <pt x="45" y="19" on="1"/>
        <pt x="59" y="126" on="1"/>
        <pt x="193" y="108" on="0"/>
        <pt x="264" y="108" on="1"/>
        <pt x="370" y="108" on="0"/>
        <pt x="370" y="196" on="1"/>
        <pt x="370" y="228" on="0"/>
        <pt x="321" y="264" on="0"/>
        <pt x="248" y="285" on="1"/>
        <pt x="132" y="318" on="0"/>
        <pt x="37" y="409" on="0"/>
        <pt x="37" y="490" on="1"/>
        <pt x="37" y="592" on="0"/>
        <pt x="161" y="692" on="0"/>
        <pt x="269" y="692" on="1"/>
        <pt x="343" y="692" on="0"/>
        <pt x="457" y="672" on="1"/>
        <pt x="493" y="665" on="1"/>
        <pt x="482" y="556" on="1"/>
        <pt x="341" y="572" on="0"/>
        <pt x="283" y="572" on="1"/>
        <pt x="174" y="572" on="0"/>
        <pt x="174" y="500" on="1"/>
        <pt x="174" y="468" on="0"/>
        <pt x="228" y="434" on="0"/>
        <pt x="427" y="370" on="0"/>
        <pt x="507" y="289" on="0"/>
        <pt x="507" y="109" on="0"/>
        <pt x="400" y="-1" on="0"/>
        <pt x="311" y="-10" on="1"/>
        <pt x="311" y="-37" on="1"/>
      </contour>
    </TTGlyph>
    <TTGlyph name="Scircumflex" xMin="37" yMin="-12" xMax="507" yMax="914">
      <contour>
        <pt x="283" y="572" on="1"/>
        <pt x="174" y="572" on="0"/>
        <pt x="174" y="500" on="1"/>
        <pt x="174" y="468" on="0"/>
        <pt x="228" y="434" on="0"/>
        <pt x="427" y="370" on="0"/>
        <pt x="507" y="289" on="0"/>
        <pt x="507" y="205" on="1"/>
        <pt x="507" y="98" on="0"/>
        <pt x="377" y="-12" on="0"/>
        <pt x="272" y="-12" on="1"/>
        <pt x="194" y="-12" on="0"/>
        <pt x="81" y="12" on="1"/>
        <pt x="45" y="19" on="1"/>
        <pt x="59" y="126" on="1"/>
        <pt x="193" y="108" on="0"/>
        <pt x="264" y="108" on="1"/>
        <pt x="370" y="108" on="0"/>
        <pt x="370" y="196" on="1"/>
        <pt x="370" y="228" on="0"/>
        <pt x="321" y="264" on="0"/>
        <pt x="248" y="285" on="1"/>
        <pt x="132" y="318" on="0"/>
        <pt x="37" y="409" on="0"/>
        <pt x="37" y="490" on="1"/>
        <pt x="37" y="592" on="0"/>
        <pt x="161" y="692" on="0"/>
        <pt x="269" y="692" on="1"/>
        <pt x="343" y="692" on="0"/>
        <pt x="457" y="672" on="1"/>
        <pt x="493" y="665" on="1"/>
        <pt x="482" y="556" on="1"/>
        <pt x="341" y="572" on="0"/>
      </contour>
      <contour>
        <pt x="84" y="765" on="1"/>
        <pt x="218" y="914" on="1"/>
        <pt x="335" y="914" on="1"/>
        <pt x="469" y="765" on="1"/>
        <pt x="327" y="765" on="1"/>
        <pt x="278" y="821" on="1"/>
        <pt x="226" y="765" on="1"/>
      </contour>
    </TTGlyph>
    <TTGlyph name="Scommaaccent" xMin="37" yMin="-311" xMax="507" yMax="692">
      <contour>
        <pt x="215" y="-77" on="1"/>
        <pt x="345" y="-77" on="1"/>
        <pt x="290" y="-311" on="1"/>
        <pt x="169" y="-311" on="1"/>
      </contour>
      <contour>
        <pt x="283" y="572" on="1"/>
        <pt x="174" y="572" on="0"/>
        <pt x="174" y="500" on="1"/>
        <pt x="174" y="468" on="0"/>
        <pt x="228" y="434" on="0"/>
        <pt x="427" y="370" on="0"/>
        <pt x="507" y="289" on="0"/>
        <pt x="507" y="205" on="1"/>
        <pt x="507" y="98" on="0"/>
        <pt x="377" y="-12" on="0"/>
        <pt x="272" y="-12" on="1"/>
        <pt x="194" y="-12" on="0"/>
        <pt x="81" y="12" on="1"/>
        <pt x="45" y="19" on="1"/>
        <pt x="59" y="126" on="1"/>
        <pt x="193" y="108" on="0"/>
        <pt x="264" y="108" on="1"/>
        <pt x="370" y="108" on="0"/>
        <pt x="370" y="196" on="1"/>
        <pt x="370" y="228" on="0"/>
        <pt x="321" y="264" on="0"/>
        <pt x="248" y="285" on="1"/>
        <pt x="132" y="318" on="0"/>
        <pt x="37" y="409" on="0"/>
        <pt x="37" y="490" on="1"/>
        <pt x="37" y="592" on="0"/>
        <pt x="161" y="692" on="0"/>
        <pt x="269" y="692" on="1"/>
        <pt x="343" y="692" on="0"/>
        <pt x="457" y="672" on="1"/>
        <pt x="493" y="665" on="1"/>
        <pt x="482" y="556" on="1"/>
        <pt x="341" y="572" on="0"/>
      </contour>
    </TTGlyph>
    <TTGlyph name="T" xMin="13" yMin="0" xMax="513" yMax="680">
      <contour>
        <pt x="13" y="558" on="1"/>
        <pt x="13" y="680" on="1"/>
        <pt x="513" y="680" on="1"/>
        <pt x="513" y="558" on="1"/>
        <pt x="333" y="558" on="1"/>
        <pt x="333" y="0" on="1"/>
        <pt x="195" y="0" on="1"/>
        <pt x="195" y="558" on="1"/>
      </contour>
    </TTGlyph>
    <TTGlyph name="Tbar" xMin="14" yMin="0" xMax="514" yMax="680">
      <contour>
        <pt x="14" y="558" on="1"/>
        <pt x="14" y="680" on="1"/>
        <pt x="514" y="680" on="1"/>
        <pt x="514" y="558" on="1"/>
        <pt x="334" y="558" on="1"/>
        <pt x="334" y="369" on="1"/>
        <pt x="473" y="369" on="1"/>
        <pt x="473" y="253" on="1"/>
        <pt x="334" y="253" on="1"/>
        <pt x="334" y="0" on="1"/>
        <pt x="196" y="0" on="1"/>
        <pt x="196" y="253" on="1"/>
        <pt x="64" y="253" on="1"/>
        <pt x="64" y="369" on="1"/>
        <pt x="196" y="369" on="1"/>
        <pt x="196" y="558" on="1"/>
      </contour>
    </TTGlyph>
    <TTGlyph name="Tcaron" xMin="13" yMin="0" xMax="513" yMax="914">
      <contour>
        <pt x="13" y="558" on="1"/>
        <pt x="13" y="680" on="1"/>
        <pt x="513" y="680" on="1"/>
        <pt x="513" y="558" on="1"/>
        <pt x="333" y="558" on="1"/>
        <pt x="333" y="0" on="1"/>
        <pt x="195" y="0" on="1"/>
        <pt x="195" y="558" on="1"/>
      </contour>
      <contour>
        <pt x="206" y="765" on="1"/>
        <pt x="72" y="914" on="1"/>
        <pt x="214" y="914" on="1"/>
        <pt x="266" y="858" on="1"/>
        <pt x="315" y="914" on="1"/>
        <pt x="457" y="914" on="1"/>
        <pt x="323" y="765" on="1"/>
      </contour>
    </TTGlyph>
    <TTGlyph name="Tcommaaccent" xMin="13" yMin="-311" xMax="513" yMax="680">
      <contour>
        <pt x="223" y="-77" on="1"/>
        <pt x="353" y="-77" on="1"/>
        <pt x="298" y="-311" on="1"/>
        <pt x="177" y="-311" on="1"/>
      </contour>
      <contour>
        <pt x="13" y="558" on="1"/>
        <pt x="13" y="680" on="1"/>
        <pt x="513" y="680" on="1"/>
        <pt x="513" y="558" on="1"/>
        <pt x="333" y="558" on="1"/>
        <pt x="333" y="0" on="1"/>
        <pt x="195" y="0" on="1"/>
        <pt x="195" y="558" on="1"/>
      </contour>
    </TTGlyph>
    <TTGlyph name="Thorn" xMin="74" yMin="0" xMax="568" yMax="690">
      <contour>
        <pt x="323" y="233" on="1"/>
        <pt x="374" y="233" on="0"/>
        <pt x="428" y="296" on="0"/>
        <pt x="428" y="353" on="1"/>
        <pt x="428" y="460" on="0"/>
        <pt x="323" y="460" on="1"/>
        <pt x="212" y="460" on="1"/>
        <pt x="212" y="233" on="1"/>
      </contour>
      <contour>
        <pt x="324" y="99" on="1"/>
        <pt x="212" y="99" on="1"/>
        <pt x="212" y="0" on="1"/>
        <pt x="74" y="0" on="1"/>
        <pt x="74" y="690" on="1"/>
        <pt x="212" y="690" on="1"/>
        <pt x="212" y="592" on="1"/>
        <pt x="324" y="592" on="1"/>
        <pt x="568" y="592" on="0"/>
        <pt x="568" y="353" on="1"/>
        <pt x="568" y="232" on="0"/>
        <pt x="443" y="99" on="0"/>
      </contour>
    </TTGlyph>
    <TTGlyph name="U" xMin="68" yMin="-12" xMax="586" yMax="680">
      <contour>
        <pt x="206" y="227" on="1"/>
        <pt x="206" y="108" on="0"/>
        <pt x="448" y="108" on="0"/>
        <pt x="448" y="227" on="1"/>
        <pt x="448" y="680" on="1"/>
        <pt x="586" y="680" on="1"/>
        <pt x="586" y="230" on="1"/>
        <pt x="586" y="105" on="0"/>
        <pt x="457" y="-12" on="0"/>
        <pt x="197" y="-12" on="0"/>
        <pt x="68" y="105" on="0"/>
        <pt x="68" y="230" on="1"/>
        <pt x="68" y="680" on="1"/>
        <pt x="206" y="680" on="1"/>
      </contour>
    </TTGlyph>
    <TTGlyph name="Uacute" xMin="68" yMin="-12" xMax="586" yMax="945">
      <contour>
        <pt x="206" y="227" on="1"/>
        <pt x="206" y="108" on="0"/>
        <pt x="448" y="108" on="0"/>
        <pt x="448" y="227" on="1"/>
        <pt x="448" y="680" on="1"/>
        <pt x="586" y="680" on="1"/>
        <pt x="586" y="230" on="1"/>
        <pt x="586" y="105" on="0"/>
        <pt x="457" y="-12" on="0"/>
        <pt x="197" y="-12" on="0"/>
        <pt x="68" y="105" on="0"/>
        <pt x="68" y="230" on="1"/>
        <pt x="68" y="680" on="1"/>
        <pt x="206" y="680" on="1"/>
      </contour>
      <contour>
        <pt x="175" y="839" on="1"/>
        <pt x="427" y="945" on="1"/>
        <pt x="468" y="825" on="1"/>
        <pt x="208" y="746" on="1"/>
      </contour>
    </TTGlyph>
    <TTGlyph name="Ubreve" xMin="68" yMin="-12" xMax="586" yMax="910">
      <contour>
        <pt x="206" y="227" on="1"/>
        <pt x="206" y="108" on="0"/>
        <pt x="448" y="108" on="0"/>
        <pt x="448" y="227" on="1"/>
        <pt x="448" y="680" on="1"/>
        <pt x="586" y="680" on="1"/>
        <pt x="586" y="230" on="1"/>
        <pt x="586" y="105" on="0"/>
        <pt x="457" y="-12" on="0"/>
        <pt x="197" y="-12" on="0"/>
        <pt x="68" y="105" on="0"/>
        <pt x="68" y="230" on="1"/>
        <pt x="68" y="680" on="1"/>
        <pt x="206" y="680" on="1"/>
      </contour>
      <contour>
        <pt x="270" y="885" on="0"/>
        <pt x="304" y="853" on="0"/>
        <pt x="359" y="853" on="0"/>
        <pt x="394" y="885" on="0"/>
        <pt x="397" y="910" on="1"/>
        <pt x="518" y="910" on="1"/>
        <pt x="510" y="842" on="0"/>
        <pt x="417" y="759" on="0"/>
        <pt x="245" y="759" on="0"/>
        <pt x="153" y="842" on="0"/>
        <pt x="145" y="910" on="1"/>
        <pt x="266" y="910" on="1"/>
      </contour>
    </TTGlyph>
    <TTGlyph name="Ucircumflex" xMin="68" yMin="-12" xMax="586" yMax="914">
      <contour>
        <pt x="206" y="227" on="1"/>
        <pt x="206" y="108" on="0"/>
        <pt x="448" y="108" on="0"/>
        <pt x="448" y="227" on="1"/>
        <pt x="448" y="680" on="1"/>
        <pt x="586" y="680" on="1"/>
        <pt x="586" y="230" on="1"/>
        <pt x="586" y="105" on="0"/>
        <pt x="457" y="-12" on="0"/>
        <pt x="197" y="-12" on="0"/>
        <pt x="68" y="105" on="0"/>
        <pt x="68" y="230" on="1"/>
        <pt x="68" y="680" on="1"/>
        <pt x="206" y="680" on="1"/>
      </contour>
      <contour>
        <pt x="135" y="765" on="1"/>
        <pt x="269" y="914" on="1"/>
        <pt x="386" y="914" on="1"/>
        <pt x="520" y="765" on="1"/>
        <pt x="378" y="765" on="1"/>
        <pt x="329" y="821" on="1"/>
        <pt x="277" y="765" on="1"/>
      </contour>
    </TTGlyph>
    <TTGlyph name="Udieresis" xMin="68" yMin="-12" xMax="586" yMax="896">
      <contour>
        <pt x="206" y="227" on="1"/>
        <pt x="206" y="108" on="0"/>
        <pt x="448" y="108" on="0"/>
        <pt x="448" y="227" on="1"/>
        <pt x="448" y="680" on="1"/>
        <pt x="586" y="680" on="1"/>
        <pt x="586" y="230" on="1"/>
        <pt x="586" y="105" on="0"/>
        <pt x="457" y="-12" on="0"/>
        <pt x="197" y="-12" on="0"/>
        <pt x="68" y="105" on="0"/>
        <pt x="68" y="230" on="1"/>
        <pt x="68" y="680" on="1"/>
        <pt x="206" y="680" on="1"/>
      </contour>
      <contour>
        <pt x="156" y="764" on="1"/>
        <pt x="156" y="896" on="1"/>
        <pt x="284" y="896" on="1"/>
        <pt x="284" y="764" on="1"/>
      </contour>
      <contour>
        <pt x="370" y="764" on="1"/>
        <pt x="370" y="896" on="1"/>
        <pt x="498" y="896" on="1"/>
        <pt x="498" y="764" on="1"/>
      </contour>
    </TTGlyph>
    <TTGlyph name="Ugrave" xMin="68" yMin="-12" xMax="586" yMax="945">
      <contour>
        <pt x="206" y="227" on="1"/>
        <pt x="206" y="108" on="0"/>
        <pt x="448" y="108" on="0"/>
        <pt x="448" y="227" on="1"/>
        <pt x="448" y="680" on="1"/>
        <pt x="586" y="680" on="1"/>
        <pt x="586" y="230" on="1"/>
        <pt x="586" y="105" on="0"/>
        <pt x="457" y="-12" on="0"/>
        <pt x="197" y="-12" on="0"/>
        <pt x="68" y="105" on="0"/>
        <pt x="68" y="230" on="1"/>
        <pt x="68" y="680" on="1"/>
        <pt x="206" y="680" on="1"/>
      </contour>
      <contour>
        <pt x="216" y="945" on="1"/>
        <pt x="468" y="839" on="1"/>
        <pt x="435" y="746" on="1"/>
        <pt x="175" y="825" on="1"/>
      </contour>
    </TTGlyph>
    <TTGlyph name="Uhungarumlaut" xMin="68" yMin="-12" xMax="586" yMax="973">
      <contour>
        <pt x="206" y="227" on="1"/>
        <pt x="206" y="108" on="0"/>
        <pt x="448" y="108" on="0"/>
        <pt x="448" y="227" on="1"/>
        <pt x="448" y="680" on="1"/>
        <pt x="586" y="680" on="1"/>
        <pt x="586" y="230" on="1"/>
        <pt x="586" y="105" on="0"/>
        <pt x="457" y="-12" on="0"/>
        <pt x="197" y="-12" on="0"/>
        <pt x="68" y="105" on="0"/>
        <pt x="68" y="230" on="1"/>
        <pt x="68" y="680" on="1"/>
        <pt x="206" y="680" on="1"/>
      </contour>
      <contour>
        <pt x="361" y="775" on="1"/>
        <pt x="428" y="972" on="1"/>
        <pt x="544" y="930" on="1"/>
        <pt x="466" y="739" on="1"/>
      </contour>
      <contour>
        <pt x="153" y="776" on="1"/>
        <pt x="220" y="973" on="1"/>
        <pt x="336" y="931" on="1"/>
        <pt x="258" y="740" on="1"/>
      </contour>
    </TTGlyph>
    <TTGlyph name="Umacron" xMin="68" yMin="-12" xMax="586" yMax="880">
      <contour>
        <pt x="206" y="227" on="1"/>
        <pt x="206" y="108" on="0"/>
        <pt x="448" y="108" on="0"/>
        <pt x="448" y="227" on="1"/>
        <pt x="448" y="680" on="1"/>
        <pt x="586" y="680" on="1"/>
        <pt x="586" y="230" on="1"/>
        <pt x="586" y="105" on="0"/>
        <pt x="457" y="-12" on="0"/>
        <pt x="197" y="-12" on="0"/>
        <pt x="68" y="105" on="0"/>
        <pt x="68" y="230" on="1"/>
        <pt x="68" y="680" on="1"/>
        <pt x="206" y="680" on="1"/>
      </contour>
      <contour>
        <pt x="157" y="782" on="1"/>
        <pt x="157" y="880" on="1"/>
        <pt x="504" y="880" on="1"/>
        <pt x="504" y="782" on="1"/>
      </contour>
    </TTGlyph>
    <TTGlyph name="Uogonek" xMin="69" yMin="-216" xMax="587" yMax="680">
      <contour>
        <pt x="207" y="227" on="1"/>
        <pt x="207" y="108" on="0"/>
        <pt x="449" y="108" on="0"/>
        <pt x="449" y="227" on="1"/>
        <pt x="449" y="680" on="1"/>
        <pt x="587" y="680" on="1"/>
        <pt x="587" y="230" on="1"/>
        <pt x="587" y="33" on="0"/>
        <pt x="420" y="-3" on="1"/>
        <pt x="367" y="-48" on="0"/>
        <pt x="367" y="-114" on="0"/>
        <pt x="399" y="-114" on="1"/>
        <pt x="441" y="-110" on="1"/>
        <pt x="453" y="-205" on="1"/>
        <pt x="394" y="-216" on="0"/>
        <pt x="303" y="-216" on="0"/>
        <pt x="242" y="-164" on="0"/>
        <pt x="242" y="-120" on="1"/>
        <pt x="242" y="-60" on="0"/>
        <pt x="295" y="-11" on="1"/>
        <pt x="182" y="-4" on="0"/>
        <pt x="69" y="112" on="0"/>
        <pt x="69" y="230" on="1"/>
        <pt x="69" y="680" on="1"/>
        <pt x="207" y="680" on="1"/>
      </contour>
    </TTGlyph>
    <TTGlyph name="Uring" xMin="68" yMin="-12" xMax="586" yMax="965">
      <contour>
        <pt x="206" y="227" on="1"/>
        <pt x="206" y="108" on="0"/>
        <pt x="448" y="108" on="0"/>
        <pt x="448" y="227" on="1"/>
        <pt x="448" y="680" on="1"/>
        <pt x="586" y="680" on="1"/>
        <pt x="586" y="230" on="1"/>
        <pt x="586" y="105" on="0"/>
        <pt x="457" y="-12" on="0"/>
        <pt x="197" y="-12" on="0"/>
        <pt x="68" y="105" on="0"/>
        <pt x="68" y="230" on="1"/>
        <pt x="68" y="680" on="1"/>
        <pt x="206" y="680" on="1"/>
      </contour>
      <contour>
        <pt x="481" y="898" on="0"/>
        <pt x="481" y="780" on="0"/>
        <pt x="395" y="713" on="0"/>
        <pt x="267" y="713" on="0"/>
        <pt x="181" y="780" on="0"/>
        <pt x="181" y="898" on="0"/>
        <pt x="267" y="965" on="0"/>
        <pt x="395" y="965" on="0"/>
      </contour>
      <contour>
        <pt x="272" y="858" on="0"/>
        <pt x="272" y="820" on="0"/>
        <pt x="304" y="798" on="0"/>
        <pt x="358" y="798" on="0"/>
        <pt x="390" y="820" on="0"/>
        <pt x="390" y="858" on="0"/>
        <pt x="358" y="880" on="0"/>
        <pt x="304" y="880" on="0"/>
      </contour>
    </TTGlyph>
    <TTGlyph name="Utilde" xMin="68" yMin="-12" xMax="586" yMax="922">
      <contour>
        <pt x="206" y="227" on="1"/>
        <pt x="206" y="108" on="0"/>
        <pt x="448" y="108" on="0"/>
        <pt x="448" y="227" on="1"/>
        <pt x="448" y="680" on="1"/>
        <pt x="586" y="680" on="1"/>
        <pt x="586" y="230" on="1"/>
        <pt x="586" y="105" on="0"/>
        <pt x="457" y="-12" on="0"/>
        <pt x="197" y="-12" on="0"/>
        <pt x="68" y="105" on="0"/>
        <pt x="68" y="230" on="1"/>
        <pt x="68" y="680" on="1"/>
        <pt x="206" y="680" on="1"/>
      </contour>
      <contour>
        <pt x="430" y="758" on="0"/>
        <pt x="378" y="758" on="0"/>
        <pt x="251" y="804" on="0"/>
        <pt x="238" y="804" on="1"/>
        <pt x="213" y="804" on="0"/>
        <pt x="171" y="772" on="1"/>
        <pt x="157" y="762" on="1"/>
        <pt x="128" y="858" on="1"/>
        <pt x="148" y="882" on="0"/>
        <pt x="211" y="922" on="0"/>
        <pt x="270" y="922" on="0"/>
        <pt x="392" y="876" on="0"/>
        <pt x="403" y="876" on="1"/>
        <pt x="426" y="876" on="0"/>
        <pt x="470" y="908" on="1"/>
        <pt x="484" y="918" on="1"/>
        <pt x="513" y="821" on="1"/>
        <pt x="492" y="797" on="0"/>
      </contour>
    </TTGlyph>
    <TTGlyph name="V" xMin="16" yMin="0" xMax="587" yMax="680">
      <contour>
        <pt x="442" y="680" on="1"/>
        <pt x="587" y="680" on="1"/>
        <pt x="429" y="0" on="1"/>
        <pt x="174" y="0" on="1"/>
        <pt x="16" y="680" on="1"/>
        <pt x="161" y="680" on="1"/>
        <pt x="279" y="120" on="1"/>
        <pt x="324" y="120" on="1"/>
      </contour>
    </TTGlyph>
    <TTGlyph name="W" xMin="19" yMin="0" xMax="911" yMax="680">
      <contour>
        <pt x="19" y="680" on="1"/>
        <pt x="164" y="680" on="1"/>
        <pt x="248" y="118" on="1"/>
        <pt x="263" y="118" on="1"/>
        <pt x="385" y="680" on="1"/>
        <pt x="545" y="680" on="1"/>
        <pt x="667" y="118" on="1"/>
        <pt x="682" y="118" on="1"/>
        <pt x="766" y="680" on="1"/>
        <pt x="911" y="680" on="1"/>
        <pt x="781" y="0" on="1"/>
        <pt x="572" y="0" on="1"/>
        <pt x="465" y="517" on="1"/>
        <pt x="358" y="0" on="1"/>
        <pt x="149" y="0" on="1"/>
      </contour>
    </TTGlyph>
    <TTGlyph name="Wacute" xMin="19" yMin="0" xMax="911" yMax="945">
      <contour>
        <pt x="19" y="680" on="1"/>
        <pt x="164" y="680" on="1"/>
        <pt x="248" y="118" on="1"/>
        <pt x="263" y="118" on="1"/>
        <pt x="385" y="680" on="1"/>
        <pt x="545" y="680" on="1"/>
        <pt x="667" y="118" on="1"/>
        <pt x="682" y="118" on="1"/>
        <pt x="766" y="680" on="1"/>
        <pt x="911" y="680" on="1"/>
        <pt x="781" y="0" on="1"/>
        <pt x="572" y="0" on="1"/>
        <pt x="465" y="517" on="1"/>
        <pt x="358" y="0" on="1"/>
        <pt x="149" y="0" on="1"/>
      </contour>
      <contour>
        <pt x="329" y="839" on="1"/>
        <pt x="581" y="945" on="1"/>
        <pt x="622" y="825" on="1"/>
        <pt x="362" y="746" on="1"/>
      </contour>
    </TTGlyph>
    <TTGlyph name="Wcircumflex" xMin="19" yMin="0" xMax="911" yMax="914">
      <contour>
        <pt x="19" y="680" on="1"/>
        <pt x="164" y="680" on="1"/>
        <pt x="248" y="118" on="1"/>
        <pt x="263" y="118" on="1"/>
        <pt x="385" y="680" on="1"/>
        <pt x="545" y="680" on="1"/>
        <pt x="667" y="118" on="1"/>
        <pt x="682" y="118" on="1"/>
        <pt x="766" y="680" on="1"/>
        <pt x="911" y="680" on="1"/>
        <pt x="781" y="0" on="1"/>
        <pt x="572" y="0" on="1"/>
        <pt x="465" y="517" on="1"/>
        <pt x="358" y="0" on="1"/>
        <pt x="149" y="0" on="1"/>
      </contour>
      <contour>
        <pt x="273" y="765" on="1"/>
        <pt x="407" y="914" on="1"/>
        <pt x="524" y="914" on="1"/>
        <pt x="658" y="765" on="1"/>
        <pt x="516" y="765" on="1"/>
        <pt x="467" y="821" on="1"/>
        <pt x="415" y="765" on="1"/>
      </contour>
    </TTGlyph>
    <TTGlyph name="Wdieresis" xMin="19" yMin="0" xMax="911" yMax="896">
      <contour>
        <pt x="19" y="680" on="1"/>
        <pt x="164" y="680" on="1"/>
        <pt x="248" y="118" on="1"/>
        <pt x="263" y="118" on="1"/>
        <pt x="385" y="680" on="1"/>
        <pt x="545" y="680" on="1"/>
        <pt x="667" y="118" on="1"/>
        <pt x="682" y="118" on="1"/>
        <pt x="766" y="680" on="1"/>
        <pt x="911" y="680" on="1"/>
        <pt x="781" y="0" on="1"/>
        <pt x="572" y="0" on="1"/>
        <pt x="465" y="517" on="1"/>
        <pt x="358" y="0" on="1"/>
        <pt x="149" y="0" on="1"/>
      </contour>
      <contour>
        <pt x="292" y="764" on="1"/>
        <pt x="292" y="896" on="1"/>
        <pt x="420" y="896" on="1"/>
        <pt x="420" y="764" on="1"/>
      </contour>
      <contour>
        <pt x="506" y="764" on="1"/>
        <pt x="506" y="896" on="1"/>
        <pt x="634" y="896" on="1"/>
        <pt x="634" y="764" on="1"/>
      </contour>
    </TTGlyph>
    <TTGlyph name="Wgrave" xMin="19" yMin="0" xMax="911" yMax="945">
      <contour>
        <pt x="19" y="680" on="1"/>
        <pt x="164" y="680" on="1"/>
        <pt x="248" y="118" on="1"/>
        <pt x="263" y="118" on="1"/>
        <pt x="385" y="680" on="1"/>
        <pt x="545" y="680" on="1"/>
        <pt x="667" y="118" on="1"/>
        <pt x="682" y="118" on="1"/>
        <pt x="766" y="680" on="1"/>
        <pt x="911" y="680" on="1"/>
        <pt x="781" y="0" on="1"/>
        <pt x="572" y="0" on="1"/>
        <pt x="465" y="517" on="1"/>
        <pt x="358" y="0" on="1"/>
        <pt x="149" y="0" on="1"/>
      </contour>
      <contour>
        <pt x="368" y="945" on="1"/>
        <pt x="620" y="839" on="1"/>
        <pt x="587" y="746" on="1"/>
        <pt x="327" y="825" on="1"/>
      </contour>
    </TTGlyph>
    <TTGlyph name="X" xMin="9" yMin="0" xMax="560" yMax="680">
      <contour>
        <pt x="162" y="680" on="1"/>
        <pt x="288" y="430" on="1"/>
        <pt x="417" y="680" on="1"/>
        <pt x="560" y="680" on="1"/>
        <pt x="364" y="333" on="1"/>
        <pt x="560" y="0" on="1"/>
        <pt x="407" y="0" on="1"/>
        <pt x="281" y="235" on="1"/>
        <pt x="152" y="0" on="1"/>
        <pt x="9" y="0" on="1"/>
        <pt x="205" y="326" on="1"/>
        <pt x="9" y="680" on="1"/>
      </contour>
    </TTGlyph>
    <TTGlyph name="Y" xMin="0" yMin="0" xMax="556" yMax="680">
      <contour>
        <pt x="348" y="0" on="1"/>
        <pt x="210" y="0" on="1"/>
        <pt x="210" y="275" on="1"/>
        <pt x="0" y="680" on="1"/>
        <pt x="153" y="680" on="1"/>
        <pt x="278" y="409" on="1"/>
        <pt x="403" y="680" on="1"/>
        <pt x="556" y="680" on="1"/>
        <pt x="348" y="275" on="1"/>
      </contour>
    </TTGlyph>
    <TTGlyph name="Yacute" xMin="0" yMin="0" xMax="556" yMax="945">
      <contour>
        <pt x="348" y="0" on="1"/>
        <pt x="210" y="0" on="1"/>
        <pt x="210" y="275" on="1"/>
        <pt x="0" y="680" on="1"/>
        <pt x="153" y="680" on="1"/>
        <pt x="278" y="409" on="1"/>
        <pt x="403" y="680" on="1"/>
        <pt x="556" y="680" on="1"/>
        <pt x="348" y="275" on="1"/>
      </contour>
      <contour>
        <pt x="133" y="839" on="1"/>
        <pt x="385" y="945" on="1"/>
        <pt x="426" y="825" on="1"/>
        <pt x="166" y="746" on="1"/>
      </contour>
    </TTGlyph>
    <TTGlyph name="Ycircumflex" xMin="0" yMin="0" xMax="556" yMax="914">
      <contour>
        <pt x="348" y="0" on="1"/>
        <pt x="210" y="0" on="1"/>
        <pt x="210" y="275" on="1"/>
        <pt x="0" y="680" on="1"/>
        <pt x="153" y="680" on="1"/>
        <pt x="278" y="409" on="1"/>
        <pt x="403" y="680" on="1"/>
        <pt x="556" y="680" on="1"/>
        <pt x="348" y="275" on="1"/>
      </contour>
      <contour>
        <pt x="88" y="765" on="1"/>
        <pt x="222" y="914" on="1"/>
        <pt x="339" y="914" on="1"/>
        <pt x="473" y="765" on="1"/>
        <pt x="331" y="765" on="1"/>
        <pt x="282" y="821" on="1"/>
        <pt x="230" y="765" on="1"/>
      </contour>
    </TTGlyph>
    <TTGlyph name="Ydieresis" xMin="0" yMin="0" xMax="556" yMax="896">
      <contour>
        <pt x="348" y="0" on="1"/>
        <pt x="210" y="0" on="1"/>
        <pt x="210" y="275" on="1"/>
        <pt x="0" y="680" on="1"/>
        <pt x="153" y="680" on="1"/>
        <pt x="278" y="409" on="1"/>
        <pt x="403" y="680" on="1"/>
        <pt x="556" y="680" on="1"/>
        <pt x="348" y="275" on="1"/>
      </contour>
      <contour>
        <pt x="105" y="764" on="1"/>
        <pt x="105" y="896" on="1"/>
        <pt x="233" y="896" on="1"/>
        <pt x="233" y="764" on="1"/>
      </contour>
      <contour>
        <pt x="319" y="764" on="1"/>
        <pt x="319" y="896" on="1"/>
        <pt x="447" y="896" on="1"/>
        <pt x="447" y="764" on="1"/>
      </contour>
    </TTGlyph>
    <TTGlyph name="Ygrave" xMin="0" yMin="0" xMax="556" yMax="945">
      <contour>
        <pt x="348" y="0" on="1"/>
        <pt x="210" y="0" on="1"/>
        <pt x="210" y="275" on="1"/>
        <pt x="0" y="680" on="1"/>
        <pt x="153" y="680" on="1"/>
        <pt x="278" y="409" on="1"/>
        <pt x="403" y="680" on="1"/>
        <pt x="556" y="680" on="1"/>
        <pt x="348" y="275" on="1"/>
      </contour>
      <contour>
        <pt x="182" y="945" on="1"/>
        <pt x="434" y="839" on="1"/>
        <pt x="401" y="746" on="1"/>
        <pt x="141" y="825" on="1"/>
      </contour>
    </TTGlyph>
    <TTGlyph name="Z" xMin="41" yMin="0" xMax="491" yMax="680">
      <contour>
        <pt x="41" y="560" on="1"/>
        <pt x="41" y="680" on="1"/>
        <pt x="491" y="680" on="1"/>
        <pt x="491" y="560" on="1"/>
        <pt x="207" y="138" on="1"/>
        <pt x="207" y="120" on="1"/>
        <pt x="491" y="120" on="1"/>
        <pt x="491" y="0" on="1"/>
        <pt x="41" y="0" on="1"/>
        <pt x="41" y="119" on="1"/>
        <pt x="325" y="542" on="1"/>
        <pt x="325" y="560" on="1"/>
      </contour>
    </TTGlyph>
    <TTGlyph name="Zacute" xMin="41" yMin="0" xMax="491" yMax="945">
      <contour>
        <pt x="41" y="560" on="1"/>
        <pt x="41" y="680" on="1"/>
        <pt x="491" y="680" on="1"/>
        <pt x="491" y="560" on="1"/>
        <pt x="207" y="138" on="1"/>
        <pt x="207" y="120" on="1"/>
        <pt x="491" y="120" on="1"/>
        <pt x="491" y="0" on="1"/>
        <pt x="41" y="0" on="1"/>
        <pt x="41" y="119" on="1"/>
        <pt x="325" y="542" on="1"/>
        <pt x="325" y="560" on="1"/>
      </contour>
      <contour>
        <pt x="121" y="839" on="1"/>
        <pt x="373" y="945" on="1"/>
        <pt x="414" y="825" on="1"/>
        <pt x="154" y="746" on="1"/>
      </contour>
    </TTGlyph>
    <TTGlyph name="Zcaron" xMin="41" yMin="0" xMax="491" yMax="914">
      <contour>
        <pt x="41" y="560" on="1"/>
        <pt x="41" y="680" on="1"/>
        <pt x="491" y="680" on="1"/>
        <pt x="491" y="560" on="1"/>
        <pt x="207" y="138" on="1"/>
        <pt x="207" y="120" on="1"/>
        <pt x="491" y="120" on="1"/>
        <pt x="491" y="0" on="1"/>
        <pt x="41" y="0" on="1"/>
        <pt x="41" y="119" on="1"/>
        <pt x="325" y="542" on="1"/>
        <pt x="325" y="560" on="1"/>
      </contour>
      <contour>
        <pt x="210" y="765" on="1"/>
        <pt x="76" y="914" on="1"/>
        <pt x="218" y="914" on="1"/>
        <pt x="270" y="858" on="1"/>
        <pt x="319" y="914" on="1"/>
        <pt x="461" y="914" on="1"/>
        <pt x="327" y="765" on="1"/>
      </contour>
    </TTGlyph>
    <TTGlyph name="Zdotaccent" xMin="41" yMin="0" xMax="491" yMax="902">
      <contour>
        <pt x="41" y="560" on="1"/>
        <pt x="41" y="680" on="1"/>
        <pt x="491" y="680" on="1"/>
        <pt x="491" y="560" on="1"/>
        <pt x="207" y="138" on="1"/>
        <pt x="207" y="120" on="1"/>
        <pt x="491" y="120" on="1"/>
        <pt x="491" y="0" on="1"/>
        <pt x="41" y="0" on="1"/>
        <pt x="41" y="119" on="1"/>
        <pt x="325" y="542" on="1"/>
        <pt x="325" y="560" on="1"/>
      </contour>
      <contour>
        <pt x="199" y="767" on="1"/>
        <pt x="199" y="902" on="1"/>
        <pt x="333" y="902" on="1"/>
        <pt x="333" y="767" on="1"/>
      </contour>
    </TTGlyph>
    <TTGlyph name="a" xMin="29" yMin="-12" xMax="478" yMax="512">
      <contour>
        <pt x="445" y="344" on="1"/>
        <pt x="445" y="136" on="1"/>
        <pt x="447" y="112" on="0"/>
        <pt x="459" y="93" on="0"/>
        <pt x="478" y="89" on="1"/>
        <pt x="474" y="-12" on="1"/>
        <pt x="423" y="-12" on="0"/>
        <pt x="362" y="2" on="0"/>
        <pt x="331" y="23" on="1"/>
        <pt x="259" y="-12" on="0"/>
        <pt x="184" y="-12" on="1"/>
        <pt x="29" y="-12" on="0"/>
        <pt x="29" y="152" on="1"/>
        <pt x="29" y="232" on="0"/>
        <pt x="115" y="299" on="0"/>
        <pt x="204" y="305" on="1"/>
        <pt x="311" y="313" on="1"/>
        <pt x="311" y="344" on="1"/>
        <pt x="311" y="375" on="0"/>
        <pt x="283" y="398" on="0"/>
        <pt x="252" y="398" on="1"/>
        <pt x="64" y="390" on="1"/>
        <pt x="60" y="483" on="1"/>
        <pt x="167" y="512" on="0"/>
        <pt x="360" y="512" on="0"/>
        <pt x="445" y="432" on="0"/>
      </contour>
      <contour>
        <pt x="220" y="212" on="1"/>
        <pt x="164" y="207" on="0"/>
        <pt x="164" y="97" on="0"/>
        <pt x="213" y="97" on="1"/>
        <pt x="251" y="97" on="0"/>
        <pt x="296" y="109" on="1"/>
        <pt x="311" y="113" on="1"/>
        <pt x="311" y="220" on="1"/>
      </contour>
    </TTGlyph>
    <TTGlyph name="aacute" xMin="29" yMin="-12" xMax="478" yMax="753">
      <contour>
        <pt x="445" y="344" on="1"/>
        <pt x="445" y="136" on="1"/>
        <pt x="447" y="112" on="0"/>
        <pt x="459" y="93" on="0"/>
        <pt x="478" y="89" on="1"/>
        <pt x="474" y="-12" on="1"/>
        <pt x="423" y="-12" on="0"/>
        <pt x="362" y="2" on="0"/>
        <pt x="331" y="23" on="1"/>
        <pt x="259" y="-12" on="0"/>
        <pt x="184" y="-12" on="1"/>
        <pt x="29" y="-12" on="0"/>
        <pt x="29" y="152" on="1"/>
        <pt x="29" y="232" on="0"/>
        <pt x="115" y="299" on="0"/>
        <pt x="204" y="305" on="1"/>
        <pt x="311" y="313" on="1"/>
        <pt x="311" y="344" on="1"/>
        <pt x="311" y="375" on="0"/>
        <pt x="283" y="398" on="0"/>
        <pt x="252" y="398" on="1"/>
        <pt x="64" y="390" on="1"/>
        <pt x="60" y="483" on="1"/>
        <pt x="167" y="512" on="0"/>
        <pt x="360" y="512" on="0"/>
        <pt x="445" y="432" on="0"/>
      </contour>
      <contour>
        <pt x="220" y="212" on="1"/>
        <pt x="164" y="207" on="0"/>
        <pt x="164" y="97" on="0"/>
        <pt x="213" y="97" on="1"/>
        <pt x="251" y="97" on="0"/>
        <pt x="296" y="109" on="1"/>
        <pt x="311" y="113" on="1"/>
        <pt x="311" y="220" on="1"/>
      </contour>
      <contour>
        <pt x="96" y="651" on="1"/>
        <pt x="348" y="753" on="1"/>
        <pt x="388" y="638" on="1"/>
        <pt x="126" y="564" on="1"/>
      </contour>
    </TTGlyph>
    <TTGlyph name="abreve" xMin="29" yMin="-12" xMax="477" yMax="748">
      <contour>
        <pt x="445" y="154" on="1"/>
        <pt x="445" y="125" on="0"/>
        <pt x="457" y="106" on="0"/>
        <pt x="477" y="102" on="1"/>
        <pt x="473" y="-12" on="1"/>
        <pt x="413" y="-12" on="0"/>
        <pt x="359" y="3" on="0"/>
        <pt x="331" y="22" on="1"/>
        <pt x="308" y="14" on="1"/>
        <pt x="239" y="-12" on="0"/>
        <pt x="178" y="-12" on="1"/>
        <pt x="105" y="-12" on="0"/>
        <pt x="29" y="75" on="0"/>
        <pt x="29" y="232" on="0"/>
        <pt x="114" y="300" on="0"/>
        <pt x="203" y="306" on="1"/>
        <pt x="311" y="313" on="1"/>
        <pt x="311" y="338" on="1"/>
        <pt x="311" y="358" on="0"/>
        <pt x="283" y="383" on="0"/>
        <pt x="261" y="383" on="1"/>
        <pt x="187" y="383" on="0"/>
        <pt x="67" y="375" on="1"/>
        <pt x="63" y="489" on="1"/>
        <pt x="98" y="494" on="1"/>
        <pt x="205" y="511" on="0"/>
        <pt x="269" y="511" on="1"/>
        <pt x="357" y="511" on="0"/>
        <pt x="445" y="432" on="0"/>
        <pt x="445" y="339" on="1"/>
      </contour>
      <contour>
        <pt x="164" y="103" on="0"/>
        <pt x="246" y="103" on="0"/>
        <pt x="311" y="118" on="1"/>
        <pt x="311" y="211" on="1"/>
        <pt x="220" y="207" on="1"/>
        <pt x="164" y="204" on="0"/>
        <pt x="164" y="156" on="1"/>
      </contour>
      <contour>
        <pt x="198" y="748" on="1"/>
        <pt x="205" y="704" on="0"/>
        <pt x="302" y="704" on="0"/>
        <pt x="308" y="748" on="1"/>
        <pt x="447" y="748" on="1"/>
        <pt x="439" y="673" on="0"/>
        <pt x="342" y="585" on="0"/>
        <pt x="164" y="585" on="0"/>
        <pt x="67" y="673" on="0"/>
        <pt x="59" y="748" on="1"/>
      </contour>
    </TTGlyph>
    <TTGlyph name="acircumflex" xMin="29" yMin="-12" xMax="478" yMax="731">
      <contour>
        <pt x="445" y="344" on="1"/>
        <pt x="445" y="136" on="1"/>
        <pt x="447" y="112" on="0"/>
        <pt x="459" y="93" on="0"/>
        <pt x="478" y="89" on="1"/>
        <pt x="474" y="-12" on="1"/>
        <pt x="423" y="-12" on="0"/>
        <pt x="362" y="2" on="0"/>
        <pt x="331" y="23" on="1"/>
        <pt x="259" y="-12" on="0"/>
        <pt x="184" y="-12" on="1"/>
        <pt x="29" y="-12" on="0"/>
        <pt x="29" y="152" on="1"/>
        <pt x="29" y="232" on="0"/>
        <pt x="115" y="299" on="0"/>
        <pt x="204" y="305" on="1"/>
        <pt x="311" y="313" on="1"/>
        <pt x="311" y="344" on="1"/>
        <pt x="311" y="375" on="0"/>
        <pt x="283" y="398" on="0"/>
        <pt x="252" y="398" on="1"/>
        <pt x="64" y="390" on="1"/>
        <pt x="60" y="483" on="1"/>
        <pt x="167" y="512" on="0"/>
        <pt x="360" y="512" on="0"/>
        <pt x="445" y="432" on="0"/>
      </contour>
      <contour>
        <pt x="220" y="212" on="1"/>
        <pt x="164" y="207" on="0"/>
        <pt x="164" y="97" on="0"/>
        <pt x="213" y="97" on="1"/>
        <pt x="251" y="97" on="0"/>
        <pt x="296" y="109" on="1"/>
        <pt x="311" y="113" on="1"/>
        <pt x="311" y="220" on="1"/>
      </contour>
      <contour>
        <pt x="83" y="580" on="1"/>
        <pt x="209" y="731" on="1"/>
        <pt x="293" y="731" on="1"/>
        <pt x="421" y="580" on="1"/>
        <pt x="298" y="580" on="1"/>
        <pt x="252" y="647" on="1"/>
        <pt x="206" y="580" on="1"/>
      </contour>
    </TTGlyph>
    <TTGlyph name="acute" xMin="5" yMin="564" xMax="297" yMax="753">
      <contour>
        <pt x="5" y="651" on="1"/>
        <pt x="257" y="753" on="1"/>
        <pt x="297" y="638" on="1"/>
        <pt x="35" y="564" on="1"/>
      </contour>
    </TTGlyph>
    <TTGlyph name="acute.cap" xMin="1" yMin="746" xMax="294" yMax="945">
      <contour>
        <pt x="1" y="839" on="1"/>
        <pt x="253" y="945" on="1"/>
        <pt x="294" y="825" on="1"/>
        <pt x="34" y="746" on="1"/>
      </contour>
    </TTGlyph>
    <TTGlyph name="adieresis" xMin="29" yMin="-12" xMax="478" yMax="728">
      <contour>
        <pt x="445" y="344" on="1"/>
        <pt x="445" y="136" on="1"/>
        <pt x="447" y="112" on="0"/>
        <pt x="459" y="93" on="0"/>
        <pt x="478" y="89" on="1"/>
        <pt x="474" y="-12" on="1"/>
        <pt x="423" y="-12" on="0"/>
        <pt x="362" y="2" on="0"/>
        <pt x="331" y="23" on="1"/>
        <pt x="259" y="-12" on="0"/>
        <pt x="184" y="-12" on="1"/>
        <pt x="29" y="-12" on="0"/>
        <pt x="29" y="152" on="1"/>
        <pt x="29" y="232" on="0"/>
        <pt x="115" y="299" on="0"/>
        <pt x="204" y="305" on="1"/>
        <pt x="311" y="313" on="1"/>
        <pt x="311" y="344" on="1"/>
        <pt x="311" y="375" on="0"/>
        <pt x="283" y="398" on="0"/>
        <pt x="252" y="398" on="1"/>
        <pt x="64" y="390" on="1"/>
        <pt x="60" y="483" on="1"/>
        <pt x="167" y="512" on="0"/>
        <pt x="360" y="512" on="0"/>
        <pt x="445" y="432" on="0"/>
      </contour>
      <contour>
        <pt x="220" y="212" on="1"/>
        <pt x="164" y="207" on="0"/>
        <pt x="164" y="97" on="0"/>
        <pt x="213" y="97" on="1"/>
        <pt x="251" y="97" on="0"/>
        <pt x="296" y="109" on="1"/>
        <pt x="311" y="113" on="1"/>
        <pt x="311" y="220" on="1"/>
      </contour>
      <contour>
        <pt x="65" y="596" on="1"/>
        <pt x="65" y="728" on="1"/>
        <pt x="193" y="728" on="1"/>
        <pt x="193" y="596" on="1"/>
      </contour>
      <contour>
        <pt x="281" y="596" on="1"/>
        <pt x="281" y="728" on="1"/>
        <pt x="409" y="728" on="1"/>
        <pt x="409" y="596" on="1"/>
      </contour>
    </TTGlyph>
    <TTGlyph name="ae" xMin="29" yMin="-12" xMax="749" yMax="511">
      <contour>
        <pt x="446" y="149" on="0"/>
        <pt x="492" y="111" on="0"/>
        <pt x="537" y="111" on="1"/>
        <pt x="605" y="111" on="0"/>
        <pt x="703" y="118" on="1"/>
        <pt x="731" y="120" on="1"/>
        <pt x="733" y="16" on="1"/>
        <pt x="618" y="-12" on="0"/>
        <pt x="423" y="-12" on="0"/>
        <pt x="372" y="36" on="1"/>
        <pt x="349" y="25" on="1"/>
        <pt x="265" y="-12" on="0"/>
        <pt x="105" y="-12" on="0"/>
        <pt x="29" y="75" on="0"/>
        <pt x="29" y="232" on="0"/>
        <pt x="116" y="301" on="0"/>
        <pt x="203" y="306" on="1"/>
        <pt x="311" y="313" on="1"/>
        <pt x="311" y="338" on="1"/>
        <pt x="311" y="358" on="0"/>
        <pt x="283" y="383" on="0"/>
        <pt x="256" y="383" on="1"/>
        <pt x="184" y="383" on="0"/>
        <pt x="99" y="375" on="1"/>
        <pt x="67" y="372" on="1"/>
        <pt x="63" y="489" on="1"/>
        <pt x="196" y="511" on="0"/>
        <pt x="355" y="511" on="0"/>
        <pt x="398" y="474" on="1"/>
        <pt x="450" y="511" on="0"/>
        <pt x="531" y="511" on="1"/>
        <pt x="749" y="511" on="0"/>
        <pt x="749" y="286" on="1"/>
        <pt x="739" y="192" on="1"/>
        <pt x="445" y="192" on="1"/>
      </contour>
      <contour>
        <pt x="311" y="118" on="1"/>
        <pt x="310" y="211" on="1"/>
        <pt x="220" y="207" on="1"/>
        <pt x="164" y="204" on="0"/>
        <pt x="164" y="156" on="1"/>
        <pt x="164" y="103" on="0"/>
        <pt x="205" y="103" on="1"/>
        <pt x="245" y="103" on="0"/>
        <pt x="294" y="114" on="1"/>
      </contour>
      <contour>
        <pt x="445" y="295" on="1"/>
        <pt x="617" y="295" on="1"/>
        <pt x="617" y="348" on="0"/>
        <pt x="578" y="392" on="0"/>
        <pt x="483" y="392" on="0"/>
        <pt x="445" y="346" on="0"/>
      </contour>
    </TTGlyph>
    <TTGlyph name="aeacute" xMin="29" yMin="-12" xMax="749" yMax="753">
      <contour>
        <pt x="446" y="149" on="0"/>
        <pt x="492" y="111" on="0"/>
        <pt x="537" y="111" on="1"/>
        <pt x="605" y="111" on="0"/>
        <pt x="703" y="118" on="1"/>
        <pt x="731" y="120" on="1"/>
        <pt x="733" y="16" on="1"/>
        <pt x="618" y="-12" on="0"/>
        <pt x="423" y="-12" on="0"/>
        <pt x="372" y="36" on="1"/>
        <pt x="349" y="25" on="1"/>
        <pt x="265" y="-12" on="0"/>
        <pt x="105" y="-12" on="0"/>
        <pt x="29" y="75" on="0"/>
        <pt x="29" y="232" on="0"/>
        <pt x="116" y="301" on="0"/>
        <pt x="203" y="306" on="1"/>
        <pt x="311" y="313" on="1"/>
        <pt x="311" y="338" on="1"/>
        <pt x="311" y="358" on="0"/>
        <pt x="283" y="383" on="0"/>
        <pt x="256" y="383" on="1"/>
        <pt x="184" y="383" on="0"/>
        <pt x="99" y="375" on="1"/>
        <pt x="67" y="372" on="1"/>
        <pt x="63" y="489" on="1"/>
        <pt x="196" y="511" on="0"/>
        <pt x="355" y="511" on="0"/>
        <pt x="398" y="474" on="1"/>
        <pt x="450" y="511" on="0"/>
        <pt x="531" y="511" on="1"/>
        <pt x="749" y="511" on="0"/>
        <pt x="749" y="286" on="1"/>
        <pt x="739" y="192" on="1"/>
        <pt x="445" y="192" on="1"/>
      </contour>
      <contour>
        <pt x="311" y="118" on="1"/>
        <pt x="310" y="211" on="1"/>
        <pt x="220" y="207" on="1"/>
        <pt x="164" y="204" on="0"/>
        <pt x="164" y="156" on="1"/>
        <pt x="164" y="103" on="0"/>
        <pt x="205" y="103" on="1"/>
        <pt x="245" y="103" on="0"/>
        <pt x="294" y="114" on="1"/>
      </contour>
      <contour>
        <pt x="445" y="295" on="1"/>
        <pt x="617" y="295" on="1"/>
        <pt x="617" y="348" on="0"/>
        <pt x="578" y="392" on="0"/>
        <pt x="483" y="392" on="0"/>
        <pt x="445" y="346" on="0"/>
      </contour>
      <contour>
        <pt x="256" y="651" on="1"/>
        <pt x="508" y="753" on="1"/>
        <pt x="548" y="638" on="1"/>
        <pt x="286" y="564" on="1"/>
      </contour>
    </TTGlyph>
    <TTGlyph name="agrave" xMin="29" yMin="-12" xMax="478" yMax="753">
      <contour>
        <pt x="445" y="344" on="1"/>
        <pt x="445" y="136" on="1"/>
        <pt x="447" y="112" on="0"/>
        <pt x="459" y="93" on="0"/>
        <pt x="478" y="89" on="1"/>
        <pt x="474" y="-12" on="1"/>
        <pt x="423" y="-12" on="0"/>
        <pt x="362" y="2" on="0"/>
        <pt x="331" y="23" on="1"/>
        <pt x="259" y="-12" on="0"/>
        <pt x="184" y="-12" on="1"/>
        <pt x="29" y="-12" on="0"/>
        <pt x="29" y="152" on="1"/>
        <pt x="29" y="232" on="0"/>
        <pt x="115" y="299" on="0"/>
        <pt x="204" y="305" on="1"/>
        <pt x="311" y="313" on="1"/>
        <pt x="311" y="344" on="1"/>
        <pt x="311" y="375" on="0"/>
        <pt x="283" y="398" on="0"/>
        <pt x="252" y="398" on="1"/>
        <pt x="64" y="390" on="1"/>
        <pt x="60" y="483" on="1"/>
        <pt x="167" y="512" on="0"/>
        <pt x="360" y="512" on="0"/>
        <pt x="445" y="432" on="0"/>
      </contour>
      <contour>
        <pt x="220" y="212" on="1"/>
        <pt x="164" y="207" on="0"/>
        <pt x="164" y="97" on="0"/>
        <pt x="213" y="97" on="1"/>
        <pt x="251" y="97" on="0"/>
        <pt x="296" y="109" on="1"/>
        <pt x="311" y="113" on="1"/>
        <pt x="311" y="220" on="1"/>
      </contour>
      <contour>
        <pt x="143" y="753" on="1"/>
        <pt x="395" y="651" on="1"/>
        <pt x="365" y="564" on="1"/>
        <pt x="103" y="638" on="1"/>
      </contour>
    </TTGlyph>
    <TTGlyph name="amacron" xMin="29" yMin="-12" xMax="478" yMax="697">
      <contour>
        <pt x="445" y="344" on="1"/>
        <pt x="445" y="136" on="1"/>
        <pt x="447" y="112" on="0"/>
        <pt x="459" y="93" on="0"/>
        <pt x="478" y="89" on="1"/>
        <pt x="474" y="-12" on="1"/>
        <pt x="423" y="-12" on="0"/>
        <pt x="362" y="2" on="0"/>
        <pt x="331" y="23" on="1"/>
        <pt x="259" y="-12" on="0"/>
        <pt x="184" y="-12" on="1"/>
        <pt x="29" y="-12" on="0"/>
        <pt x="29" y="152" on="1"/>
        <pt x="29" y="232" on="0"/>
        <pt x="115" y="299" on="0"/>
        <pt x="204" y="305" on="1"/>
        <pt x="311" y="313" on="1"/>
        <pt x="311" y="344" on="1"/>
        <pt x="311" y="375" on="0"/>
        <pt x="283" y="398" on="0"/>
        <pt x="252" y="398" on="1"/>
        <pt x="64" y="390" on="1"/>
        <pt x="60" y="483" on="1"/>
        <pt x="167" y="512" on="0"/>
        <pt x="360" y="512" on="0"/>
        <pt x="445" y="432" on="0"/>
      </contour>
      <contour>
        <pt x="220" y="212" on="1"/>
        <pt x="164" y="207" on="0"/>
        <pt x="164" y="97" on="0"/>
        <pt x="213" y="97" on="1"/>
        <pt x="251" y="97" on="0"/>
        <pt x="296" y="109" on="1"/>
        <pt x="311" y="113" on="1"/>
        <pt x="311" y="220" on="1"/>
      </contour>
      <contour>
        <pt x="107" y="597" on="1"/>
        <pt x="107" y="697" on="1"/>
        <pt x="394" y="697" on="1"/>
        <pt x="394" y="597" on="1"/>
      </contour>
    </TTGlyph>
    <TTGlyph name="ampersand" xMin="35" yMin="-12" xMax="691" yMax="712">
      <contour>
        <pt x="111" y="631" on="0"/>
        <pt x="223" y="712" on="0"/>
        <pt x="414" y="712" on="0"/>
        <pt x="520" y="629" on="0"/>
        <pt x="520" y="485" on="0"/>
        <pt x="460" y="403" on="0"/>
        <pt x="383" y="349" on="1"/>
        <pt x="481" y="251" on="1"/>
        <pt x="487" y="266" on="0"/>
        <pt x="499" y="352" on="0"/>
        <pt x="500" y="379" on="1"/>
        <pt x="630" y="376" on="1"/>
        <pt x="615" y="260" on="0"/>
        <pt x="579" y="173" on="1"/>
        <pt x="691" y="75" on="1"/>
        <pt x="615" y="-12" on="1"/>
        <pt x="509" y="75" on="1"/>
        <pt x="474" y="37" on="0"/>
        <pt x="365" y="-12" on="0"/>
        <pt x="304" y="-12" on="1"/>
        <pt x="158" y="-12" on="0"/>
        <pt x="35" y="93" on="0"/>
        <pt x="35" y="196" on="1"/>
        <pt x="35" y="277" on="0"/>
        <pt x="103" y="370" on="0"/>
        <pt x="177" y="399" on="1"/>
        <pt x="136" y="449" on="0"/>
        <pt x="111" y="511" on="0"/>
        <pt x="111" y="561" on="1"/>
      </contour>
      <contour>
        <pt x="287" y="108" on="1"/>
        <pt x="327" y="108" on="0"/>
        <pt x="403" y="130" on="0"/>
        <pt x="418" y="148" on="1"/>
        <pt x="245" y="321" on="1"/>
        <pt x="171" y="285" on="0"/>
        <pt x="171" y="207" on="1"/>
        <pt x="171" y="108" on="0"/>
      </contour>
      <contour>
        <pt x="247" y="531" on="1"/>
        <pt x="247" y="491" on="0"/>
        <pt x="292" y="443" on="1"/>
        <pt x="309" y="425" on="1"/>
        <pt x="350" y="455" on="0"/>
        <pt x="384" y="502" on="0"/>
        <pt x="384" y="535" on="1"/>
        <pt x="384" y="598" on="0"/>
        <pt x="247" y="598" on="0"/>
      </contour>
    </TTGlyph>
    <TTGlyph name="aogonek" xMin="29" yMin="-216" xMax="478" yMax="512">
      <contour>
        <pt x="474" y="-12" on="1"/>
        <pt x="436" y="-11" on="1"/>
        <pt x="392" y="-52" on="0"/>
        <pt x="392" y="-81" on="1"/>
        <pt x="392" y="-114" on="0"/>
        <pt x="424" y="-114" on="1"/>
        <pt x="466" y="-110" on="1"/>
        <pt x="478" y="-205" on="1"/>
        <pt x="419" y="-216" on="0"/>
        <pt x="328" y="-216" on="0"/>
        <pt x="267" y="-164" on="0"/>
        <pt x="267" y="-84" on="0"/>
        <pt x="308" y="-19" on="0"/>
        <pt x="328" y="-4" on="1"/>
        <pt x="348" y="11" on="1"/>
        <pt x="351" y="10" on="1"/>
        <pt x="331" y="23" on="1"/>
        <pt x="259" y="-12" on="0"/>
        <pt x="184" y="-12" on="1"/>
        <pt x="29" y="-12" on="0"/>
        <pt x="29" y="152" on="1"/>
        <pt x="29" y="232" on="0"/>
        <pt x="115" y="299" on="0"/>
        <pt x="204" y="305" on="1"/>
        <pt x="311" y="313" on="1"/>
        <pt x="311" y="344" on="1"/>
        <pt x="311" y="375" on="0"/>
        <pt x="283" y="398" on="0"/>
        <pt x="252" y="398" on="1"/>
        <pt x="64" y="390" on="1"/>
        <pt x="60" y="483" on="1"/>
        <pt x="167" y="512" on="0"/>
        <pt x="360" y="512" on="0"/>
        <pt x="445" y="432" on="0"/>
        <pt x="445" y="344" on="1"/>
        <pt x="445" y="136" on="1"/>
        <pt x="447" y="112" on="0"/>
        <pt x="459" y="93" on="0"/>
        <pt x="478" y="89" on="1"/>
      </contour>
      <contour>
        <pt x="220" y="212" on="1"/>
        <pt x="164" y="207" on="0"/>
        <pt x="164" y="97" on="0"/>
        <pt x="213" y="97" on="1"/>
        <pt x="251" y="97" on="0"/>
        <pt x="296" y="109" on="1"/>
        <pt x="311" y="113" on="1"/>
        <pt x="311" y="220" on="1"/>
      </contour>
    </TTGlyph>
    <TTGlyph name="approxequal" xMin="59" yMin="45" xMax="499" yMax="429">
      <contour>
        <pt x="412" y="265" on="0"/>
        <pt x="355" y="265" on="0"/>
        <pt x="196" y="309" on="0"/>
        <pt x="157" y="309" on="0"/>
        <pt x="102" y="290" on="0"/>
        <pt x="86" y="280" on="1"/>
        <pt x="69" y="270" on="1"/>
        <pt x="59" y="377" on="1"/>
        <pt x="81" y="396" on="0"/>
        <pt x="156" y="429" on="0"/>
        <pt x="211" y="429" on="0"/>
        <pt x="364" y="385" on="0"/>
        <pt x="384" y="385" on="1"/>
        <pt x="423" y="385" on="0"/>
        <pt x="474" y="414" on="1"/>
        <pt x="491" y="423" on="1"/>
        <pt x="499" y="316" on="1"/>
        <pt x="480" y="297" on="0"/>
      </contour>
      <contour>
        <pt x="412" y="45" on="0"/>
        <pt x="355" y="45" on="0"/>
        <pt x="196" y="89" on="0"/>
        <pt x="157" y="89" on="0"/>
        <pt x="102" y="70" on="0"/>
        <pt x="86" y="60" on="1"/>
        <pt x="69" y="50" on="1"/>
        <pt x="59" y="157" on="1"/>
        <pt x="81" y="176" on="0"/>
        <pt x="156" y="209" on="0"/>
        <pt x="211" y="209" on="0"/>
        <pt x="364" y="165" on="0"/>
        <pt x="384" y="165" on="1"/>
        <pt x="423" y="165" on="0"/>
        <pt x="474" y="194" on="1"/>
        <pt x="491" y="203" on="1"/>
        <pt x="499" y="96" on="1"/>
        <pt x="480" y="77" on="0"/>
      </contour>
    </TTGlyph>
    <TTGlyph name="aring" xMin="29" yMin="-12" xMax="478" yMax="755">
      <contour>
        <pt x="445" y="344" on="1"/>
        <pt x="445" y="136" on="1"/>
        <pt x="447" y="112" on="0"/>
        <pt x="459" y="93" on="0"/>
        <pt x="478" y="89" on="1"/>
        <pt x="474" y="-12" on="1"/>
        <pt x="423" y="-12" on="0"/>
        <pt x="362" y="2" on="0"/>
        <pt x="331" y="23" on="1"/>
        <pt x="259" y="-12" on="0"/>
        <pt x="184" y="-12" on="1"/>
        <pt x="29" y="-12" on="0"/>
        <pt x="29" y="152" on="1"/>
        <pt x="29" y="232" on="0"/>
        <pt x="115" y="299" on="0"/>
        <pt x="204" y="305" on="1"/>
        <pt x="311" y="313" on="1"/>
        <pt x="311" y="344" on="1"/>
        <pt x="311" y="375" on="0"/>
        <pt x="283" y="398" on="0"/>
        <pt x="252" y="398" on="1"/>
        <pt x="64" y="390" on="1"/>
        <pt x="60" y="483" on="1"/>
        <pt x="167" y="512" on="0"/>
        <pt x="360" y="512" on="0"/>
        <pt x="445" y="432" on="0"/>
      </contour>
      <contour>
        <pt x="220" y="212" on="1"/>
        <pt x="164" y="207" on="0"/>
        <pt x="164" y="97" on="0"/>
        <pt x="213" y="97" on="1"/>
        <pt x="251" y="97" on="0"/>
        <pt x="296" y="109" on="1"/>
        <pt x="311" y="113" on="1"/>
        <pt x="311" y="220" on="1"/>
      </contour>
      <contour>
        <pt x="215" y="521" on="0"/>
        <pt x="148" y="588" on="0"/>
        <pt x="148" y="687" on="0"/>
        <pt x="215" y="755" on="0"/>
        <pt x="314" y="755" on="0"/>
        <pt x="382" y="687" on="0"/>
        <pt x="382" y="588" on="0"/>
        <pt x="314" y="521" on="0"/>
      </contour>
      <contour>
        <pt x="220" y="658" on="0"/>
        <pt x="220" y="618" on="0"/>
        <pt x="246" y="592" on="0"/>
        <pt x="286" y="592" on="0"/>
        <pt x="311" y="618" on="0"/>
        <pt x="311" y="658" on="0"/>
        <pt x="286" y="683" on="0"/>
        <pt x="246" y="683" on="0"/>
      </contour>
    </TTGlyph>
    <TTGlyph name="aringacute" xMin="29" yMin="-12" xMax="478" yMax="954">
      <contour>
        <pt x="445" y="344" on="1"/>
        <pt x="445" y="136" on="1"/>
        <pt x="447" y="112" on="0"/>
        <pt x="459" y="93" on="0"/>
        <pt x="478" y="89" on="1"/>
        <pt x="474" y="-12" on="1"/>
        <pt x="423" y="-12" on="0"/>
        <pt x="362" y="2" on="0"/>
        <pt x="331" y="23" on="1"/>
        <pt x="259" y="-12" on="0"/>
        <pt x="184" y="-12" on="1"/>
        <pt x="29" y="-12" on="0"/>
        <pt x="29" y="152" on="1"/>
        <pt x="29" y="232" on="0"/>
        <pt x="115" y="299" on="0"/>
        <pt x="204" y="305" on="1"/>
        <pt x="311" y="313" on="1"/>
        <pt x="311" y="344" on="1"/>
        <pt x="311" y="375" on="0"/>
        <pt x="283" y="398" on="0"/>
        <pt x="252" y="398" on="1"/>
        <pt x="64" y="390" on="1"/>
        <pt x="60" y="483" on="1"/>
        <pt x="167" y="512" on="0"/>
        <pt x="360" y="512" on="0"/>
        <pt x="445" y="432" on="0"/>
      </contour>
      <contour>
        <pt x="220" y="212" on="1"/>
        <pt x="164" y="207" on="0"/>
        <pt x="164" y="97" on="0"/>
        <pt x="213" y="97" on="1"/>
        <pt x="251" y="97" on="0"/>
        <pt x="296" y="109" on="1"/>
        <pt x="311" y="113" on="1"/>
        <pt x="311" y="220" on="1"/>
      </contour>
      <contour>
        <pt x="202" y="521" on="0"/>
        <pt x="135" y="588" on="0"/>
        <pt x="135" y="687" on="0"/>
        <pt x="202" y="755" on="0"/>
        <pt x="301" y="755" on="0"/>
        <pt x="369" y="687" on="0"/>
        <pt x="369" y="588" on="0"/>
        <pt x="301" y="521" on="0"/>
      </contour>
      <contour>
        <pt x="207" y="658" on="0"/>
        <pt x="207" y="618" on="0"/>
        <pt x="233" y="592" on="0"/>
        <pt x="273" y="592" on="0"/>
        <pt x="298" y="618" on="0"/>
        <pt x="298" y="658" on="0"/>
        <pt x="272" y="683" on="0"/>
        <pt x="233" y="683" on="0"/>
      </contour>
      <contour>
        <pt x="108" y="852" on="1"/>
        <pt x="360" y="954" on="1"/>
        <pt x="400" y="839" on="1"/>
        <pt x="138" y="765" on="1"/>
      </contour>
    </TTGlyph>
    <TTGlyph name="asciicircum" xMin="21" yMin="313" xMax="523" yMax="660">
      <contour>
        <pt x="383" y="313" on="1"/>
        <pt x="274" y="530" on="1"/>
        <pt x="161" y="313" on="1"/>
        <pt x="21" y="313" on="1"/>
        <pt x="215" y="660" on="1"/>
        <pt x="329" y="660" on="1"/>
        <pt x="523" y="313" on="1"/>
      </contour>
    </TTGlyph>
    <TTGlyph name="asciitilde" xMin="61" yMin="170" xMax="497" yMax="334">
      <contour>
        <pt x="411" y="170" on="0"/>
        <pt x="355" y="170" on="0"/>
        <pt x="197" y="214" on="0"/>
        <pt x="159" y="214" on="0"/>
        <pt x="104" y="194" on="0"/>
        <pt x="88" y="184" on="1"/>
        <pt x="71" y="175" on="1"/>
        <pt x="61" y="282" on="1"/>
        <pt x="124" y="334" on="0"/>
        <pt x="184" y="334" on="1"/>
        <pt x="212" y="334" on="0"/>
        <pt x="364" y="290" on="0"/>
        <pt x="384" y="290" on="1"/>
        <pt x="421" y="290" on="0"/>
        <pt x="472" y="318" on="1"/>
        <pt x="489" y="328" on="1"/>
        <pt x="497" y="221" on="1"/>
        <pt x="478" y="202" on="0"/>
      </contour>
    </TTGlyph>
    <TTGlyph name="asterisk" xMin="40" yMin="357" xMax="389" yMax="720">
      <contour>
        <pt x="389" y="499" on="1"/>
        <pt x="266" y="499" on="1"/>
        <pt x="304" y="379" on="1"/>
        <pt x="231" y="357" on="1"/>
        <pt x="190" y="478" on="1"/>
        <pt x="87" y="399" on="1"/>
        <pt x="40" y="458" on="1"/>
        <pt x="145" y="536" on="1"/>
        <pt x="43" y="609" on="1"/>
        <pt x="89" y="672" on="1"/>
        <pt x="190" y="599" on="1"/>
        <pt x="229" y="720" on="1"/>
        <pt x="304" y="695" on="1"/>
        <pt x="266" y="573" on="1"/>
        <pt x="389" y="573" on="1"/>
      </contour>
    </TTGlyph>
    <TTGlyph name="at" xMin="38" yMin="-209" xMax="944" yMax="729">
      <contour>
        <pt x="944" y="305" on="1"/>
        <pt x="944" y="297" on="1"/>
        <pt x="944" y="143" on="0"/>
        <pt x="847" y="0" on="0"/>
        <pt x="751" y="0" on="1"/>
        <pt x="680" y="0" on="0"/>
        <pt x="635" y="36" on="1"/>
        <pt x="625" y="44" on="0"/>
        <pt x="618" y="56" on="1"/>
        <pt x="538" y="0" on="0"/>
        <pt x="470" y="0" on="1"/>
        <pt x="376" y="0" on="0"/>
        <pt x="283" y="117" on="0"/>
        <pt x="283" y="378" on="0"/>
        <pt x="370" y="500" on="0"/>
        <pt x="474" y="500" on="1"/>
        <pt x="509" y="500" on="0"/>
        <pt x="550" y="482" on="1"/>
        <pt x="565" y="475" on="1"/>
        <pt x="565" y="488" on="1"/>
        <pt x="699" y="488" on="1"/>
        <pt x="699" y="309" on="1"/>
        <pt x="699" y="171" on="0"/>
        <pt x="710" y="131" on="0"/>
        <pt x="723" y="115" on="0"/>
        <pt x="737" y="112" on="0"/>
        <pt x="749" y="112" on="1"/>
        <pt x="781" y="112" on="0"/>
        <pt x="810" y="190" on="0"/>
        <pt x="810" y="297" on="1"/>
        <pt x="810" y="306" on="1"/>
        <pt x="810" y="466" on="0"/>
        <pt x="663" y="611" on="0"/>
        <pt x="342" y="611" on="0"/>
        <pt x="172" y="427" on="0"/>
        <pt x="172" y="76" on="0"/>
        <pt x="324" y="-91" on="0"/>
        <pt x="503" y="-91" on="1"/>
        <pt x="646" y="-82" on="1"/>
        <pt x="651" y="-199" on="1"/>
        <pt x="561" y="-209" on="0"/>
        <pt x="503" y="-209" on="1"/>
        <pt x="388" y="-209" on="0"/>
        <pt x="222" y="-163" on="0"/>
        <pt x="160" y="-110" on="1"/>
        <pt x="38" y="-3" on="0"/>
        <pt x="38" y="261" on="1"/>
        <pt x="38" y="492" on="0"/>
        <pt x="288" y="729" on="0"/>
        <pt x="722" y="729" on="0"/>
        <pt x="944" y="512" on="0"/>
      </contour>
      <contour>
        <pt x="481" y="118" on="1"/>
        <pt x="519" y="118" on="0"/>
        <pt x="571" y="143" on="1"/>
        <pt x="565" y="179" on="0"/>
        <pt x="565" y="249" on="1"/>
        <pt x="565" y="372" on="1"/>
        <pt x="523" y="382" on="0"/>
        <pt x="504" y="382" on="1"/>
        <pt x="452" y="382" on="0"/>
        <pt x="419" y="324" on="0"/>
        <pt x="419" y="251" on="1"/>
        <pt x="419" y="118" on="0"/>
      </contour>
    </TTGlyph>
    <TTGlyph name="at.cap" xMin="36" yMin="-209" xMax="942" yMax="729">
      <contour>
        <pt x="942" y="305" on="1"/>
        <pt x="942" y="297" on="1"/>
        <pt x="942" y="143" on="0"/>
        <pt x="845" y="0" on="0"/>
        <pt x="749" y="0" on="1"/>
        <pt x="678" y="0" on="0"/>
        <pt x="633" y="36" on="1"/>
        <pt x="623" y="44" on="0"/>
        <pt x="616" y="56" on="1"/>
        <pt x="536" y="0" on="0"/>
        <pt x="468" y="0" on="1"/>
        <pt x="374" y="0" on="0"/>
        <pt x="281" y="117" on="0"/>
        <pt x="281" y="378" on="0"/>
        <pt x="368" y="500" on="0"/>
        <pt x="472" y="500" on="1"/>
        <pt x="507" y="500" on="0"/>
        <pt x="548" y="482" on="1"/>
        <pt x="563" y="475" on="1"/>
        <pt x="563" y="488" on="1"/>
        <pt x="697" y="488" on="1"/>
        <pt x="697" y="309" on="1"/>
        <pt x="697" y="171" on="0"/>
        <pt x="708" y="131" on="0"/>
        <pt x="721" y="115" on="0"/>
        <pt x="735" y="112" on="0"/>
        <pt x="747" y="112" on="1"/>
        <pt x="779" y="112" on="0"/>
        <pt x="808" y="190" on="0"/>
        <pt x="808" y="297" on="1"/>
        <pt x="808" y="306" on="1"/>
        <pt x="808" y="466" on="0"/>
        <pt x="661" y="611" on="0"/>
        <pt x="340" y="611" on="0"/>
        <pt x="170" y="427" on="0"/>
        <pt x="170" y="76" on="0"/>
        <pt x="322" y="-91" on="0"/>
        <pt x="501" y="-91" on="1"/>
        <pt x="644" y="-82" on="1"/>
        <pt x="649" y="-199" on="1"/>
        <pt x="559" y="-209" on="0"/>
        <pt x="501" y="-209" on="1"/>
        <pt x="386" y="-209" on="0"/>
        <pt x="220" y="-163" on="0"/>
        <pt x="158" y="-110" on="1"/>
        <pt x="36" y="-3" on="0"/>
        <pt x="36" y="261" on="1"/>
        <pt x="36" y="492" on="0"/>
        <pt x="286" y="729" on="0"/>
        <pt x="720" y="729" on="0"/>
        <pt x="942" y="512" on="0"/>
      </contour>
      <contour>
        <pt x="479" y="118" on="1"/>
        <pt x="517" y="118" on="0"/>
        <pt x="569" y="143" on="1"/>
        <pt x="563" y="179" on="0"/>
        <pt x="563" y="249" on="1"/>
        <pt x="563" y="372" on="1"/>
        <pt x="521" y="382" on="0"/>
        <pt x="502" y="382" on="1"/>
        <pt x="450" y="382" on="0"/>
        <pt x="417" y="324" on="0"/>
        <pt x="417" y="251" on="1"/>
        <pt x="417" y="118" on="0"/>
      </contour>
    </TTGlyph>
    <TTGlyph name="atilde" xMin="29" yMin="-12" xMax="478" yMax="725">
      <contour>
        <pt x="445" y="344" on="1"/>
        <pt x="445" y="136" on="1"/>
        <pt x="447" y="112" on="0"/>
        <pt x="459" y="93" on="0"/>
        <pt x="478" y="89" on="1"/>
        <pt x="474" y="-12" on="1"/>
        <pt x="423" y="-12" on="0"/>
        <pt x="362" y="2" on="0"/>
        <pt x="331" y="23" on="1"/>
        <pt x="259" y="-12" on="0"/>
        <pt x="184" y="-12" on="1"/>
        <pt x="29" y="-12" on="0"/>
        <pt x="29" y="152" on="1"/>
        <pt x="29" y="232" on="0"/>
        <pt x="115" y="299" on="0"/>
        <pt x="204" y="305" on="1"/>
        <pt x="311" y="313" on="1"/>
        <pt x="311" y="344" on="1"/>
        <pt x="311" y="375" on="0"/>
        <pt x="283" y="398" on="0"/>
        <pt x="252" y="398" on="1"/>
        <pt x="64" y="390" on="1"/>
        <pt x="60" y="483" on="1"/>
        <pt x="167" y="512" on="0"/>
        <pt x="360" y="512" on="0"/>
        <pt x="445" y="432" on="0"/>
      </contour>
      <contour>
        <pt x="220" y="212" on="1"/>
        <pt x="164" y="207" on="0"/>
        <pt x="164" y="97" on="0"/>
        <pt x="213" y="97" on="1"/>
        <pt x="251" y="97" on="0"/>
        <pt x="296" y="109" on="1"/>
        <pt x="311" y="113" on="1"/>
        <pt x="311" y="220" on="1"/>
      </contour>
      <contour>
        <pt x="368" y="619" on="0"/>
        <pt x="312" y="585" on="0"/>
        <pt x="267" y="585" on="0"/>
        <pt x="175" y="621" on="0"/>
        <pt x="162" y="621" on="1"/>
        <pt x="133" y="621" on="0"/>
        <pt x="96" y="598" on="1"/>
        <pt x="83" y="590" on="1"/>
        <pt x="54" y="665" on="1"/>
        <pt x="74" y="688" on="0"/>
        <pt x="135" y="725" on="0"/>
        <pt x="180" y="725" on="0"/>
        <pt x="273" y="689" on="0"/>
        <pt x="285" y="689" on="1"/>
        <pt x="309" y="689" on="0"/>
        <pt x="351" y="714" on="1"/>
        <pt x="365" y="723" on="1"/>
        <pt x="394" y="647" on="1"/>
        <pt x="388" y="640" on="0"/>
      </contour>
    </TTGlyph>
    <TTGlyph name="b" xMin="62" yMin="-12" xMax="506" yMax="700">
      <contour>
        <pt x="304" y="512" on="1"/>
        <pt x="409" y="512" on="0"/>
        <pt x="506" y="397" on="0"/>
        <pt x="506" y="101" on="0"/>
        <pt x="394" y="-12" on="0"/>
        <pt x="257" y="-12" on="1"/>
        <pt x="214" y="-12" on="0"/>
        <pt x="100" y="-2" on="1"/>
        <pt x="62" y="2" on="1"/>
        <pt x="62" y="700" on="1"/>
        <pt x="196" y="700" on="1"/>
        <pt x="196" y="485" on="1"/>
        <pt x="260" y="512" on="0"/>
      </contour>
      <contour>
        <pt x="257" y="108" on="1"/>
        <pt x="324" y="108" on="0"/>
        <pt x="370" y="173" on="0"/>
        <pt x="370" y="257" on="1"/>
        <pt x="370" y="392" on="0"/>
        <pt x="286" y="392" on="1"/>
        <pt x="246" y="392" on="0"/>
        <pt x="210" y="382" on="1"/>
        <pt x="196" y="379" on="1"/>
        <pt x="196" y="112" on="1"/>
        <pt x="242" y="108" on="0"/>
      </contour>
    </TTGlyph>
    <TTGlyph name="backslash" xMin="32" yMin="-36" xMax="466" yMax="716">
      <contour>
        <pt x="466" y="13" on="1"/>
        <pt x="350" y="-36" on="1"/>
        <pt x="32" y="664" on="1"/>
        <pt x="146" y="716" on="1"/>
      </contour>
    </TTGlyph>
    <TTGlyph name="bar" xMin="67" yMin="-210" xMax="201" yMax="700">
      <contour>
        <pt x="67" y="-210" on="1"/>
        <pt x="67" y="700" on="1"/>
        <pt x="201" y="700" on="1"/>
        <pt x="201" y="-210" on="1"/>
      </contour>
    </TTGlyph>
    <TTGlyph name="braceleft" xMin="16" yMin="-134" xMax="325" yMax="761">
      <contour>
        <pt x="251" y="576" on="1"/>
        <pt x="258" y="448" on="1"/>
        <pt x="258" y="385" on="0"/>
        <pt x="217" y="331" on="0"/>
        <pt x="146" y="314" on="1"/>
        <pt x="216" y="297" on="0"/>
        <pt x="259" y="236" on="0"/>
        <pt x="259" y="172" on="1"/>
        <pt x="252" y="55" on="1"/>
        <pt x="252" y="21" on="0"/>
        <pt x="281" y="-17" on="0"/>
        <pt x="323" y="-20" on="1"/>
        <pt x="323" y="-134" on="1"/>
        <pt x="212" y="-130" on="0"/>
        <pt x="121" y="-52" on="0"/>
        <pt x="121" y="38" on="1"/>
        <pt x="128" y="159" on="1"/>
        <pt x="128" y="232" on="0"/>
        <pt x="16" y="261" on="1"/>
        <pt x="16" y="365" on="1"/>
        <pt x="128" y="391" on="0"/>
        <pt x="128" y="459" on="1"/>
        <pt x="121" y="586" on="1"/>
        <pt x="121" y="681" on="0"/>
        <pt x="212" y="757" on="0"/>
        <pt x="325" y="761" on="1"/>
        <pt x="325" y="647" on="1"/>
        <pt x="282" y="643" on="0"/>
        <pt x="251" y="609" on="0"/>
      </contour>
    </TTGlyph>
    <TTGlyph name="braceleft.cap" xMin="16" yMin="-104" xMax="325" yMax="791">
      <contour>
        <pt x="251" y="606" on="1"/>
        <pt x="258" y="478" on="1"/>
        <pt x="258" y="415" on="0"/>
        <pt x="217" y="361" on="0"/>
        <pt x="146" y="344" on="1"/>
        <pt x="216" y="327" on="0"/>
        <pt x="259" y="266" on="0"/>
        <pt x="259" y="202" on="1"/>
        <pt x="252" y="85" on="1"/>
        <pt x="252" y="51" on="0"/>
        <pt x="281" y="13" on="0"/>
        <pt x="323" y="10" on="1"/>
        <pt x="323" y="-104" on="1"/>
        <pt x="212" y="-100" on="0"/>
        <pt x="121" y="-22" on="0"/>
        <pt x="121" y="68" on="1"/>
        <pt x="128" y="189" on="1"/>
        <pt x="128" y="262" on="0"/>
        <pt x="16" y="291" on="1"/>
        <pt x="16" y="395" on="1"/>
        <pt x="128" y="421" on="0"/>
        <pt x="128" y="489" on="1"/>
        <pt x="121" y="616" on="1"/>
        <pt x="121" y="711" on="0"/>
        <pt x="212" y="787" on="0"/>
        <pt x="325" y="791" on="1"/>
        <pt x="325" y="677" on="1"/>
        <pt x="282" y="673" on="0"/>
        <pt x="251" y="639" on="0"/>
      </contour>
    </TTGlyph>
    <TTGlyph name="braceright" xMin="36" yMin="-134" xMax="345" yMax="761">
      <contour>
        <pt x="109" y="55" on="1"/>
        <pt x="102" y="172" on="1"/>
        <pt x="102" y="236" on="0"/>
        <pt x="145" y="297" on="0"/>
        <pt x="215" y="314" on="1"/>
        <pt x="144" y="331" on="0"/>
        <pt x="103" y="385" on="0"/>
        <pt x="103" y="448" on="1"/>
        <pt x="110" y="576" on="1"/>
        <pt x="110" y="609" on="0"/>
        <pt x="79" y="643" on="0"/>
        <pt x="36" y="647" on="1"/>
        <pt x="36" y="761" on="1"/>
        <pt x="149" y="757" on="0"/>
        <pt x="240" y="681" on="0"/>
        <pt x="240" y="586" on="1"/>
        <pt x="233" y="459" on="1"/>
        <pt x="233" y="391" on="0"/>
        <pt x="345" y="365" on="1"/>
        <pt x="345" y="261" on="1"/>
        <pt x="233" y="232" on="0"/>
        <pt x="233" y="159" on="1"/>
        <pt x="240" y="38" on="1"/>
        <pt x="240" y="-52" on="0"/>
        <pt x="149" y="-130" on="0"/>
        <pt x="38" y="-134" on="1"/>
        <pt x="38" y="-20" on="1"/>
        <pt x="80" y="-17" on="0"/>
        <pt x="109" y="21" on="0"/>
      </contour>
    </TTGlyph>
    <TTGlyph name="braceright.cap" xMin="36" yMin="-108" xMax="345" yMax="787">
      <contour>
        <pt x="110" y="77" on="1"/>
        <pt x="103" y="205" on="1"/>
        <pt x="103" y="268" on="0"/>
        <pt x="144" y="322" on="0"/>
        <pt x="215" y="339" on="1"/>
        <pt x="145" y="356" on="0"/>
        <pt x="102" y="417" on="0"/>
        <pt x="102" y="481" on="1"/>
        <pt x="109" y="598" on="1"/>
        <pt x="109" y="632" on="0"/>
        <pt x="80" y="670" on="0"/>
        <pt x="38" y="673" on="1"/>
        <pt x="38" y="787" on="1"/>
        <pt x="149" y="783" on="0"/>
        <pt x="240" y="705" on="0"/>
        <pt x="240" y="615" on="1"/>
        <pt x="233" y="494" on="1"/>
        <pt x="233" y="421" on="0"/>
        <pt x="345" y="392" on="1"/>
        <pt x="345" y="288" on="1"/>
        <pt x="233" y="262" on="0"/>
        <pt x="233" y="194" on="1"/>
        <pt x="240" y="67" on="1"/>
        <pt x="240" y="-28" on="0"/>
        <pt x="149" y="-104" on="0"/>
        <pt x="36" y="-108" on="1"/>
        <pt x="36" y="6" on="1"/>
        <pt x="79" y="10" on="0"/>
        <pt x="110" y="44" on="0"/>
      </contour>
    </TTGlyph>
    <TTGlyph name="bracketleft" xMin="68" yMin="-123" xMax="320" yMax="749">
      <contour>
        <pt x="320" y="749" on="1"/>
        <pt x="320" y="629" on="1"/>
        <pt x="205" y="629" on="1"/>
        <pt x="205" y="-3" on="1"/>
        <pt x="320" y="-3" on="1"/>
        <pt x="320" y="-123" on="1"/>
        <pt x="68" y="-123" on="1"/>
        <pt x="68" y="749" on="1"/>
      </contour>
    </TTGlyph>
    <TTGlyph name="bracketleft.cap" xMin="68" yMin="-93" xMax="320" yMax="779">
      <contour>
        <pt x="320" y="779" on="1"/>
        <pt x="320" y="659" on="1"/>
        <pt x="205" y="659" on="1"/>
        <pt x="205" y="27" on="1"/>
        <pt x="320" y="27" on="1"/>
        <pt x="320" y="-93" on="1"/>
        <pt x="68" y="-93" on="1"/>
        <pt x="68" y="779" on="1"/>
      </contour>
    </TTGlyph>
    <TTGlyph name="bracketright" xMin="35" yMin="-123" xMax="287" yMax="749">
      <contour>
        <pt x="35" y="629" on="1"/>
        <pt x="35" y="749" on="1"/>
        <pt x="287" y="749" on="1"/>
        <pt x="287" y="-123" on="1"/>
        <pt x="35" y="-123" on="1"/>
        <pt x="35" y="-3" on="1"/>
        <pt x="150" y="-3" on="1"/>
        <pt x="150" y="629" on="1"/>
      </contour>
    </TTGlyph>
    <TTGlyph name="bracketright.cap" xMin="35" yMin="-93" xMax="287" yMax="779">
      <contour>
        <pt x="35" y="659" on="1"/>
        <pt x="35" y="779" on="1"/>
        <pt x="287" y="779" on="1"/>
        <pt x="287" y="-93" on="1"/>
        <pt x="35" y="-93" on="1"/>
        <pt x="35" y="27" on="1"/>
        <pt x="150" y="27" on="1"/>
        <pt x="150" y="659" on="1"/>
      </contour>
    </TTGlyph>
    <TTGlyph name="breve" xMin="-20" yMin="573" xMax="308" yMax="730">
      <contour>
        <pt x="144" y="664" on="1"/>
        <pt x="200" y="664" on="0"/>
        <pt x="207" y="730" on="1"/>
        <pt x="308" y="730" on="1"/>
        <pt x="300" y="665" on="0"/>
        <pt x="215" y="573" on="0"/>
        <pt x="73" y="573" on="0"/>
        <pt x="-12" y="665" on="0"/>
        <pt x="-20" y="730" on="1"/>
        <pt x="81" y="730" on="1"/>
        <pt x="85" y="699" on="0"/>
        <pt x="118" y="664" on="0"/>
      </contour>
    </TTGlyph>
    <TTGlyph name="breve.cap" xMin="-30" yMin="759" xMax="343" yMax="910">
      <contour>
        <pt x="95" y="885" on="0"/>
        <pt x="129" y="853" on="0"/>
        <pt x="184" y="853" on="0"/>
        <pt x="219" y="885" on="0"/>
        <pt x="222" y="910" on="1"/>
        <pt x="343" y="910" on="1"/>
        <pt x="335" y="842" on="0"/>
        <pt x="242" y="759" on="0"/>
        <pt x="70" y="759" on="0"/>
        <pt x="-22" y="842" on="0"/>
        <pt x="-30" y="910" on="1"/>
        <pt x="91" y="910" on="1"/>
      </contour>
    </TTGlyph>
    <TTGlyph name="brokenbar" xMin="69" yMin="-210" xMax="203" yMax="700">
      <contour>
        <pt x="69" y="700" on="1"/>
        <pt x="203" y="700" on="1"/>
        <pt x="203" y="328" on="1"/>
        <pt x="69" y="328" on="1"/>
      </contour>
      <contour>
        <pt x="69" y="170" on="1"/>
        <pt x="203" y="170" on="1"/>
        <pt x="203" y="-210" on="1"/>
        <pt x="69" y="-210" on="1"/>
      </contour>
    </TTGlyph>
    <TTGlyph name="bullet" xMin="100" yMin="100" xMax="350" yMax="380">
      <contour>
        <pt x="100" y="100" on="1"/>
        <pt x="100" y="380" on="1"/>
        <pt x="350" y="380" on="1"/>
        <pt x="350" y="100" on="1"/>
      </contour>
    </TTGlyph>
    <TTGlyph name="c" xMin="38" yMin="-12" xMax="409" yMax="512">
      <contour>
        <pt x="249" y="512" on="1"/>
        <pt x="301" y="512" on="0"/>
        <pt x="382" y="496" on="1"/>
        <pt x="409" y="490" on="1"/>
        <pt x="405" y="384" on="1"/>
        <pt x="326" y="392" on="0"/>
        <pt x="288" y="392" on="1"/>
        <pt x="219" y="392" on="0"/>
        <pt x="174" y="333" on="0"/>
        <pt x="174" y="169" on="0"/>
        <pt x="219" y="108" on="0"/>
        <pt x="289" y="108" on="1"/>
        <pt x="405" y="116" on="1"/>
        <pt x="409" y="9" on="1"/>
        <pt x="302" y="-12" on="0"/>
        <pt x="246" y="-12" on="1"/>
        <pt x="135" y="-12" on="0"/>
        <pt x="38" y="113" on="0"/>
        <pt x="38" y="389" on="0"/>
        <pt x="138" y="512" on="0"/>
      </contour>
    </TTGlyph>
    <TTGlyph name="cacute" xMin="38" yMin="-12" xMax="409" yMax="753">
      <contour>
        <pt x="249" y="512" on="1"/>
        <pt x="301" y="512" on="0"/>
        <pt x="382" y="496" on="1"/>
        <pt x="409" y="490" on="1"/>
        <pt x="405" y="384" on="1"/>
        <pt x="326" y="392" on="0"/>
        <pt x="288" y="392" on="1"/>
        <pt x="219" y="392" on="0"/>
        <pt x="174" y="333" on="0"/>
        <pt x="174" y="169" on="0"/>
        <pt x="219" y="108" on="0"/>
        <pt x="289" y="108" on="1"/>
        <pt x="405" y="116" on="1"/>
        <pt x="409" y="9" on="1"/>
        <pt x="302" y="-12" on="0"/>
        <pt x="246" y="-12" on="1"/>
        <pt x="135" y="-12" on="0"/>
        <pt x="38" y="113" on="0"/>
        <pt x="38" y="389" on="0"/>
        <pt x="138" y="512" on="0"/>
      </contour>
      <contour>
        <pt x="97" y="651" on="1"/>
        <pt x="349" y="753" on="1"/>
        <pt x="389" y="638" on="1"/>
        <pt x="127" y="564" on="1"/>
      </contour>
    </TTGlyph>
    <TTGlyph name="caron" xMin="-20" yMin="580" xMax="318" yMax="731">
      <contour>
        <pt x="106" y="580" on="1"/>
        <pt x="-20" y="731" on="1"/>
        <pt x="103" y="731" on="1"/>
        <pt x="149" y="664" on="1"/>
        <pt x="195" y="731" on="1"/>
        <pt x="318" y="731" on="1"/>
        <pt x="190" y="580" on="1"/>
      </contour>
    </TTGlyph>
    <TTGlyph name="caron.cap" xMin="-46" yMin="765" xMax="339" yMax="914">
      <contour>
        <pt x="88" y="765" on="1"/>
        <pt x="-46" y="914" on="1"/>
        <pt x="96" y="914" on="1"/>
        <pt x="148" y="858" on="1"/>
        <pt x="197" y="914" on="1"/>
        <pt x="339" y="914" on="1"/>
        <pt x="205" y="765" on="1"/>
      </contour>
    </TTGlyph>
    <TTGlyph name="ccaron" xMin="38" yMin="-12" xMax="411" yMax="731">
      <contour>
        <pt x="249" y="512" on="1"/>
        <pt x="301" y="512" on="0"/>
        <pt x="382" y="496" on="1"/>
        <pt x="409" y="490" on="1"/>
        <pt x="405" y="384" on="1"/>
        <pt x="326" y="392" on="0"/>
        <pt x="288" y="392" on="1"/>
        <pt x="219" y="392" on="0"/>
        <pt x="174" y="333" on="0"/>
        <pt x="174" y="169" on="0"/>
        <pt x="219" y="108" on="0"/>
        <pt x="289" y="108" on="1"/>
        <pt x="405" y="116" on="1"/>
        <pt x="409" y="9" on="1"/>
        <pt x="302" y="-12" on="0"/>
        <pt x="246" y="-12" on="1"/>
        <pt x="135" y="-12" on="0"/>
        <pt x="38" y="113" on="0"/>
        <pt x="38" y="389" on="0"/>
        <pt x="138" y="512" on="0"/>
      </contour>
      <contour>
        <pt x="199" y="580" on="1"/>
        <pt x="73" y="731" on="1"/>
        <pt x="196" y="731" on="1"/>
        <pt x="242" y="664" on="1"/>
        <pt x="288" y="731" on="1"/>
        <pt x="411" y="731" on="1"/>
        <pt x="283" y="580" on="1"/>
      </contour>
    </TTGlyph>
    <TTGlyph name="ccedilla" xMin="38" yMin="-241" xMax="409" yMax="512">
      <contour>
        <pt x="319" y="-38" on="0"/>
        <pt x="378" y="-74" on="0"/>
        <pt x="378" y="-184" on="0"/>
        <pt x="320" y="-241" on="0"/>
        <pt x="267" y="-241" on="1"/>
        <pt x="224" y="-241" on="0"/>
        <pt x="188" y="-233" on="1"/>
        <pt x="174" y="-230" on="1"/>
        <pt x="178" y="-152" on="1"/>
        <pt x="209" y="-153" on="0"/>
        <pt x="226" y="-153" on="1"/>
        <pt x="264" y="-153" on="0"/>
        <pt x="264" y="-127" on="1"/>
        <pt x="264" y="-105" on="0"/>
        <pt x="226" y="-105" on="1"/>
        <pt x="202" y="-105" on="1"/>
        <pt x="202" y="-9" on="1"/>
        <pt x="115" y="2" on="0"/>
        <pt x="38" y="128" on="0"/>
        <pt x="38" y="389" on="0"/>
        <pt x="138" y="512" on="0"/>
        <pt x="249" y="512" on="1"/>
        <pt x="301" y="512" on="0"/>
        <pt x="382" y="496" on="1"/>
        <pt x="409" y="490" on="1"/>
        <pt x="405" y="384" on="1"/>
        <pt x="326" y="392" on="0"/>
        <pt x="288" y="392" on="1"/>
        <pt x="219" y="392" on="0"/>
        <pt x="174" y="333" on="0"/>
        <pt x="174" y="169" on="0"/>
        <pt x="219" y="108" on="0"/>
        <pt x="289" y="108" on="1"/>
        <pt x="405" y="116" on="1"/>
        <pt x="409" y="9" on="1"/>
        <pt x="312" y="-10" on="0"/>
        <pt x="255" y="-12" on="1"/>
        <pt x="255" y="-37" on="1"/>
      </contour>
    </TTGlyph>
    <TTGlyph name="ccircumflex" xMin="38" yMin="-12" xMax="409" yMax="731">
      <contour>
        <pt x="249" y="512" on="1"/>
        <pt x="301" y="512" on="0"/>
        <pt x="382" y="496" on="1"/>
        <pt x="409" y="490" on="1"/>
        <pt x="405" y="384" on="1"/>
        <pt x="326" y="392" on="0"/>
        <pt x="288" y="392" on="1"/>
        <pt x="219" y="392" on="0"/>
        <pt x="174" y="333" on="0"/>
        <pt x="174" y="169" on="0"/>
        <pt x="219" y="108" on="0"/>
        <pt x="289" y="108" on="1"/>
        <pt x="405" y="116" on="1"/>
        <pt x="409" y="9" on="1"/>
        <pt x="302" y="-12" on="0"/>
        <pt x="246" y="-12" on="1"/>
        <pt x="135" y="-12" on="0"/>
        <pt x="38" y="113" on="0"/>
        <pt x="38" y="389" on="0"/>
        <pt x="138" y="512" on="0"/>
      </contour>
      <contour>
        <pt x="54" y="580" on="1"/>
        <pt x="180" y="731" on="1"/>
        <pt x="264" y="731" on="1"/>
        <pt x="392" y="580" on="1"/>
        <pt x="269" y="580" on="1"/>
        <pt x="223" y="647" on="1"/>
        <pt x="177" y="580" on="1"/>
      </contour>
    </TTGlyph>
    <TTGlyph name="cdotaccent" xMin="38" yMin="-12" xMax="409" yMax="691">
      <contour>
        <pt x="249" y="512" on="1"/>
        <pt x="301" y="512" on="0"/>
        <pt x="382" y="496" on="1"/>
        <pt x="409" y="490" on="1"/>
        <pt x="405" y="384" on="1"/>
        <pt x="326" y="392" on="0"/>
        <pt x="288" y="392" on="1"/>
        <pt x="219" y="392" on="0"/>
        <pt x="174" y="333" on="0"/>
        <pt x="174" y="169" on="0"/>
        <pt x="219" y="108" on="0"/>
        <pt x="289" y="108" on="1"/>
        <pt x="405" y="116" on="1"/>
        <pt x="409" y="9" on="1"/>
        <pt x="302" y="-12" on="0"/>
        <pt x="246" y="-12" on="1"/>
        <pt x="135" y="-12" on="0"/>
        <pt x="38" y="113" on="0"/>
        <pt x="38" y="389" on="0"/>
        <pt x="138" y="512" on="0"/>
      </contour>
      <contour>
        <pt x="189" y="556" on="1"/>
        <pt x="189" y="691" on="1"/>
        <pt x="323" y="691" on="1"/>
        <pt x="323" y="556" on="1"/>
      </contour>
    </TTGlyph>
    <TTGlyph name="cedilla" xMin="30" yMin="-241" xMax="234" yMax="1">
      <contour>
        <pt x="175" y="-38" on="0"/>
        <pt x="234" y="-74" on="0"/>
        <pt x="234" y="-184" on="0"/>
        <pt x="176" y="-241" on="0"/>
        <pt x="123" y="-241" on="1"/>
        <pt x="79" y="-241" on="0"/>
        <pt x="44" y="-233" on="1"/>
        <pt x="30" y="-230" on="1"/>
        <pt x="34" y="-152" on="1"/>
        <pt x="65" y="-153" on="0"/>
        <pt x="82" y="-153" on="1"/>
        <pt x="120" y="-153" on="0"/>
        <pt x="120" y="-127" on="1"/>
        <pt x="120" y="-105" on="0"/>
        <pt x="82" y="-105" on="1"/>
        <pt x="58" y="-105" on="1"/>
        <pt x="58" y="1" on="1"/>
        <pt x="111" y="1" on="1"/>
        <pt x="111" y="-37" on="1"/>
      </contour>
    </TTGlyph>
    <TTGlyph name="cent" xMin="88" yMin="-75" xMax="459" yMax="571">
      <contour>
        <pt x="270" y="-75" on="1"/>
        <pt x="270" y="29" on="1"/>
        <pt x="88" y="42" on="0"/>
        <pt x="88" y="455" on="0"/>
        <pt x="270" y="470" on="1"/>
        <pt x="270" y="571" on="1"/>
        <pt x="380" y="571" on="1"/>
        <pt x="380" y="466" on="1"/>
        <pt x="459" y="453" on="1"/>
        <pt x="455" y="353" on="1"/>
        <pt x="376" y="356" on="0"/>
        <pt x="275" y="356" on="0"/>
        <pt x="224" y="307" on="0"/>
        <pt x="224" y="193" on="0"/>
        <pt x="276" y="143" on="0"/>
        <pt x="339" y="143" on="1"/>
        <pt x="455" y="147" on="1"/>
        <pt x="459" y="47" on="1"/>
        <pt x="420" y="37" on="0"/>
        <pt x="380" y="34" on="1"/>
        <pt x="380" y="-75" on="1"/>
      </contour>
    </TTGlyph>
    <TTGlyph name="circumflex" xMin="-24" yMin="580" xMax="314" yMax="731">
      <contour>
        <pt x="-24" y="580" on="1"/>
        <pt x="102" y="731" on="1"/>
        <pt x="186" y="731" on="1"/>
        <pt x="314" y="580" on="1"/>
        <pt x="191" y="580" on="1"/>
        <pt x="145" y="647" on="1"/>
        <pt x="99" y="580" on="1"/>
      </contour>
    </TTGlyph>
    <TTGlyph name="circumflex.cap" xMin="24" yMin="765" xMax="409" yMax="914">
      <contour>
        <pt x="24" y="765" on="1"/>
        <pt x="158" y="914" on="1"/>
        <pt x="275" y="914" on="1"/>
        <pt x="409" y="765" on="1"/>
        <pt x="267" y="765" on="1"/>
        <pt x="218" y="821" on="1"/>
        <pt x="166" y="765" on="1"/>
      </contour>
    </TTGlyph>
    <TTGlyph name="colon" xMin="56" yMin="0" xMax="200" yMax="455">
      <contour>
        <pt x="56" y="289" on="1"/>
        <pt x="56" y="455" on="1"/>
        <pt x="200" y="455" on="1"/>
        <pt x="200" y="289" on="1"/>
      </contour>
      <contour>
        <pt x="56" y="0" on="1"/>
        <pt x="56" y="166" on="1"/>
        <pt x="200" y="166" on="1"/>
        <pt x="200" y="0" on="1"/>
      </contour>
    </TTGlyph>
    <TTGlyph name="comma" xMin="20" yMin="-123" xMax="218" yMax="137">
      <contour>
        <pt x="20" y="-123" on="1"/>
        <pt x="70" y="137" on="1"/>
        <pt x="218" y="137" on="1"/>
        <pt x="128" y="-123" on="1"/>
      </contour>
    </TTGlyph>
    <TTGlyph name="commaaccent" xMin="-5" yMin="-311" xMax="171" yMax="-77">
      <contour>
        <pt x="-5" y="-311" on="1"/>
        <pt x="41" y="-77" on="1"/>
        <pt x="171" y="-77" on="1"/>
        <pt x="116" y="-311" on="1"/>
      </contour>
    </TTGlyph>
    <TTGlyph name="copyright" xMin="46" yMin="150" xMax="597" yMax="718">
      <contour>
        <pt x="203" y="150" on="0"/>
        <pt x="46" y="314" on="0"/>
        <pt x="46" y="557" on="0"/>
        <pt x="202" y="718" on="0"/>
        <pt x="445" y="718" on="0"/>
        <pt x="597" y="553" on="0"/>
        <pt x="597" y="311" on="0"/>
        <pt x="445" y="150" on="0"/>
      </contour>
      <contour>
        <pt x="108" y="527" on="0"/>
        <pt x="108" y="341" on="0"/>
        <pt x="230" y="210" on="0"/>
        <pt x="413" y="210" on="0"/>
        <pt x="535" y="340" on="0"/>
        <pt x="535" y="526" on="0"/>
        <pt x="412" y="658" on="0"/>
        <pt x="231" y="658" on="0"/>
      </contour>
      <contour>
        <pt x="414" y="287" on="1"/>
        <pt x="386" y="269" on="0"/>
        <pt x="261" y="269" on="0"/>
        <pt x="202" y="341" on="0"/>
        <pt x="202" y="528" on="0"/>
        <pt x="263" y="598" on="0"/>
        <pt x="334" y="598" on="1"/>
        <pt x="373" y="598" on="0"/>
        <pt x="404" y="586" on="1"/>
        <pt x="414" y="583" on="1"/>
        <pt x="407" y="497" on="1"/>
        <pt x="372" y="503" on="0"/>
        <pt x="320" y="503" on="0"/>
        <pt x="305" y="475" on="0"/>
        <pt x="305" y="439" on="1"/>
        <pt x="305" y="364" on="0"/>
        <pt x="340" y="364" on="1"/>
        <pt x="407" y="369" on="1"/>
      </contour>
    </TTGlyph>
    <TTGlyph name="currency" xMin="30" yMin="2" xMax="530" yMax="502">
      <contour>
        <pt x="325" y="55" on="0"/>
        <pt x="235" y="55" on="0"/>
        <pt x="195" y="75" on="1"/>
        <pt x="122" y="2" on="1"/>
        <pt x="30" y="94" on="1"/>
        <pt x="102" y="166" on="1"/>
        <pt x="83" y="207" on="0"/>
        <pt x="83" y="296" on="0"/>
        <pt x="102" y="337" on="1"/>
        <pt x="30" y="410" on="1"/>
        <pt x="122" y="502" on="1"/>
        <pt x="194" y="429" on="1"/>
        <pt x="234" y="449" on="0"/>
        <pt x="325" y="449" on="0"/>
        <pt x="365" y="429" on="1"/>
        <pt x="438" y="502" on="1"/>
        <pt x="530" y="410" on="1"/>
        <pt x="457" y="337" on="1"/>
        <pt x="477" y="297" on="0"/>
        <pt x="477" y="206" on="0"/>
        <pt x="457" y="166" on="1"/>
        <pt x="530" y="94" on="1"/>
        <pt x="438" y="2" on="1"/>
        <pt x="365" y="75" on="1"/>
      </contour>
      <contour>
        <pt x="245" y="166" on="0"/>
        <pt x="315" y="166" on="0"/>
        <pt x="366" y="217" on="0"/>
        <pt x="366" y="287" on="0"/>
        <pt x="315" y="338" on="0"/>
        <pt x="245" y="338" on="0"/>
        <pt x="194" y="287" on="0"/>
        <pt x="194" y="217" on="0"/>
      </contour>
    </TTGlyph>
    <TTGlyph name="d" xMin="38" yMin="-12" xMax="487" yMax="700">
      <contour>
        <pt x="487" y="700" on="1"/>
        <pt x="487" y="0" on="1"/>
        <pt x="354" y="0" on="1"/>
        <pt x="354" y="21" on="1"/>
        <pt x="284" y="-12" on="0"/>
        <pt x="233" y="-12" on="1"/>
        <pt x="124" y="-12" on="0"/>
        <pt x="38" y="114" on="0"/>
        <pt x="38" y="387" on="0"/>
        <pt x="141" y="512" on="0"/>
        <pt x="245" y="512" on="1"/>
        <pt x="277" y="512" on="0"/>
        <pt x="334" y="502" on="1"/>
        <pt x="353" y="498" on="1"/>
        <pt x="353" y="700" on="1"/>
      </contour>
      <contour>
        <pt x="339" y="120" on="1"/>
        <pt x="353" y="123" on="1"/>
        <pt x="353" y="386" on="1"/>
        <pt x="298" y="396" on="0"/>
        <pt x="255" y="396" on="1"/>
        <pt x="174" y="396" on="0"/>
        <pt x="174" y="252" on="1"/>
        <pt x="174" y="174" on="0"/>
        <pt x="210" y="108" on="0"/>
        <pt x="293" y="108" on="0"/>
      </contour>
    </TTGlyph>
    <TTGlyph name="dagger" xMin="28" yMin="-71" xMax="452" yMax="680">
      <contour>
        <pt x="28" y="386" on="1"/>
        <pt x="28" y="500" on="1"/>
        <pt x="173" y="500" on="1"/>
        <pt x="173" y="680" on="1"/>
        <pt x="307" y="680" on="1"/>
        <pt x="307" y="500" on="1"/>
        <pt x="452" y="500" on="1"/>
        <pt x="452" y="386" on="1"/>
        <pt x="307" y="386" on="1"/>
        <pt x="297" y="-71" on="1"/>
        <pt x="183" y="-71" on="1"/>
        <pt x="173" y="386" on="1"/>
      </contour>
    </TTGlyph>
    <TTGlyph name="daggerdbl" xMin="44" yMin="-71" xMax="468" yMax="680">
      <contour>
        <pt x="189" y="-71" on="1"/>
        <pt x="189" y="109" on="1"/>
        <pt x="44" y="109" on="1"/>
        <pt x="44" y="223" on="1"/>
        <pt x="189" y="223" on="1"/>
        <pt x="189" y="386" on="1"/>
        <pt x="44" y="386" on="1"/>
        <pt x="44" y="500" on="1"/>
        <pt x="189" y="500" on="1"/>
        <pt x="189" y="680" on="1"/>
        <pt x="323" y="680" on="1"/>
        <pt x="323" y="500" on="1"/>
        <pt x="467" y="500" on="1"/>
        <pt x="467" y="386" on="1"/>
        <pt x="323" y="386" on="1"/>
        <pt x="323" y="223" on="1"/>
        <pt x="468" y="223" on="1"/>
        <pt x="468" y="109" on="1"/>
        <pt x="323" y="109" on="1"/>
        <pt x="323" y="-71" on="1"/>
      </contour>
    </TTGlyph>
    <TTGlyph name="dcaron" xMin="38" yMin="-12" xMax="720" yMax="700">
      <contour>
        <pt x="590" y="678" on="1"/>
        <pt x="720" y="678" on="1"/>
        <pt x="665" y="444" on="1"/>
        <pt x="544" y="444" on="1"/>
      </contour>
      <contour>
        <pt x="487" y="700" on="1"/>
        <pt x="487" y="0" on="1"/>
        <pt x="354" y="0" on="1"/>
        <pt x="354" y="21" on="1"/>
        <pt x="284" y="-12" on="0"/>
        <pt x="233" y="-12" on="1"/>
        <pt x="124" y="-12" on="0"/>
        <pt x="38" y="114" on="0"/>
        <pt x="38" y="387" on="0"/>
        <pt x="141" y="512" on="0"/>
        <pt x="245" y="512" on="1"/>
        <pt x="277" y="512" on="0"/>
        <pt x="334" y="502" on="1"/>
        <pt x="353" y="498" on="1"/>
        <pt x="353" y="700" on="1"/>
      </contour>
      <contour>
        <pt x="339" y="120" on="1"/>
        <pt x="353" y="123" on="1"/>
        <pt x="353" y="386" on="1"/>
        <pt x="298" y="396" on="0"/>
        <pt x="255" y="396" on="1"/>
        <pt x="174" y="396" on="0"/>
        <pt x="174" y="252" on="1"/>
        <pt x="174" y="174" on="0"/>
        <pt x="210" y="108" on="0"/>
        <pt x="293" y="108" on="0"/>
      </contour>
    </TTGlyph>
    <TTGlyph name="dcroat" xMin="38" yMin="-12" xMax="487" yMax="738">
      <contour>
        <pt x="129" y="622" on="1"/>
        <pt x="129" y="738" on="1"/>
        <pt x="456" y="738" on="1"/>
        <pt x="456" y="700" on="1"/>
        <pt x="487" y="700" on="1"/>
        <pt x="487" y="0" on="1"/>
        <pt x="354" y="0" on="1"/>
        <pt x="354" y="21" on="1"/>
        <pt x="284" y="-12" on="0"/>
        <pt x="233" y="-12" on="1"/>
        <pt x="124" y="-12" on="0"/>
        <pt x="38" y="114" on="0"/>
        <pt x="38" y="387" on="0"/>
        <pt x="141" y="512" on="0"/>
        <pt x="245" y="512" on="1"/>
        <pt x="277" y="512" on="0"/>
        <pt x="334" y="502" on="1"/>
        <pt x="353" y="498" on="1"/>
        <pt x="353" y="622" on="1"/>
      </contour>
      <contour>
        <pt x="339" y="120" on="1"/>
        <pt x="353" y="123" on="1"/>
        <pt x="353" y="386" on="1"/>
        <pt x="298" y="396" on="0"/>
        <pt x="255" y="396" on="1"/>
        <pt x="174" y="396" on="0"/>
        <pt x="174" y="252" on="1"/>
        <pt x="174" y="174" on="0"/>
        <pt x="210" y="108" on="0"/>
        <pt x="293" y="108" on="0"/>
      </contour>
    </TTGlyph>
    <TTGlyph name="degree" xMin="130" yMin="393" xMax="430" yMax="692">
      <contour>
        <pt x="130" y="475" on="0"/>
        <pt x="130" y="609" on="0"/>
        <pt x="213" y="692" on="0"/>
        <pt x="347" y="692" on="0"/>
        <pt x="430" y="609" on="0"/>
        <pt x="430" y="475" on="0"/>
        <pt x="347" y="393" on="0"/>
        <pt x="213" y="393" on="0"/>
      </contour>
      <contour>
        <pt x="205" y="576" on="0"/>
        <pt x="205" y="508" on="0"/>
        <pt x="246" y="466" on="0"/>
        <pt x="314" y="466" on="0"/>
        <pt x="357" y="508" on="0"/>
        <pt x="357" y="576" on="0"/>
        <pt x="314" y="619" on="0"/>
        <pt x="246" y="619" on="0"/>
      </contour>
    </TTGlyph>
    <TTGlyph name="dieresis" xMin="-30" yMin="596" xMax="314" yMax="728">
      <contour>
        <pt x="-30" y="596" on="1"/>
        <pt x="-30" y="728" on="1"/>
        <pt x="98" y="728" on="1"/>
        <pt x="98" y="596" on="1"/>
      </contour>
      <contour>
        <pt x="186" y="596" on="1"/>
        <pt x="186" y="728" on="1"/>
        <pt x="314" y="728" on="1"/>
        <pt x="314" y="596" on="1"/>
      </contour>
    </TTGlyph>
    <TTGlyph name="dieresis.cap" xMin="-42" yMin="764" xMax="300" yMax="896">
      <contour>
        <pt x="-42" y="764" on="1"/>
        <pt x="-42" y="896" on="1"/>
        <pt x="86" y="896" on="1"/>
        <pt x="86" y="764" on="1"/>
      </contour>
      <contour>
        <pt x="172" y="764" on="1"/>
        <pt x="172" y="896" on="1"/>
        <pt x="300" y="896" on="1"/>
        <pt x="300" y="764" on="1"/>
      </contour>
    </TTGlyph>
    <TTGlyph name="divide" xMin="50" yMin="17" xMax="510" yMax="484">
      <contour>
        <pt x="213" y="352" on="1"/>
        <pt x="213" y="484" on="1"/>
        <pt x="345" y="484" on="1"/>
        <pt x="345" y="352" on="1"/>
      </contour>
      <contour>
        <pt x="50" y="191" on="1"/>
        <pt x="50" y="311" on="1"/>
        <pt x="510" y="311" on="1"/>
        <pt x="510" y="191" on="1"/>
      </contour>
      <contour>
        <pt x="213" y="17" on="1"/>
        <pt x="213" y="149" on="1"/>
        <pt x="345" y="149" on="1"/>
        <pt x="345" y="17" on="1"/>
      </contour>
    </TTGlyph>
    <TTGlyph name="dollar" xMin="52" yMin="-130" xMax="508" yMax="810">
      <contour>
        <pt x="508" y="199" on="1"/>
        <pt x="508" y="95" on="0"/>
        <pt x="382" y="-12" on="0"/>
        <pt x="280" y="-12" on="1"/>
        <pt x="279" y="-12" on="1"/>
        <pt x="264" y="-130" on="1"/>
        <pt x="190" y="-127" on="0"/>
        <pt x="190" y="-123" on="1"/>
        <pt x="204" y="-7" on="1"/>
        <pt x="130" y="2" on="0"/>
        <pt x="80" y="14" on="1"/>
        <pt x="60" y="18" on="1"/>
        <pt x="73" y="122" on="1"/>
        <pt x="152" y="111" on="0"/>
        <pt x="219" y="107" on="1"/>
        <pt x="241" y="281" on="1"/>
        <pt x="138" y="312" on="0"/>
        <pt x="52" y="400" on="0"/>
        <pt x="52" y="476" on="1"/>
        <pt x="52" y="575" on="0"/>
        <pt x="172" y="672" on="0"/>
        <pt x="277" y="672" on="1"/>
        <pt x="290" y="672" on="1"/>
        <pt x="308" y="810" on="1"/>
        <pt x="382" y="810" on="1"/>
        <pt x="364" y="666" on="1"/>
        <pt x="426" y="660" on="0"/>
        <pt x="478" y="650" on="1"/>
        <pt x="495" y="646" on="1"/>
        <pt x="484" y="540" on="1"/>
        <pt x="411" y="548" on="0"/>
        <pt x="349" y="552" on="1"/>
        <pt x="329" y="391" on="1"/>
        <pt x="433" y="358" on="0"/>
        <pt x="508" y="279" on="0"/>
      </contour>
      <contour>
        <pt x="185" y="485" on="1"/>
        <pt x="185" y="461" on="0"/>
        <pt x="215" y="431" on="0"/>
        <pt x="258" y="415" on="1"/>
        <pt x="275" y="554" on="1"/>
        <pt x="185" y="550" on="0"/>
      </contour>
      <contour>
        <pt x="375" y="190" on="1"/>
        <pt x="375" y="214" on="0"/>
        <pt x="348" y="245" on="0"/>
        <pt x="313" y="259" on="1"/>
        <pt x="294" y="106" on="1"/>
        <pt x="375" y="115" on="0"/>
      </contour>
    </TTGlyph>
    <TTGlyph name="dotaccent" xMin="67" yMin="556" xMax="201" yMax="691">
      <contour>
        <pt x="67" y="556" on="1"/>
        <pt x="67" y="691" on="1"/>
        <pt x="201" y="691" on="1"/>
        <pt x="201" y="556" on="1"/>
      </contour>
    </TTGlyph>
    <TTGlyph name="dotaccent.cap" xMin="67" yMin="767" xMax="201" yMax="902">
      <contour>
        <pt x="67" y="767" on="1"/>
        <pt x="67" y="902" on="1"/>
        <pt x="201" y="902" on="1"/>
        <pt x="201" y="767" on="1"/>
      </contour>
    </TTGlyph>
    <TTGlyph name="dotlessi" xMin="62" yMin="0" xMax="196" yMax="500">
      <contour>
        <pt x="62" y="0" on="1"/>
        <pt x="62" y="500" on="1"/>
        <pt x="196" y="500" on="1"/>
        <pt x="196" y="0" on="1"/>
      </contour>
    </TTGlyph>
    <TTGlyph name="dotlessj" xMin="-34" yMin="-230" xMax="197" yMax="500">
      <contour>
        <pt x="63" y="24" on="1"/>
        <pt x="63" y="500" on="1"/>
        <pt x="197" y="500" on="1"/>
        <pt x="197" y="23" on="1"/>
        <pt x="197" y="-79" on="0"/>
        <pt x="126" y="-176" on="0"/>
        <pt x="19" y="-230" on="1"/>
        <pt x="-34" y="-131" on="1"/>
        <pt x="11" y="-101" on="0"/>
        <pt x="47" y="-67" on="0"/>
        <pt x="63" y="-20" on="0"/>
      </contour>
    </TTGlyph>
    <TTGlyph name="e" xMin="37" yMin="-12" xMax="476" yMax="512">
      <contour>
        <pt x="173" y="147" on="0"/>
        <pt x="220" y="106" on="0"/>
        <pt x="264" y="106" on="1"/>
        <pt x="357" y="106" on="0"/>
        <pt x="430" y="112" on="1"/>
        <pt x="458" y="115" on="1"/>
        <pt x="460" y="16" on="1"/>
        <pt x="345" y="-12" on="0"/>
        <pt x="252" y="-12" on="1"/>
        <pt x="139" y="-12" on="0"/>
        <pt x="37" y="108" on="0"/>
        <pt x="37" y="243" on="1"/>
        <pt x="37" y="512" on="0"/>
        <pt x="258" y="512" on="1"/>
        <pt x="476" y="512" on="0"/>
        <pt x="476" y="286" on="1"/>
        <pt x="466" y="193" on="1"/>
        <pt x="172" y="193" on="1"/>
      </contour>
      <contour>
        <pt x="344" y="295" on="1"/>
        <pt x="344" y="355" on="0"/>
        <pt x="306" y="402" on="0"/>
        <pt x="211" y="402" on="0"/>
        <pt x="172" y="353" on="0"/>
        <pt x="171" y="295" on="1"/>
      </contour>
    </TTGlyph>
    <TTGlyph name="eacute" xMin="37" yMin="-12" xMax="476" yMax="753">
      <contour>
        <pt x="173" y="147" on="0"/>
        <pt x="220" y="106" on="0"/>
        <pt x="264" y="106" on="1"/>
        <pt x="357" y="106" on="0"/>
        <pt x="430" y="112" on="1"/>
        <pt x="458" y="115" on="1"/>
        <pt x="460" y="16" on="1"/>
        <pt x="345" y="-12" on="0"/>
        <pt x="252" y="-12" on="1"/>
        <pt x="139" y="-12" on="0"/>
        <pt x="37" y="108" on="0"/>
        <pt x="37" y="243" on="1"/>
        <pt x="37" y="512" on="0"/>
        <pt x="258" y="512" on="1"/>
        <pt x="476" y="512" on="0"/>
        <pt x="476" y="286" on="1"/>
        <pt x="466" y="193" on="1"/>
        <pt x="172" y="193" on="1"/>
      </contour>
      <contour>
        <pt x="344" y="295" on="1"/>
        <pt x="344" y="355" on="0"/>
        <pt x="306" y="402" on="0"/>
        <pt x="211" y="402" on="0"/>
        <pt x="172" y="353" on="0"/>
        <pt x="171" y="295" on="1"/>
      </contour>
      <contour>
        <pt x="105" y="651" on="1"/>
        <pt x="357" y="753" on="1"/>
        <pt x="397" y="638" on="1"/>
        <pt x="135" y="564" on="1"/>
      </contour>
    </TTGlyph>
    <TTGlyph name="ebreve" xMin="37" yMin="-12" xMax="476" yMax="730">
      <contour>
        <pt x="173" y="147" on="0"/>
        <pt x="220" y="106" on="0"/>
        <pt x="264" y="106" on="1"/>
        <pt x="357" y="106" on="0"/>
        <pt x="430" y="112" on="1"/>
        <pt x="458" y="115" on="1"/>
        <pt x="460" y="16" on="1"/>
        <pt x="345" y="-12" on="0"/>
        <pt x="252" y="-12" on="1"/>
        <pt x="139" y="-12" on="0"/>
        <pt x="37" y="108" on="0"/>
        <pt x="37" y="243" on="1"/>
        <pt x="37" y="512" on="0"/>
        <pt x="258" y="512" on="1"/>
        <pt x="476" y="512" on="0"/>
        <pt x="476" y="286" on="1"/>
        <pt x="466" y="193" on="1"/>
        <pt x="172" y="193" on="1"/>
      </contour>
      <contour>
        <pt x="344" y="295" on="1"/>
        <pt x="344" y="355" on="0"/>
        <pt x="306" y="402" on="0"/>
        <pt x="211" y="402" on="0"/>
        <pt x="172" y="353" on="0"/>
        <pt x="171" y="295" on="1"/>
      </contour>
      <contour>
        <pt x="258" y="664" on="1"/>
        <pt x="314" y="664" on="0"/>
        <pt x="321" y="730" on="1"/>
        <pt x="422" y="730" on="1"/>
        <pt x="414" y="665" on="0"/>
        <pt x="329" y="573" on="0"/>
        <pt x="187" y="573" on="0"/>
        <pt x="102" y="665" on="0"/>
        <pt x="94" y="730" on="1"/>
        <pt x="195" y="730" on="1"/>
        <pt x="199" y="699" on="0"/>
        <pt x="232" y="664" on="0"/>
      </contour>
    </TTGlyph>
    <TTGlyph name="ecaron" xMin="37" yMin="-12" xMax="476" yMax="731">
      <contour>
        <pt x="173" y="147" on="0"/>
        <pt x="220" y="106" on="0"/>
        <pt x="264" y="106" on="1"/>
        <pt x="357" y="106" on="0"/>
        <pt x="430" y="112" on="1"/>
        <pt x="458" y="115" on="1"/>
        <pt x="460" y="16" on="1"/>
        <pt x="345" y="-12" on="0"/>
        <pt x="252" y="-12" on="1"/>
        <pt x="139" y="-12" on="0"/>
        <pt x="37" y="108" on="0"/>
        <pt x="37" y="243" on="1"/>
        <pt x="37" y="512" on="0"/>
        <pt x="258" y="512" on="1"/>
        <pt x="476" y="512" on="0"/>
        <pt x="476" y="286" on="1"/>
        <pt x="466" y="193" on="1"/>
        <pt x="172" y="193" on="1"/>
      </contour>
      <contour>
        <pt x="344" y="295" on="1"/>
        <pt x="344" y="355" on="0"/>
        <pt x="306" y="402" on="0"/>
        <pt x="211" y="402" on="0"/>
        <pt x="172" y="353" on="0"/>
        <pt x="171" y="295" on="1"/>
      </contour>
      <contour>
        <pt x="211" y="580" on="1"/>
        <pt x="85" y="731" on="1"/>
        <pt x="208" y="731" on="1"/>
        <pt x="254" y="664" on="1"/>
        <pt x="300" y="731" on="1"/>
        <pt x="423" y="731" on="1"/>
        <pt x="295" y="580" on="1"/>
      </contour>
    </TTGlyph>
    <TTGlyph name="ecircumflex" xMin="37" yMin="-12" xMax="476" yMax="731">
      <contour>
        <pt x="173" y="147" on="0"/>
        <pt x="220" y="106" on="0"/>
        <pt x="264" y="106" on="1"/>
        <pt x="357" y="106" on="0"/>
        <pt x="430" y="112" on="1"/>
        <pt x="458" y="115" on="1"/>
        <pt x="460" y="16" on="1"/>
        <pt x="345" y="-12" on="0"/>
        <pt x="252" y="-12" on="1"/>
        <pt x="139" y="-12" on="0"/>
        <pt x="37" y="108" on="0"/>
        <pt x="37" y="243" on="1"/>
        <pt x="37" y="512" on="0"/>
        <pt x="258" y="512" on="1"/>
        <pt x="476" y="512" on="0"/>
        <pt x="476" y="286" on="1"/>
        <pt x="466" y="193" on="1"/>
        <pt x="172" y="193" on="1"/>
      </contour>
      <contour>
        <pt x="344" y="295" on="1"/>
        <pt x="344" y="355" on="0"/>
        <pt x="306" y="402" on="0"/>
        <pt x="211" y="402" on="0"/>
        <pt x="172" y="353" on="0"/>
        <pt x="171" y="295" on="1"/>
      </contour>
      <contour>
        <pt x="89" y="580" on="1"/>
        <pt x="215" y="731" on="1"/>
        <pt x="299" y="731" on="1"/>
        <pt x="427" y="580" on="1"/>
        <pt x="304" y="580" on="1"/>
        <pt x="258" y="647" on="1"/>
        <pt x="212" y="580" on="1"/>
      </contour>
    </TTGlyph>
    <TTGlyph name="edieresis" xMin="37" yMin="-12" xMax="476" yMax="728">
      <contour>
        <pt x="173" y="147" on="0"/>
        <pt x="220" y="106" on="0"/>
        <pt x="264" y="106" on="1"/>
        <pt x="357" y="106" on="0"/>
        <pt x="430" y="112" on="1"/>
        <pt x="458" y="115" on="1"/>
        <pt x="460" y="16" on="1"/>
        <pt x="345" y="-12" on="0"/>
        <pt x="252" y="-12" on="1"/>
        <pt x="139" y="-12" on="0"/>
        <pt x="37" y="108" on="0"/>
        <pt x="37" y="243" on="1"/>
        <pt x="37" y="512" on="0"/>
        <pt x="258" y="512" on="1"/>
        <pt x="476" y="512" on="0"/>
        <pt x="476" y="286" on="1"/>
        <pt x="466" y="193" on="1"/>
        <pt x="172" y="193" on="1"/>
      </contour>
      <contour>
        <pt x="344" y="295" on="1"/>
        <pt x="344" y="355" on="0"/>
        <pt x="306" y="402" on="0"/>
        <pt x="211" y="402" on="0"/>
        <pt x="172" y="353" on="0"/>
        <pt x="171" y="295" on="1"/>
      </contour>
      <contour>
        <pt x="84" y="596" on="1"/>
        <pt x="84" y="728" on="1"/>
        <pt x="212" y="728" on="1"/>
        <pt x="212" y="596" on="1"/>
      </contour>
      <contour>
        <pt x="300" y="596" on="1"/>
        <pt x="300" y="728" on="1"/>
        <pt x="428" y="728" on="1"/>
        <pt x="428" y="596" on="1"/>
      </contour>
    </TTGlyph>
    <TTGlyph name="edotaccent" xMin="37" yMin="-12" xMax="476" yMax="691">
      <contour>
        <pt x="173" y="147" on="0"/>
        <pt x="220" y="106" on="0"/>
        <pt x="264" y="106" on="1"/>
        <pt x="357" y="106" on="0"/>
        <pt x="430" y="112" on="1"/>
        <pt x="458" y="115" on="1"/>
        <pt x="460" y="16" on="1"/>
        <pt x="345" y="-12" on="0"/>
        <pt x="252" y="-12" on="1"/>
        <pt x="139" y="-12" on="0"/>
        <pt x="37" y="108" on="0"/>
        <pt x="37" y="243" on="1"/>
        <pt x="37" y="512" on="0"/>
        <pt x="258" y="512" on="1"/>
        <pt x="476" y="512" on="0"/>
        <pt x="476" y="286" on="1"/>
        <pt x="466" y="193" on="1"/>
        <pt x="172" y="193" on="1"/>
      </contour>
      <contour>
        <pt x="344" y="295" on="1"/>
        <pt x="344" y="355" on="0"/>
        <pt x="306" y="402" on="0"/>
        <pt x="211" y="402" on="0"/>
        <pt x="172" y="353" on="0"/>
        <pt x="171" y="295" on="1"/>
      </contour>
      <contour>
        <pt x="190" y="556" on="1"/>
        <pt x="190" y="691" on="1"/>
        <pt x="324" y="691" on="1"/>
        <pt x="324" y="556" on="1"/>
      </contour>
    </TTGlyph>
    <TTGlyph name="egrave" xMin="37" yMin="-12" xMax="476" yMax="753">
      <contour>
        <pt x="173" y="147" on="0"/>
        <pt x="220" y="106" on="0"/>
        <pt x="264" y="106" on="1"/>
        <pt x="357" y="106" on="0"/>
        <pt x="430" y="112" on="1"/>
        <pt x="458" y="115" on="1"/>
        <pt x="460" y="16" on="1"/>
        <pt x="345" y="-12" on="0"/>
        <pt x="252" y="-12" on="1"/>
        <pt x="139" y="-12" on="0"/>
        <pt x="37" y="108" on="0"/>
        <pt x="37" y="243" on="1"/>
        <pt x="37" y="512" on="0"/>
        <pt x="258" y="512" on="1"/>
        <pt x="476" y="512" on="0"/>
        <pt x="476" y="286" on="1"/>
        <pt x="466" y="193" on="1"/>
        <pt x="172" y="193" on="1"/>
      </contour>
      <contour>
        <pt x="344" y="295" on="1"/>
        <pt x="344" y="355" on="0"/>
        <pt x="306" y="402" on="0"/>
        <pt x="211" y="402" on="0"/>
        <pt x="172" y="353" on="0"/>
        <pt x="171" y="295" on="1"/>
      </contour>
      <contour>
        <pt x="150" y="753" on="1"/>
        <pt x="402" y="651" on="1"/>
        <pt x="372" y="564" on="1"/>
        <pt x="110" y="638" on="1"/>
      </contour>
    </TTGlyph>
    <TTGlyph name="eight" xMin="28" yMin="-12" xMax="531" yMax="672">
      <contour>
        <pt x="169" y="672" on="0"/>
        <pt x="387" y="672" on="0"/>
        <pt x="521" y="576" on="0"/>
        <pt x="521" y="491" on="1"/>
        <pt x="521" y="433" on="0"/>
        <pt x="493" y="375" on="0"/>
        <pt x="449" y="340" on="1"/>
        <pt x="493" y="303" on="0"/>
        <pt x="531" y="237" on="0"/>
        <pt x="531" y="179" on="1"/>
        <pt x="531" y="81" on="0"/>
        <pt x="391" y="-12" on="0"/>
        <pt x="278" y="-12" on="1"/>
        <pt x="28" y="-12" on="0"/>
        <pt x="28" y="168" on="1"/>
        <pt x="28" y="232" on="0"/>
        <pt x="67" y="303" on="0"/>
        <pt x="111" y="340" on="1"/>
        <pt x="69" y="374" on="0"/>
        <pt x="39" y="439" on="0"/>
        <pt x="39" y="492" on="1"/>
        <pt x="39" y="577" on="0"/>
      </contour>
      <contour>
        <pt x="176" y="200" on="1"/>
        <pt x="176" y="112" on="0"/>
        <pt x="383" y="112" on="0"/>
        <pt x="383" y="200" on="1"/>
        <pt x="383" y="252" on="0"/>
        <pt x="324" y="275" on="1"/>
        <pt x="236" y="275" on="1"/>
        <pt x="176" y="252" on="0"/>
      </contour>
      <contour>
        <pt x="280" y="548" on="1"/>
        <pt x="235" y="548" on="0"/>
        <pt x="187" y="508" on="0"/>
        <pt x="187" y="426" on="0"/>
        <pt x="236" y="392" on="1"/>
        <pt x="324" y="392" on="1"/>
        <pt x="373" y="426" on="0"/>
        <pt x="373" y="470" on="1"/>
        <pt x="373" y="548" on="0"/>
      </contour>
    </TTGlyph>
    <TTGlyph name="eight.dnom" xMin="12" yMin="-11" xMax="268" yMax="323">
      <contour>
        <pt x="17" y="234" on="1"/>
        <pt x="17" y="323" on="0"/>
        <pt x="264" y="323" on="0"/>
        <pt x="264" y="233" on="1"/>
        <pt x="264" y="195" on="0"/>
        <pt x="244" y="170" on="1"/>
        <pt x="237" y="162" on="1"/>
        <pt x="250" y="153" on="0"/>
        <pt x="268" y="116" on="0"/>
        <pt x="268" y="94" on="1"/>
        <pt x="268" y="37" on="0"/>
        <pt x="204" y="-11" on="0"/>
        <pt x="75" y="-11" on="0"/>
        <pt x="12" y="37" on="0"/>
        <pt x="12" y="94" on="1"/>
        <pt x="12" y="114" on="0"/>
        <pt x="28" y="148" on="0"/>
        <pt x="36" y="156" on="1"/>
        <pt x="44" y="163" on="1"/>
        <pt x="17" y="183" on="0"/>
      </contour>
      <contour>
        <pt x="121" y="74" on="0"/>
        <pt x="159" y="74" on="0"/>
        <pt x="159" y="96" on="1"/>
        <pt x="159" y="109" on="0"/>
        <pt x="147" y="121" on="1"/>
        <pt x="133" y="121" on="1"/>
        <pt x="121" y="109" on="0"/>
        <pt x="121" y="96" on="1"/>
      </contour>
      <contour>
        <pt x="158" y="238" on="0"/>
        <pt x="122" y="238" on="0"/>
        <pt x="122" y="219" on="1"/>
        <pt x="122" y="207" on="0"/>
        <pt x="133" y="194" on="1"/>
        <pt x="147" y="194" on="1"/>
        <pt x="158" y="207" on="0"/>
        <pt x="158" y="219" on="1"/>
      </contour>
    </TTGlyph>
</ttFont>
